<mxfile host="app.diagrams.net" agent="Mozilla/5.0 (Windows NT 10.0; Win64; x64) AppleWebKit/537.36 (KHTML, like Gecko) Chrome/136.0.0.0 Safari/537.36 Edg/136.0.0.0" version="27.0.2" pages="2">
  <diagram name="第 1 页" id="p8GJeCVDfSDdPt9tRTdI">
    <mxGraphModel dx="2549" dy="2119" grid="1" gridSize="10" guides="1" tooltips="1" connect="1" arrows="1" fold="1" page="1" pageScale="1" pageWidth="827" pageHeight="1169" math="0" shadow="0">
      <root>
        <mxCell id="0" />
        <mxCell id="1" parent="0" />
        <mxCell id="EB9xk-Qg2N86TKkpJkFX-2" value="" style="shape=image;verticalLabelPosition=bottom;labelBackgroundColor=default;verticalAlign=top;aspect=fixed;imageAspect=0;image=data:image/png,iVBORw0KGgoAAAANSUhEUgAABLAAAAOECAYAAACxbcj6AAAAAXNSR0IArs4c6QAAIABJREFUeF7s3Qe0VOW5//FHeu+9I71I7yogHUFAAcUWNRFrvCaaa9Rk3WhMNCpGjYbYWxQQLFhQkCJdeqiHDtJ7LyKg/tfvuf+XOyEWyil7z3xnrVnncM6cmb0/7+acPb/9vM97znffffedcUMAAQQQQAABBBBAAAEEEEAAAQQQQCCiAucQYEV0ZNgsBBBAAAEEEEAAAQQQQAABBBBAAAEXIMDiQEAAAQQQQAABBBBAAAEEEEAAAQQQiLQAAVakh4eNQwABBBBAAAEEEEAAAQQQQAABBBAgwOIYQAABBBBAAAEEEEAAAQQQQAABBBCItAABVqSHh41DAAEEEEAAAQQQQAABBBBAAAEEECDA4hhAAAEEEEAAAQQQQAABBBBAAAEEEIi0AAFWpIeHjUMAAQQQQAABBBBAAAEEEEAAAQQQIMDiGEAAAQQQQAABBBBAAAEEEEAAAQQQiLQAAVakh4eNQwABBBBAAAEEEEAAAQQQQAABBBAgwOIYQAABBBBAAAEEEEAAAQQQQAABBBCItAABVqSHh41DAAEEEEAAAQQQQAABBBBAAAEEECDA4hhAAAEEEEAAAQQQQAABBBBAAAEEEIi0AAFWpIeHjUMAAQQQQAABBBBAAAEEEEAAAQQQIMDiGEAAAQQQQAABBBBAAAEEEEAAAQQQiLQAAVakh4eNQwABBBBAAAEEEEAAAQQQQAABBBAgwOIYQAABBBBAAAEEEEAAAQQQQAABBBCItAABVqSHh41DAAEEEEAAAQQQQAABBBBAAAEEECDA4hhAAAEEEEAAAQQQQAABBBBAAAEEEIi0AAFWpIeHjUMAAQQQQAABBBBAAAEEEEAAAQQQIMDiGEAAAQQQQAABBBBAAAEEEEAAAQQQiLQAAVakh4eNQwABBBBAAAEEEEAAAQQQQAABBBAgwOIYQAABBBBAAAEEEEAAAQQQQAABBBCItAABVqSHh41DAAEEEEAAAQQQQAABBBBAAAEEECDA4hhAAAEEEEAAAQQQQAABBBBAAAEEEIi0AAFWpIeHjUMAAQQQQAABBBBAAAEEEEAAAQQQIMDiGEAAAQQQQAABBBBAAAEEEEAAAQQQiLQAAVakh4eNQwABBBBAAAEEEEAAAQQQQAABBBAgwOIYQAABBBBAAAEEEEAAAQQQQAABBBCItAABVqSHh41DAAEEEEAAAQQQQAABBBBAAAEEECDA4hhAAAEEEEAAAQQQQAABBBBAAAEEEIi0AAFWpIeHjUMAAQQQQAABBBBAAAEEEEAAAQQQIMDiGEAAAQQQQAABBBBAAAEEEEAAAQQQiLQAAVakh4eNQwABBBBAAAEEEEAAAQQQQAABBBAgwOIYQAABBBBAAAEEEEAAAQQQQAABBBCItAABVqSHh41DAAEEEEAAAQQQQAABBBBAAAEEECDA4hhAAAEEEEAAAQQQQAABBBBAAAEEEIi0AAFWpIeHjUMAAQQQQAABBBBAAAEEEEAAAQQQIMDiGEAAAQQQQAABBBBAAAEEEEAAAQQQiLQAAVakh4eNQwABBBBAAAEEEEAAAQQQQAABBBAgwOIYQAABBBBAAAEEEEAAAQQQQAABBBCItAABVqSHh41DAAEEEEAAAQQQQAABBBBAAAEEECDA4hhAAAEEEEAAAQQQQAABBBBAAAEEEIi0AAFWpIeHjUMAAQQQQAABBBBAAAEEEEAAAQQQIMDiGEAAAQQQQAABBBBAAAEEEEAAAQQQiLQAAVakh4eNQwABBBBAAAEEEEAAAQQQQAABBBAgwOIYQAABBBBAAAEEEEAAAQQQQAABBBCItAABVqSHh41DAAEEEEAAAQQQQAABBBBAAAEEECDA4hhAAAEEEEAAAQQQQAABBBBAAAEEEIi0AAFWpIeHjUMAAQQQQAABBBBAAAEEEEAAAQQQIMDiGEAAAQQQQAABBBBAAAEEEEAAAQQQiLQAAVakh4eNQwABBBBAAAEEEEAAAQQQQAABBBAgwOIYQAABBBBAAAEEEEAAAQQQQAABBBCItAABVqSHh41DAAEEEEAAAQQQQAABBBBAAAEEECDA4hhAAAEEEEAAAQQQQAABBBBAAAEEEIi0AAFWpIeHjUMAAQQQQAABBBBAAAEEEEAAAQQQIMDiGEAAAQQQQAABBBBAAAEEEEAAAQQQiLQAAVakh4eNQwABBBBAAAEEEEAAAQQQQAABBBAgwOIYQAABBBBAAAEEEEAAAQQQQAABBBCItAABVqSHh41DAAEEEEAAAQQQQAABBBBAAAEEECDA4hhAAAEEEEAAAQQQQAABBBBAAAEEEIi0AAFWpIeHjUMAAQQQQAABBBBAAAEEEEAAAQQQIMDiGEAAAQQQQAABBBBAAAEEEEAAAQQQiLQAAVakh4eNQwABBBBAAAEEEEAAAQQQQAABBBAgwOIYQAABBBBAAAEEEEAAAQQQQAABBBCItAABVqSHh41DAAEEEEAAAQQQQAABBBBAAAEEECDA4hhAAAEEEEAAAQQQQAABBBBAAAEEEIi0AAFWpIeHjUMAAQQQQAABBBBAAAEEEEAAAQQQIMDiGEAAAQQQQAABBBBAAAEEEEAAAQQQiLQAAVakh4eNQwABBBBAAAEEEEAAAQQQQAABBBAgwOIYQAABBBBAAAEEEEAAAQQQQAABBBCItAABVqSHh41DAAEEEEAAAQQQQAABBBBAAAEEECDA4hhAAAEEEEAAAQQQQAABBBBAAAEEEIi0AAFWpIeHjUMAAQQQQAABBBBAAAEEEEAAAQQQIMDiGEAAAQQQQAABBBBAAAEEEEAAAQQQiLQAAVakh4eNQwABBBBAAAEEEEAAAQQQQAABBBAgwOIYQAABBBBAAAEEEEAAAQQQQAABBBCItAABVqSHh41DAAEEEEAAAQQQQAABBBBAAAEEECDA4hhAAAEEEEAAAQQQQAABBBBAAAEEEIi0AAFWpIeHjUMAAQQQQAABBBBAAAEEEEAAAQQQIMDiGEAAAQQQQAABBBBAAAEEEEAAAQQQiLQAAVakh4eNQwABBBBAAAEEEEAAAQQQQAABBBAgwOIYQAABBBBAAAEEEEAAAQQQQAABBBCItAABVqSHh41DAAEEEEAAAQQQQAABBBBAAAEEECDA4hhAAAEEEEAAAQQQQAABBBBAAAEEEIi0AAFWpIeHjUMAAQQQQAABBBBAAAEEEEAAAQQQIMDiGEAAAQQQQAABBBBAAAEEEEAAAQQQiLQAAVakh4eNQwABBBBAAAEEEEAAAQQQQAABBBAgwOIYQAABBBBAAAEEEEAAAQQQQAABBBCItAABVqSHh41DAAEEEEAAAQQQQAABBBBAAAEEECDA4hhAAAEEEEAAAQQQQAABBBBAAAEEEIi0AAFWpIeHjUMAAQQQQAABBBBAAAEEEEAAAQQQIMDiGEAAAQQQQAABBBBAAAEEEEAAAQQQiLQAAVakh4eNQwABBBBAAAEEEEAAAQQQQAABBBAgwOIYQAABBBBAAAEEEEAAAQQQQAABBBCItAABVqSHh41DAAEEEEAAAQQQQAABBBBAAAEEECDA4hhAAAEEEEAAAQQQQAABBBBAAAEEEIi0AAFWpIeHjUMAAQQQQAABBBBAAAEEEEAAAQQQIMDiGEAAAQQQQAABBBBAAAEEEEAAAQQQiLQAAVakh4eNQwABBBBAAAEEEEAAAQQQQAABBBAgwOIYQAABBBBAAAEEEEAAAQQQQAABBBCItAABVqSHh41DAAEEEEAAAQQQQAABBBBAAAEEECDA4hhAAAEEEEAAAQQQQAABBBBAAAEEEIi0AAFWpIeHjUMAAQQQQAABBBBAAAEEEEAAAQQQIMDiGEAAAQQQQAABBBBAAAEEEEAAAQQQiLQAAVakh4eNQwABBBBAAAEEEEAAAQQQQAABBBAgwOIYQAABBBBAAAEEEEAAAQQQQAABBBCItAABVqSHh41DAAEEEEAAAQQQQAABBBBAAAEEECDA4hhAAAEEEEAAAQQQQAABBBBAAAEEEIi0AAFWpIeHjUMAAQQQQAABBBBAAAEEEEAAAQQQIMDiGEAAAQQQQAABBBBAAAEEEEAAAQQQiLQAAVakh4eNQwABBBBAAAEEEEAAAQQQQAABBBAgwOIYQAABBBBAAAEEEEAAAQQQQAABBBCItAABVqSHh41DAAEEEEAAAQQQQAABBBBAAAEEECDA4hhAAAEEEEAAAQQQQAABBBBAAAEEEIi0AAFWpIeHjUMAAQQQQAABBBBAAAEEEEAAAQQQIMDiGEAAAQQQQAABBBBAAAEEEEAAAQQQiLQAAVakh4eNQwABBBBAAAEEEEAAAQQQQAABBBAgwOIYQAABBBBAAAEEEEAAAQQQQAABBBCItAABVqSHh41DAAEEEEAAAQQQQAABBBBAAAEEECDA4hhAAAEEEEAAAQQQQAABBBBAAAEEEIi0AAFWpIeHjUMAAQQQQAABBBBAAAEEEEAAAQQQIMDiGEAAAQQQQAABBBBAAAEEEEAAAQQQiLQAAVakh4eNQwABBBBAAAEEEEAAAQQQQAABBBAgwOIYQAABBBBAAAEEEEAAAQQQQAABBBCItAABVqSHh41DAAEEEEAAAQQQQAABBBBAAAEEECDA4hhAAAEEEEAAAQQQQAABBBBAAAEEEIi0AAFWpIeHjUMAAQQQQAABBBBAAAEEEEAAAQQQIMDiGEAAAQQQQAABBBBAAAEEEEAAAQQQiLQAAVakh4eNQwABBBBAAAEEEEAAAQQQQAABBBAgwOIYQAABBBBAAAEEEEAAAQQQQAABBBCItAABVqSHh41DAAEEEEAAAQQQQAABBBBAAAEEECDA4hhAAAEEEEAAAQQQQAABBBBAAAEEEIi0AAFWpIeHjUMAAQQQQAABBBBAAAEEEEAAAQQQIMDiGEAAAQQQQAABBBBAAAEEEEAAAQQQiLQAAVakh4eNQwABBBBAAAEEEEAAAQQQQAABBBAgwOIYQAABBBBAAAEEEEAAAQQQQAABBBCItAABVqSHh41DAAEEEEAAAQQQQAABBBBAAAEEECDA4hhAAAEEEEAAAQQQQAABBBBAAAEEEIi0AAFWpIeHjUMAAQQQQAABBBBAAAEEEEAAAQQQIMDiGEAAAQQQQAABBBBAAAEEEEAAAQQQiLQAAVakh4eNQwABBBBAAAEEEEAAAQQQQAABBBAgwOIYQAABBBBAAAEEEEAAAQQQQAABBBCItAABVqSHh41DAAEEEEAAAQQQQAABBBBAAAEEECDA4hhAAAEEEEAAAQQQQAABBBBAAAEEEIi0AAFWpIeHjUMAAQQQQAABBBBAAAEEEEAAAQQQIMDiGEAAAQQQQAABBBBAAAEEEEAAAQQQiLQAAVakh4eNQwABBBBAAAEEEEAAAQQQQAABBBAgwOIYQAABBBBAAAEEEEAAAQQQQAABBBCItAABVqSHh41DAAEEEEAAAQQQQAABBBBAAAEEECDA4hhAAAEEEEAAAQQQQAABBBBAAAEEEIi0AAFWpIeHjUMAAQQQQAABBDJe4LvvvjurFznnnHPO6uf5YQQQQAABBBBA4KcECLB+SojvI4AAAggggAACMRRIDKX0eWLIpH/r/u233/7bXbsZvnb8+HH/XLeTA64cOXJYtmzZ/J49e3a/h8/1kUArhgcMm4wAAggggEDEBQiwIj5AbB4CCCCAAAIIIJAocHIwlRhGKXQ6duyY6eM333zj9xBChY/62tdff+33Q4cOnbjr30ePHrWvvvrKjhw54t/XYxNDLQVTCq90z5s3r98LFChghQsXtoIFC/rnhQoVsvz58/v3cubM6eFWCLQItjiWEUAAAQQQQOBMBQiwzlSOn0MAAQQQQAABBDJBIARWCqAUKClkCkHV4cOH7eDBg7Zv3z7/uGfPHr/rc4VTCqP0WN1DxZXCKX1dj9HP667H6nkVfumuz0MlVgid9G99rnuotlJApaBKoZXuCrJKly5tVapU8XuFChWsRIkS/nU9LleuXCeqtTKBjpdAAAEEEEAAgSQSIMBKosFkVxBAAAEEEEAg3gIhrArVU6qCCgGTQqodO3bYzp07bffu3bZ3714Pq7Zv3+5f179DIBXCqDANMFRphRArVGadXM0V9BRShWmHIcBKnIYYni88XoFWuIVAq1ixYh5gVa1a1SpVquR3/btkyZJWpEgRy5cv34kKrfDzVGjF+/hl6xFAAAEEEMhIAQKsjNTluRFAAAEEEEAAgZ8QCJVOofpJ1VG7du2ybdu22bp162z9+vW2adMm27p1q23evPlEUKVwK1Ri6WdDGKWPiX2owufh+5rSp8/1MXfu3H5XJZXuefLk8Uqp8LXQ20q7kFiBpdfTduqu6i0FZ2HqoR4XKr401VDPpSmFxYsXt3Llytm555574l6xYkWv0FL1lqYfqkIrMQzj4EEAAQQQQAABBE5cYPvubJedwRIBBBBAAAEEEEDglAV06qUKKIVACn5UOaWwSuGUgip93Lhx44nQSt9XOBR6W+mFwlQ+BUwKnkJIpKom3RVEKTTSR4VCenziY8P39RgFR6GfVfi3vh96XSVWY+m1tf0KqBSg7d+/36cvqhJM26ngLeyH9knf15RFbbtuCqf03OqXpQotBVqVK1e2atWqWe3atb1aq1SpUv597RcN4U/5sOKBCCCAAAIIJL0AFVhJP8TsIAIIIIAAAghklUDidcLQv+rAgQMe9KiyatWqVbZs2TJbsWKFBz+aGhj6USkkCqGPghwFUQqnFO6oYqlo0aIeAumu0Kds2bJe5aRAKoRYIYhK7Ful5wkVV2EFwZNXEQzB0clT+hKnEYZpjvqobQ0N4BVmaV9Wr15ta9assS+//NL3VRVk6rulQCv8rEIybYu2WVMM69WrZ40bN/aPCrW0P9oXphhm1RHM6yKAAAIIIBAdAQKs6IwFW4IAAggggAACSSIQek0p1FGVlUIdVSQpyFm+fLnfFezoa6HCSqFOCJoU7CjU0fQ6NUXXXdVK5cuX97BK4VVY+S9UXYUm6SF8+qEQ6odWBDzT/lMn99HSFMIwxVAVWArltmzZ4vurKZH6uGHDBu/bpe+HwE7bq33QvqkBfP369T3Mqlu3rmmqofZXlWayOdNtTZLDi91AAAEEEEAgJQUIsFJy2NlpBBBAAAEEEEgvgcRVAlWJpAojBTNqtq4pgQpsFFipGkkBVghuFFjpZxXIKLhRZZXCqRBYKcRRvyg1PleVlRqfa4pfWMlPP6fKKd2iGuiEIE8uCvJC9ZkqtGShQGvlypVeiaYKLX1f4ZfCLAVzZcqU8amFDRs2PFGVpUozVaApzDp5/0+lM0ZUrdLreOR5EEAAAQQQSFYBAqxkHVn2CwEEEEAAAQQyVECVRgqh1AtKVUQKptS7au3atR5WKZRRgKVVAtUnSn2s9HiFM5o2pxBGgZV6QNWoUcOqV6/ulUYKbfQ93RMDq9D3KsqB1Y+Bh5UL5abKNN01pVBVaAr5Fi1aZAsWLPCwT1/T9/RYBXYK9+QipwYNGvhd4Z5WNJRRCLL0+qEpvj6G1wyVbbIPvcASG9Rn6IHCkyOAAAIIIIBAuggQYKULI0+CAAIIIIBA/AROpVolvfcq7tUvIbQKKwWqkkhhlfo9qZJIFUWqJEpsvK6fUbWQqqw0DS6sxFezZk0PZBRghaoi9axSuBXCqrh7ncrxE0JATTVU4Ld06VJbuHCh32WrfmGqatPxqjBLhqpKk5+qs2SngEtWqt7SYzU+Csj03GH1RAVWGgP11VKVm8IvTVfUVE25/9CUy1PZBx6DAAIIIIAAAhkvQICV8ca8AgIIIIAAAlkmEEKqsPJdYnVKCGO0cWGqV9jQ0Kw7VLCEJtqJTby/7zEhcNH3QlWMfjaxL1NoHB6niqIwNVCVVAqo1Hh93rx5tmTJEq+4UviiKXIKTbTv2t+wMqD6WKlaSBVWClzUnFy9rELDdYUywVf+qRBafd9/iLC6ocIneYaqrLlz57q3phzKXxVvMpKbqq8UXoUAKgRY+ph4rOv1QuWbAjAFWJqiqRCsVq1avvqhvqZpmhq3xPHIsv+8vDACCCCAAAII/JsAARYHBAIIIIAAAjEXSOzBFN60q/IkVKKor1C4qzeTAgKFLfq+7mE6V1gZLjFYCs+dGKroNUIgEMKvELwkVg6FqVoKGsIKemEVPQUPCh3CXZUx+lyPC72dTn7tMA0svMb3VcykV/gTAj2FJaqmCs3XFaSkpaX59EBNGZRrmBao4ENhioIpVQgpFFFIorumBiog0bRAGajKKmx/zA+/DNl8mSqEkq+mYKoSS5VZixcvdn81hdexrPEJN3kmThnUsXBylWHiv0PfMY2LwkU1i9fqh/pc0xU1liHMSjyu0usYyxA4nhQBBBBAAIEkFiDASuLBZdcQQAABBJJPILGiKqz2pgBKb+RVnaI39fqoChb1EVJPJlUMKWzRVKxQJRRCK4UEqi4K/YJCOJVYSRUUw9fClKyTQ63EQCZUZymMUlgTwiyFVAoOFAwoyNH0LU3jUuWLgh99ruAgcRqdflbPo5/R1/XzYeW9EI6F1elCdVdilVdi2JZ4RHxfEBGCK/VfUkii4ER9mWbOnOnBiRqzB8OwLdp2TQtUJY+mBIZpgepvpWofba+2X3dupy8QjnOFWTqmNVVTlW+6K0hUwJgYqmpcFJDqGEk8jvUYjav+b+i5QnirMQ89yTQdUeN43nnnebWcwkc10NdxqmNNjwsVc3GqIDx9dX4CAQQQQACB6AkQYEVvTNgiBBBAAAEETgiEihKFTGElNzUMV0ilQEpv6BW0KKTS5wpY9D29qdebdD1W4Vb4+ZPDqMR/J1asJL7xD5Ut4bEhRDu54iVx2EIQpCApfP59gZGeI1RdKeBRwBWqXsLrhPAnhFV6TAgoFHYpXFBlkz7X18O0Mv1bIYYer4/6usKk8Dyh0kvbFXolKdhTaDV79mz74osvPCRR9ZU85aj90fMp1FCFlap2dFfVjqquNF0wvEZoEk7FTvr8hw7TYDVGOsYVyurYVyCl4zsEleH4CMFhYvN4Bbz6v6Ix3bBhg/csU8ir51IwqVuoFlT4qEBLUz5VQRf+rYotjb/uiQElFXXpM848CwIIIIAAAj8kQIDFsYEAAggggEAWC5xcVaUwRW/Iw1Q/BVEKUNQwXG+61ehab7oTAytVloSm1YlTCkNApFAo3ENIFKpJ9HV9TYFOCLESe16Fnk6B6eQKrBAQ6Pv6+dBbK3G1uVDtohBIVV+haizsq/ZXXzt52lf4d2IIlDh1UF/Xdit0CBVa+jxUaSnc0ueq7FJFlAImfVTFlKaJqZG3Hq8AQz2XtJ1jxoyxiRMnurfGQPun51BgoYocVebUr1/fPyrEChU6wS+LD6eUeflQmaVj5+TANXGFwcS+bXpsqDrU13XM6f/R/PnzbfLkyV5tp+NAAZmOzVDNFSoIdRxpvMPqkaHqTo34Q3gZjgOCy5Q5FNlRBBBAAIFMEiDAyiRoXgYBBBBAAIHvEwhvwlUppeqQPXv2eGWV+v4oQFFYFaqrFLLo+wpVFAQlNgxXqKM32WFqXqhC0rQ8hTW6K6wJVUp6XAh9QqClN96J1VYhPEoMABIDpZP7CyUGXAoKQkAQGmsrHAq9t7QPCt20P7oroNM9sWIsTGsMzb0TQy+FC/p3aNadGAIm9s4K07xCWBcaf8uiUqVKPl1M1VsKLhRiaP9lrm0K08pUWaXeSE2bNvWPCrEUVoReVolTyTjKM1fgh47BHwuPwvGc+LPhWNX/O61+qABz+vTpHhQrzAqrIIa9S6zEU3WWAs3GjRtbnTp1/LjS/zsda2Ehg8xV4dUQQAABBBBITgECrOQcV/YKAQQQQCDCAiGQUYijN8xaxU7NwVevXu1Tm/Q1hTkKtBTyKKxSYBOm4oXgSVVBqjAKFSEKVUKFkT6qWkQf9X0FV3p86C2lN9an0gw98U3+yX2xvq9PlthPDgZCEBX2IXEqmPZNDuEeKslCNVmo5tLjFH6FgEuf6x6M9HO6h4AshGah4uvkyptQuRX6bSmw0s8GE00NUx+kVq1aWbNmzbyvlVYOlDcN2CP8nysdNi38/9T/QfXb0iqIs2bN8v+nCpdVEaljRcds6L2l40JVWZpu2KhRIz9mVKGn4DhMZaQiKx0Gh6dAAAEEEEhpAQKslB5+dh4BBBBAIDMFwhtjhTCq8tGKauqzpDfHqvTQG2YFNyHw0bbpTW9oFq6wRWGUKj5UFaR74lS40I8nsQdTqKr6of3MzDfVP1QtE0KvENDp3yEYSOxfFFZJDCsthpAqhFYKsELApYqZ0AtMPZJCZZt6hOmur4XHhmAteKt6pnv37tavXz9r0qSJm4e+XOExmXnc8FpZJxCOPwWhmlq4fPlyD5r1uRrI63NNQQwhsyr49P9QUwoVYp1//vl+DOn/rCr2qMjKurHklRFAAAEE4i9AgBX/MWQPEEAAAQQiLqDARYGKghO96VVwpaqORYsWeU8rBVeJUwA1/U8r2+muCir1alL1jz4qsFITaX0vVFWFJuiJTaQzM5jKTP6TQ7DE0CsEXCEAU8CVOH1RAZesNSVTAYSq3rSyoMJDBRChMXvr1q09wNK0MI0Fzbkzc4Sj+1ohgA5TX3UcrVixwqcc6jhSmKVpvqrM0k1VWQqyFGBdeOGFXpml0Fn/b38qWI6uAluGAAIIIIBA1gkQYGWdPa+MAAIIIJDEAqFyQxVVCq4UlkyZMsWmTZvmIZbe6IZV7VTdoze2WslOb3j1uSo2FFRpGqDuetOrXlWhrw6VHKd38ITgK/TOUtWWKmcUQGhsVI2l6V+a9nXuued6mEVT9tMzTqVHh+BUYZWq+xSIKpieOXOmB1qaCqyphmEBAP2fVg+1Nm3aeK8sNf9XCE2QlUpHDfuKAAIIIHC2AgRYZyvIzyOAAAIIIHCSgN60quJKAYnCETWDnjp1qk8/0tQ1hSgKoBTEZHNvAAAgAElEQVSShJ45zZs3t5o1a3qjdVVuhAbhoTIrVFQla2VVZh9EoQ9X6K2lKjlNvdQ9cQW7zN4uXi9+Ajp21GNNgdWWLVts6dKlNnv2bJ8arP/zCrj0GP2fVp8sLQSgqYXqr6b///o9EPqqxW/v2WIEEEAAAQQyT4AAK/OseSUEEEAAgSQXUCiiKWuqrtKUolBxpTe0av4cqjE0DVBhlaYWqSpDVT96Yxt65BBSZe6BkrhqYea+Mq+WTAKhKkvhtRZiUEWWgmsF2GvWrPEgS+G1qq70/11TVDW1UEGWVi9U76ywyEIyubAvCCCAAAIIpJcAAVZ6SfI8CCCAAAIpLaDgShUYqriaPHmyjR8/3pYsWeI9l1Sdoal/mh6oSitVX2iFO/1b04g0hTCsfpfSiOw8AkkgEKYPa3qhqjAVYKvnnRZs0O8HfU1Ti/U7QUGWemN16dLFwyxNLVSQrcpLbggggAACCCDw7wIEWBwRCCCAAAIInKFAaOq8f/9+r7DQtKEJEyb4m1VVYCjUUhNw9b9R3xu9QdXKZJUqVfKeVlRbnCE8P4ZATATCAg6qwFST9zlz5nhFlhZw0HRDBVkKsBVmt23b1oMs/a7Qgg1MK4zJILOZCCCAAAKZJkCAlWnUvBACCCCAQLIIhKmCWo1MK9ip140qrhRg6U2pKi/US0krB7Zs2dIuuugi/6h/FypUiGqrZDkQ2A8ETkEgTFFVoL1v3z5bt26dzZgxw39nhLBbVZqaQqjpxN26dbMOHTr4NOPQ6J1pxacAzUMQQAABBJJegAAr6YeYHUQAAQQQSC8BVVOEVQVVcTVv3jwPrebPn2+bN2/2KYSaFqTVA9XbKgRXmhak4IpV7dJrJHgeBOIpEMJvTS1euXKlTZw40as2VZGlSk59v2zZstawYcMTvz+0OilBVjzHm61GAAEEEEhfAQKs9PXk2RBAAAEEkkQgNGRW1YSqH/RvNWFesWKFTZs2zacBqceVpgpqJTsFV6qgUG8rVU+0a9fOatSoceKNZ5KwsBsIIJBOAgrD9ftDVVhjxozx3nmqzlIFp6YPqmJTQXinTp28b56mHtMfK53weRoEEEAAgVgKEGDFctjYaAQQQACBjBRQWBWmB6qySjdVX+mNpiom1JRZKw2GFcWKFi3qq4jpTWabNm2sXr16Vrx48RPN2TNyW3luBBCIp0Bo9q7KzQ0bNtjMmTNt7Nix3idr06ZN/vtFU5FDf6zu3bv7yqUlS5a07Nmze7DODQEEEEAAgVQSIMBKpdFmXxFAAAEEflJAvWjUp0ZvIj/55BNbsGCBT/3TG0ZVXynQUpiVJ08eb7Ss4KpFixbenL1u3bpWokQJf9PJm8ufpOYBCCBg5tWdCqv0e0eN3qdMmXJiWqGCcv2+UUiu5u49e/b0qYUKtcLvGX7XcBghgAACCKSKAAFWqow0+4kAAggg8KMCehOpKT2qfJg6daqNHDnS30iqL40CrNC7Rp9XrFjRp/ao4kofq1Sp4lMFtZqY3kzyhpKDDQEETlcgBFlasXDZsmVe7Tlu3DhLS0vz/nr63VOtWjVfqVBBVoMGDTzYypYt2+m+FI9HAAEEEEAglgIEWLEcNjYaAQQQQCC9BEIwtXv3blu+fLm/aVQ/Gk0T1DRC9aJRdYRumrqjwKpjx47WunVrD67UnF39rwit0mtEeB4EUltAv5PUV0/VnlooYtSoUd5zb/369V6Npd9D+v3Tq1cva9u2rVeC8jsotY8Z9h4BBBBIFQECrFQZafYTAQQQQOA/BPRm8NChQ7Z27Vp/gzh69Gjvc5U4badChQreVFkN2tWYvUePHj5tsFixYlRbcUwhgECGCCjE0k0hulYrVKj+4YcfejWWfh9pCrN67V122WXWtWtXq1mzJj33MmQkeFIEEEAAgSgJEGBFaTTYFgQQQACBTBFIrHCYPXu2vzlUA+WNGzfakSNHvJpBKwhqNUH1ttLUwAIFCljVqlVNgVaYKpgpG8uLIIBAygokTm3+4osvvC+fpjZr9UJNKdTKhJ07d7bevXv7CqhaPIIphSl7uLDjCCCAQNILEGAl/RCzgwgggAACQSCxqkE9Zj799FP76KOPbNWqVV7poDeEpUuX9mbJF198sU/P0VL2YcUvBVu8OeR4QgCBzBZQtaj68WlRCf3OUrWoKkePHTt2Ykphv3797IILLvDfYfpdxrTmzB4lXg8BBBBAIKMFCLAyWpjnRwABBBCIjIDeBKpB8qxZs+y9996zzz//3KuuFEqpCbsqGNq3b+9TBWvVquXTBBMDK94QRmYo2RAEUk5AAbymDyq4Gjt2rH3wwQc2f/58O3z4sK9IqOC9f//+PqVQlaL0xUq5Q4QdRgABBJJegAAr6YeYHUQAAQQQ0Bs/hVc7d+70Ju1vv/22rzS4d+9enw6o/jEKrdScXSt7lSpVijd/HDYIIBBJAVVdbdu2zfv2KYjXx61bt/rvLP0uu/TSS+2SSy7xEF69sgjeIzmMbBQCCCCAwBkIEGCdARo/ggACCCAQLwEFWCG8euWVV0y9ZFS1oKqrJk2amKbeXHjhhV61oEoGveHjTV+8xpitRSBVBPT7THcF8EuWLPFKLN03bNjgX1dfrG7dutnll1/uVaVagILfZ6lydLCfCCCAQHILEGAl9/iydwgggEDKC+gN3b59+3y64GuvveYNkNXvSn1iVHHVt29fa968ufeRUa8rbggggEAcBPS7TYtOrFixwpu7jxw50hYtWuR9sVRFetFFF/mUwlatWvl06Jw5c8Zht9hGBBBAAAEEflCAAIuDAwEEEEAgaQX0Bk9h1dy5c+25556zzz77zA4cOOBv7nr27GnXXHON943Jnz8/FQpJexSwYwgkt8Dx48dt8+bN3hdryJAhNmfOHO+VpZVTW7Zs6RWmWlFVC1IoxKIaK7mPB/YOAQQQSGYBAqxkHl32DQEEEEgRgbC6YOLu6muaJjhv3jz75z//6SsOaul5LTPfvXt3u/766z28KliwYIoosZsIIJCsAt98843t2LHD+2Gpx9+kSZNs9+7dPiVafbHUE6tXr17+eZgmnawW7BcCCCCAQPIKEGAl79iyZwgggEDsBE4OosK/1YA93PS5vq6qA71pCx/DY1RdoO9rGs2qVats2LBh3h9Gqw8qrOrcubP9/Oc/t/PPP98rr7ghgAACySCg34Hqi6UKrBEjRnhFlpq96/dhxYoVPcAaMGCA1a9fn+buyTDg7AMCCCCQggIEWCk46OwyAgggEBUBveEKd4VRiYHU0aNHvb+LpsLorn9//fXXJ+6HDh3y6YC663H6XmhurBBLj1+9erU3bNcKXZpO07ZtW/vFL37hH4sWLcpUmqgcCGwHAgiki4B+B+p3opq7qy+WKk+XLl3qQX/ZsmWtd+/eHmI1bNjQ8uXLly6vyZMggAACCCCQWQIEWJklzesggAACKS4QwiW9kVLYFAIoNVjXG67wUZ+H7+3fv98rCsLXFFRpWqDCKVVY6XlCsPV91Vv6nsIvLSV/wQUX+LTB9u3bW4kSJSxbtmwpPiLsPgIIJKuAfu+tX7/exo8f71WoCxcu9N+dIcS67rrrrF69ev67kRsCCCCAAAJxESDAistIsZ0IIIBATAXCdD+FT3v27LEtW7bY2rVrvTpKH9WXSl9PDKkUTCVOEQzTBkO1VmhCHD7qNRJXENTjwvcKFSpkLVq08PBKqw4WKVKE8CqmxxKbjQACpyag34mqaNUUQq3A+vrrr9uMGTO8WrVSpUqmAOuqq66yatWqUYl6aqQ8CgEEEEAgAgIEWBEYBDYBAQQQSCaBxEorVQEonNqwYYMHVprWsmzZMlu3bp33pFJopUqq8DOhikrVUQqg9FHBlFbOypUrl3/Uv/W5Kgdy58594nP9O/S/0hs3PZceX716devUqZM1b97cSpYsyZu1ZDrY2BcEEPhRgdDcfdy4cR5izZw503/n1qlTx2677Tbr06ePFStWjFCf4wgBBBBAIBYCBFixGCY2EgEEEIi2QGJoFSqttKy7QqsFCxbYokWL/POdO3f69EA9XmFTYhilAEo9WdRYXf2q1HBd/9bn6ldVuHBhUzWVvqbv6fEhxNJHhVUKvEJ4pefPkSOHV1yVKlXKf47l46N9HLF1CCCQ/gL6fas+gOqHNXjwYJ9OqN+Nqki96667rGXLlvTDSn92nhEBBBBAIAMECLAyAJWnRAABBFJBQG+KNFVPU/0OHjzo4dTGjRttxYoVlpaW5isAqgeLpggqtNLjFFgpbCpevLj3YtFUlnLlylnp0qVPBFQKqUJQFSqsFE7p81CBpTdfeq4QSCm40v3kPlgah/A9wqtUOCrZRwQQ+D4B/f798ssv7Z///KffVRWrXoBXXnmlDRw40GrWrPlv07BRRAABBBBAIIoCBFhRHBW2CQEEEIioQGKllRoCaxqgpgNqWqAqrfRRb4z0dfWxUjWUAqS8efN6aKXAqlatWr6Mu94wKbxSdZWqo0I4FaYNJva0EgcBVEQPCjYLAQRiIaBFLebNm2fPP/+8jRw50i8saCrhPffcYz169PDqV/2eTbzzuzcWQ8tGIoAAAikjQICVMkPNjiKAAAJnLhCqrTQ9cPfu3R5aLV++3ObPn+99rXRlX1/X9xVaqUIqVFoptNKbpAYNGnh4VaFCBQ+zFGoptApvlsLWEVSd+TjxkwgggMAPCej3uFZ7HT16tD3xxBM+tVu/p3v16mW9e/e2MmXKeKWrfjfrooI+hmnaYYo2q7dyfCGAAAIIZKUAAVZW6vPaCCCAQMQF9IZHDX/379/vPVSWLl3qoZV6qGiKoFa4UiVWWAVQ/arUb6pKlSpWo0YND6xCaKXpKrrCr3Dr5NAq4gxsHgIIIJAUArrAoN/dTz31lA0fPtwDLf3OPvfccz20UoClKdxq7K7f2fqoKd6qltXj1ItQv8e1kIaqZMOCG0mBw04ggAACCERegAAr8kPEBiKAAAKZL6BASj1TFFytXbvWZs+ebV988YVfsVefK/W80vf15kVvZvTGRsuxq8pKd32uNzx6I6Qr+IRWmT+GvCICCCDwfQIKrYYMGWKPPfaYV9MqiNJdPQ3D4hqquAqVtAqtypcvb5UrV7aqVav673ddpFCwpSngqtTSYwmzON4QQAABBDJagAAro4V5fgQQQCBmAqHiauXKlb7k+tSpUz240qqC6mulm67U6+q8rtrXrVvXQyv1tKpYsaK/oVFoFa7Ox2z32VwEEEAgqQW++uorGz9+vP3+97/3atpQWaVqWv2OV68sXaDQXRVbCrUUTqk6S1W2mgKuqeD6/a8KWwVamipesmRJXyFWjyPMSupDiJ1DAAEEskyAACvL6HlhBBBAIDoCoTm7elipCfusWbN8yfUZM2b41EGFWnpDonBKb1QUWDVt2tTOO+88fyOjMCuEVvSwis64siUIIIDAyQIKprRa7JNPPmkffvihXXLJJdamTRtfSVa9DFWhtXfvXv9cq8jqc31Nfx/0s6rU0gUKTSPU3wRVZynE0t8DLdBRu3ZtD7NUnUuQxfGHAAIIIJCeAgRY6anJcyGAAAIxFNCbEV15Vz8rXY3//PPPbfr06bZ69WpfpUpTQzRVRI3Ymzdvbk2aNPFqK12119V4ff/kFQNjyMAmI4AAAikhoAsWmgauBTi0eqx+p6tnoSqvdLFCQZUqsTSFfMeOHbZlyxafaqjp5JpCrosaCrf0dyNMJVeYpSnjusChIKtVq1bWqFEj/7eqssKCHSkBzE4igAACCGSYAAFWhtHyxAgggEC0BfQmRm9SdIV98eLFNmnSJJsyZYo3+NUbF93UwFfVVu3bt7fWrVv7VXZNHwlTRKK9h2wdAggggMD3CYQFOjSdMKw0qMfp6+GjLm4ooFKwpYsZu3btsk2bNvmqs8uWLTNNM1fFrv6GHDhwwP+ehKmGCq4aN25sF154oVfrqneWgixd7GARD45JBBBAAIEzFSDAOlM5fg4BBBCIsYD6mmhKiN6ETJgwwcaNG+crDGqqiG6qrFKVVYcOHfyu6itNEwyNemO862w6AggggEBCWCWMH5v6HUItBVqhQkt/P1SJtX79elu+fLn//dBHBVp79uxxXzV3L1u2rAdYCrIaNmzofRKLFCni32N6IYchAggggMDpChBgna4Yj0cAAQRiLKA3Igqv1JBd/a0++ugjmzZtmk8R0dfVs0SNeTVV8KKLLvI3Hupvoiv09LaK8cCz6QgggEA6CoSValWdpYpdTUFXRdacOXO8h6I+1zRD/V1RWKUp5+qNpR5ZqupV83f1T9S0Q00/5O9LOg4OT4UAAggksQABVhIPLruGAAIInCygKR66Yq4G7e+88473vFIfE/Un0ZSP888/3yuu1BOlXLlyXonFdA+OIwQQQACB7xNIrM7S3xc1gldlr1av1cWRtLQ0r8hS0BVWMSxTpozVq1fPp6U3a9bM+2+pKktBFjcEEEAAAQR+TIAAi+MDAQQQSAEBvclQrxO9sRg5cqRXXmkVKvU30WpRqrjq0qWLB1gKshRchV4lKcDDLiKAAAIIpIOAphkqrNL0QjWJV6Xv3Llz/W+Ppqjrgokeo6os9VOsW7eutW3b1ldB1LR1BVk0fE+HgeApEEAAgSQVIMBK0oFltxBAAIEgoPBKbxr0ZmL48OE2YsQIf3Oh/iOVK1e2rl27Wp8+fXzlKDVt19e5IYAAAgggcDYCumiiaYRavXDRokX2r3/9y6t+taKhemipYktVV7qIokqsjh07+kWUKlWq+NRCqn/PRp+fRQABBJJTgAArOceVvUIAAQRcQOGVVofSG4dhw4bZmDFjvMmupnKoF0nfvn09wKpevbr3uSK84sBBAAEEEEgPAf39CasdahVDrVa4Zs0amz9/vvfKUqiliykKuvLly+f9FlUNrGnsml6ohu+q1KI/VnqMBs+BAAIIJIcAAVZyjCN7gQACCPyHgKZpKLzS9I0333zTxo4d628gdMVbV7uvvvpq69y5s/e60pQNbggggAACCGSUQJheqKmEqsqaPXu2ff755x5mqVJLKxwqsNJCIu3bt/eLK+rHWLRoUV8BlyAro0aG50UAAQTiI0CAFZ+xYksRQACBUxbQVe9du3b5alBDhgyxcePG+RuEggULWsuWLe3KK6/08EpTN9TrihsCCCCAAAIZLRCavqv/ooKs5cuX2+TJk/2u6YVq+K7vKbRq3Lix9ezZ03tkKdTSKrlUCWf0CPH8CCCAQLQFCLCiPT5sHQIIIHDaAlq2XGHVhAkTbOjQob4SlN4oKLzSGwFVXl1wwQVWunRp3gycti4/gAACCCCQXgJHjhzxiy2aTjhlyhSbNGmSN3xXjyxVXakflv5ederUyZo2berTDDXdnWqs9BoBngcBBBCIlwABVrzGi61FAAEEflRAV7cVXk2cONFeeuklX8pcbxB0Nbtdu3YeXinE0kpPXMnmYEIAAQQQyEqBUJGlv1Pbtm3z/liffPKJT3nfvHmz6YKMVsWtXbu2h1iqHNaCI4ULF6Z6OCsHjtdGAAEEskiAACuL4HlZBBBAIL0F9EZAlVa6iv3KK6/4lAz1wCpbtqx16dLFLr/8cu99pTCLq9fprc/zIYAAAgicjYDCKjV7V6N3XYQZPXq0L0Civ2u64FKqVCmfAt+jRw+vylKTd/Vv5O/Z2ajzswgggEC8BAiw4jVebC0CCCDwvQIKr3TiP2PGDA+vdOJ/8OBBK1GihPXp08euuuoqa9SokV/J5oYAAggggEBUBdQDS9MK1RPr008/9enwCrVUpaUm7zVr1rTevXvbxRdf7J+rNxYhVlRHk+1CAAEE0leAACt9PXk2BBBAINMFFF59/fXXtmDBAnv55Zft448/tp07d1rx4sV9FacbbrjBK6+0TDkn+Zk+PLwgAggggMBpCujv2uHDh23jxo3ex1HTCrVqoaYZ6u+Yqq80Lb5fv34nKouZFn+ayDwcAQQQiKEAAVYMB41NRgABBBIFtDS5rk6/9dZb9tprr3nfEFVaqV/IjTfeaC1atPB+IdwQQAABBBCIk4D+vqmv45IlS7yyWPcVK1bYsWPHvJdjCLHatGnj0+W1qi4XauI0wmwrAgggcHoCBFin58WjEUAAgcgJaKrgqFGj7Omnn7Z58+ZZrly5vD/IwIEDrX379h5ecWU6csPGBiGAAAIInIKAqrE0fXD9+vXeG+v999+3OXPm2J49e3x1XTV1VyVWt27drGrVqv43kBsCCCCAQHIKEGAl57iyVwggkCIC6hWi6qtnnnnGhg0b5k3b69SpY7feeqtdcsklVqZMGa5Gp8ixwG4igAACySqgEEtN3rdv325z58614cOH2+eff247duzwCzQ1atTwfo/qjVWrVi36YiXrgcB+IYBAygsQYKX8IQAAAgjEWUDVV+PGjbOHH37Ylx8vVKiQXXHFFXbnnXf6lWit0MQNAQQQQACBZBBQkKULNYsXL/ZKrI8++si+/PJLD7fKly/vK+5eeeWV1rRpU6/OYjphMow6+4AAAgj8nwABFkcDAgggEFMBncivXr3annvuOfvnP//pS403bNjQ7r77bl9mnBUHYzqwbDYCCCCAwI8KqMH7unXrvLn7e++95ysWajGTYsWK2UUXXeQXclq3bm0lS5ZkCj3HEgIIIJBEAgRYSTSY7AoCCKSOQOgJouqrRx55xKdUaJXBUH2lKRT0vUqd44E9RQABBFJNQFVXWqVw0qRJNnToUJs5c6apKlmVVwqvrrnmGuvYsaOvyMvfw1Q7OthfBBBIVgECrGQdWfYLAQSSWkAn7rr6/Pzzz/vKg/v27bOaNWvab37zG+8BoqmETJ1I6kOAnUMAAQRSWkAXcrRK4c6dO2369Okn+mKpuXvevHl9Bd5rr73WV+RVJVaOHDlS2oudRwABBJJBgAArGUaRfUAAgZQT0FXm8ePH26BBg2zWrFlefXXppZfar371K6tbty4n6il3RLDDCCCAQGoKKMTSFHqtTDhixAgbO3asbd682XLnzm1NmjSxAQMGWOfOna1y5cr+t5GLO6l5nLDXCCCQHAIEWMkxjuwFAgikkIBO1teuXWuDBw/23le7d++2Bg0aeHillQeLFCnCCXoKHQ/sKgIIIJDqAqrG0oWdRYsW+XTCkSNH2rZt2zywql27tl1++eXWv39/q1SpEoubpPrBwv4jgECsBQiwYj18bDwCCKSagE7S1bx24sSJvvKgrjjnyZPHrrrqKrvjjjt8GiHTJFLtqGB/EUAAAQRCb8gFCxacWKFQF3t0U19I/Z3UFPtq1arxd5LDBQEEEIipAAFWTAeOzUYAgdQUUPWVmta+9NJL9sILL3j1lUKre++91/r06WP58+en+io1Dw32GgEEEEh5AYVYWo1QwZWqsN5++21btmyZ/12sUaOGXXfddXbZZZd5JVb27NlT3gsABBBAIG4CBFhxGzG2FwEEUlpAJ+ZTpkyxxx9/3CZPnuzVV7169bK77rrL6tWrx1XllD462HkEEEAAAYVYx48f9xDrww8/tCFDhniIpa/Xr1//RIhVtmxZLvhwuCCAAAIxEyDAitmAsbkIIJC6Ajr51mpL6nv11FNPeZNaXVH+9a9/bf369bNixYqlLg57jgACCCCAQIJACLHeffddGzZsmC1dutQv8jRt2tQv+nTo0MEKFixIiMVRgwACCMRIgAArRoPFpiKAQGoL6GRcV5EfffRRnxqhf3ft2tV+//vfexP3XLlypTYQe48AAggggECCwNGjR70SS6sT6uLPunXrfNXevn372u233+6Vyzlz5sQMAQQQQCAmAgRYMRkoNhMBBFJPQBVXuh87dsy++uor27Fjh02YMMH+/ve/+5XkvHnz2tVXX2333XefVahQwbJly5Z6SOwxAggggAACPyKgEGvJkiXeO1LVWKpkVvWyAiytTliyZEmqsDiCEEAAgZgIEGDFZKDYTAQQSB2B0L9D/a4UWumK8fLly/0EfNasWbZ48WI7dOiQ97+64YYb7P7777dy5coRYKXOIcKeIoAAAgichsCBAwe8b6Sm30+bNs0buGsK4T333GPNmjXzCmY1eueGAAIIIBBtAQKsaI8PW4cAAikioNBKKwzqSvHevXs9tEpLS7OFCxd6cLV+/Xq/aqzgShVZqrYqUaKE3XbbbXbzzTf751RgpcjBwm4igAACCJyWgP6+btu2zV599VVfwVc9JMuXL2933HGHXXXVVVa6dGkCrNMS5cEIIIBA1ggQYGWNO6+KAAIIuECYJqjgSgGVKq1mzpxpX3zxhfe70gm3pg+GK8O5c+f2prOaMnjhhRfaFVdcYQ0bNuTqMccTAggggAACPyKgvpH62/rEE0/YuHHj/O9v9+7d7d5777UmTZpwEYijBwEEEIiBAAFWDAaJTUQAgeQT0InzN998Y0eOHPGQSj2tND1QJ9cKsRRm6fuqqsqfP79XWFWrVs2qV6/uvTt01+dlypTxhrRMfUi+Y4Q9QgABBBBIX4EtW7bYW2+9Zc8++6xXYenvqAIsNXXnb2n6WvNsCCCAQEYIEGBlhCrPiQACCHyPgEIr3XQVWFMBdSId+lqp6krB1b59+zy4Uj8OhVY6ua5fv76vMlirVi2f8lCkSBE/0dbKSQRXHGoIIIAAAgicmoAuGk2fPt3++Mc/+gWjAgUK2M9//nO76667fBohU/FPzZFHIYAAAlklQICVVfK8LgIIpIxAmCaopuz79++3L7/80hYtWuQnz+pxpX5X+rp6dCiYKlu2rDVt2tSaN2/u0wMrVapkxYsX91UHc+TI4aEVwVXKHD7sKAIIIIBAOgnoApH+Bg8aNMiGDh1q+rvcpUsXe+CBB/xikS4McUMAAQQQiK4AAVZ0x4YtQwCBmAsokNLJsqqttm/fbitWrLD58+f7XVMGN27c6FMIddNVYPW1atSokV1wwQUeYFWuXNn7XYjn3lsAACAASURBVFFpFfMDgc1HAAEEEIiMwO7du72Z+9NPP+3TCBs3bmwPPfSQtWvXzi8UcUMAAQQQiK4AAVZ0x4YtQwCBGAvoqq6mA+pKb5gmqOBq7dq1dvDgQb/qq1vRokWtatWqHli1adPGAyxNEyxUqNCJqQxUW8X4QGDTEUAAAQQiJaCFUT7++GP705/+5H+f9Tf4/vvvt8suu8wKFy4cqW1lYxBAAAEE/l2AAIsjAgEEEEgHAU0TVMWVgqldu3Z5P6vZs2fb3LlzfTVB9bs6fPiwV2TpCq+mBKq/lYKrFi1aWJ06dXzqoBq2a5ogNwQQQAABBBBIf4GwGqGqriZNmmTFihWz2267zW688Ub/O8wNAQQQQCC6AgRY0R0btgwBBGIgEBqz64rujh07TlRbTZ061dLS0mzv3r129OhRy549u08TLFeunPfZUGil8Orcc8/1MCtPnjz0tYrBeLOJCCCAAALxFtDFJv19fuyxx+zdd9/1i0b9+/f31Qj1N5lG7vEeX7YeAQSSW4AAK7nHl71DAIEMFFB4pYqrbdu2eV+ryZMne9XVqlWrfPqggitVW2k1QZ0Uq8+GQqvatWt7kKWpCupvxclyBg4ST40AAggggECCgP52qwflM888Yy+99JLpApQauWtlwvPOO4+/yRwtCCCAQIQFCLAiPDhsGgIIRFMgTBfUyoFqzP7ZZ5/ZhAkTvPpKX9M0QU0FLFWqlDVo0MBatWplTZo08RBLYZZCLVVkcUMAAQQQQACBzBXQ33A1cn/xxRftr3/9qx04cMAXT3n44Yf9IhMXlTJ3PHg1BBBA4HQECLBOR4vHIoAAAmZedaWeVtOmTbMPP/zQZs2a5VVY6quhaYKVKlXyk+CWLVt61ZX+rWqrXLly+TRBmrJzGCGAAAIIIJA1AgqwVCWtlQg1jXDPnj2+iMojjzxizZo14wJT1gwLr4oAAgickgAB1ikx8SAEEEDAvEm7KqzUlH3MmDF+Vx8NNWdXVVXlypU9tNJS3Kq8qlixogda6q9BaMURhAACCCCAQNYLKMBSf0oFWI8++qh/3rp1a/vLX/5izZs3J8DK+iFiCxBAAIEfFCDA4uBAAAEETkFA0wJ1lXbGjBk2YsQImzhxolddKdQqWbKkn/R269bNzj//fKtSpYrly5fPpyEQXJ0CLg9BAAEEEEAgkwRCgPX66697aKW/7QqwNIVQC6ywEnAmDQQvgwACCJyBAAHWGaDxIwggkFoCmhqohq9Tpkzx8OqLL77wSiytHFitWjXr1KmTde3a1VcX1HLcVFyl1vHB3iKAAAIIxEdAAZb+hr/yyiseYKkCS1MIFWDpYhQBVnzGki1FAIHUEyDASr0xZ48RQOA0BBReqdLqo48+siFDhvhqg1qxSD2t1Jy9T58+1rZtW+9zlTt3biquTsOWhyKAAAIIIJDZAiHAUgWW+l6pobuqpx966CH/u84iK5k9IrweAgggcOoCBFinbsUjEUAgxQRC5dWnn35qb7zxhi1atMgbtZcrV846dOhgl112mV+tLVq0KFdsU+zYYHcRQAABBOIpEAKsN9980wOsHTt2WKNGjezPf/6z97DMmTNnPHeMrUYAAQRSQIAAKwUGmV1EAIHTF1DPK1Veffzxx/byyy/b4sWLPbyqWrWq9erVyy699FKfMliwYMHTf3J+AgEEEEAAAQSyREABlhZfGT58uP3pT3+y9evXW82aNf3z7t27e3sAbggggAAC0RQgwIrmuLBVCCCQhQJqzL5z504bN26cvfTSSzZz5kxToKVpggMGDLC+fftarVq1mDKYhWPESyOAAAIIIHAmAiHAUmuABx980FavXu2rCP/hD3/wymotwsINAQQQQCCaAgRY0RwXtgoBBLJIIKxONGnSJHvxxRdt2rRpduTIEV9ZUMGVAiyFV5piwAqDWTRIvCwCCCCAAAJnIfD111/bmDFjPLRKS0vzBVjuu+8+u/76672ymr/vZ4HLjyKAAAIZKECAlYG4PDUCCMRPQCe1s2fPtr///e82evRoO3jwoJUpU8aDq6uvvtrq1q1ruXLlit+OscUIIIAAAggg4AJHjx61iRMn2u9+9zv717/+5X/Xb7rpJrv77rutQoUKBFgcJwgggEBEBQiwIjowbBYCCGS+gHpcaSqBKq+GDRtmW7dutdKlS1vPnj39qmzDhg0tb968nNhm/tDwiggggAACCKSbwLFjx2zq1Kn2m9/8xgMsVVxpJcKHH37YVyLMkSNHur0WT4QAAgggkH4CBFjpZ8kzIYBAjAU0dVArEb3//vv21FNP2apVqyx//vze0PXmm2/21Qb1b24IIIAAAgggEG8B9bVcsGCBV2CNHz/+xArD9957r1dcFy9e3HeQqYTxHme2HgEEkk+AACv5xpQ9QgCBMxD46quvTH2vnn76aZs8ebKpkXuLFi3s9ttvt65du1qhQoU4kT0DV34EAQQQQACBqAnoopVWGn711VftiSeesF27dvnqg23btrVf/OIX1qRJEytVqpRXXavnJTcEEEAAgWgIEGBFYxzYCgQQyEIBTSXQ1EH1vRo6dKjt27fPzj33XLvlllusX79+Vr58ecuWLVsWbiEvjQACCCCAAALpKaAFWt5++2374x//aOvWrTOFWqq0btCggV/AUtsA9b2sWLGiX8TKnTu3nwtQlZWeo8BzIYAAAqcnQIB1el48GgEEklBg+/btNnLkSPvb3/5my5cv9xWIFFyp+qpOnTo0bU/CMWeXEEAAAQRSW0B9L9esWWMjRoywd955x1asWGGqxlZD9wIFCngFls4BGjdubOedd55Vr17dG7zrewRZqX3ssPcIIJB1AgRYWWfPKyOAQAQEtOrgrFmzbNCgQTZhwgTvg9GmTRu74447rFOnTn6iyg0BBBBAAAEEkktAFVf6m79582abNm2ah1hq6K4q7MOHD5v6ZGlaYeHChT24qlevnl1wwQXeE7NKlSqWL18+qrOT65BgbxBAIAYCBFgxGCQ2EQEEMkZAJ687d+60N954wxu3qx9GuXLlfOrgtdde658zVSBj7HlWBBBAAAEEslpA5wG679+/3yuwFy5c6M3d9VGtBfbs2WNHjx71zVQ/LLUUuOiii+ySSy7xKYaq0tKKhZwrZPVI8voIIJAqAgRYqTLS7CcCCPyHgHpfzZ8/3x577DH7+OOPLXv27F519d///d/WrFkz73fBDQEEEEAAAQSSX0BB1aFDh/zC1tq1a/38QEGWgq1NmzbZ7t27vSqraNGiPqWwY8eOduGFF1qNGjWsWLFi3uydICv5jxP2EAEEslaAACtr/Xl1BBDIQgFdWX3vvfd8BSL1vtAUAVVf3XDDDVa6dOks3DJeGgEEEEAAAQSySkBh1oEDB2zjxo0eZs2cOdOnGS5evNgOHjzoQVWZMmW8P5aCrFatWvm0Qk03DKsWEmZl1ejxugggkMwCBFjJPLrsGwII/KCArqKuXLnSnnzySW/gqquumhbw29/+1ntgUX3FwYMAAggggEDqCmhqoc4V1CtTVVmqxhozZoxNnDjRm7/rewqrdPFLKxcqxGratKnVqlXLq7Q4j0jdY4c9RwCBjBMgwMo4W54ZAQQiKqCTUi2frabtWj5b/S60dPbAgQPttttu85NRrTDEDQEEEEAAAQQQ0HmDVihUNdaUKVM8yFKgpQbwCrK0cmHJkiWtfv361qFDB2/2Xrt2bT+34HyC4wcBBBBIPwECrPSz5JkQQCAmAqF5++uvv+4VWLqyqiumv/vd76xnz56+shCl/zEZTDYTAQQQQACBTBAIFVlqP6AK7qlTp9rnn3/u0wp37dpl6qupqistAKMAS+cTWrFQjd4VcHFekQmDxEsggEDSCxBgJf0Qs4MIIHCygK6WpqWl2aBBg7wHlm7dunWz+++/31cV4mopxwwCCCCAAAIIfJ+Agiz1yNLFLzV4nzFjhs2ePduDrK1bt/qUwyJFili9evWsa9eu3iNLjd4LFizo5xcEWRxXCCCAwJkLEGCduR0/iQACMRU4fPiwXzV96KGHbN68eVa8eHG7+eab7aabbvIrp9wQQAABBBBAAIEfEwhBliqyvvzyS2/yrqmFOq9QA3gFVTqnaN++vVdjqeF72bJlvUqLEItjCwEEEDgzAQKsM3PjpxBAIKYCOuHct2+fvfXWW/bYY4/50tgVK1b08Oq6667zk0tOLGM6uGw2AggggAACmSwQgqwdO3bY/Pnz7ZNPPvHpheqXpUqtQoUKeZsCLRDTunVrq1u3rp9rqD9W9uzZM3lreTkEEEAg3gIEWPEeP7YeAQROU0Anmtu3b/feV88//7zt37/fTyJV5q8eWGrAmiNHjtN8Vh6OAAIIIIAAAqksoPMLrWis4EorFX788cceaKlCS7fChQtbtWrVfLXCtm3bWqNGjTzIypMnDxfOUvnAYd8RQOC0BAiwTouLByOAQNwFdDVUPSsef/xxe/fdd31VIZXzq0fFH/7wBz+h1LLY3BBAAAEEEEAAgdMRUIh1/PhxC9VYmlKoVQvXrFljal+gHljqhaUgS1MLdfGsQYMGVrRoUfpvng40j0UAgZQVIMBK2aFnxxFILQGdVKqxqq6Mjho1yqcQLlmyxPT16tWr24033mj9+/e38uXLU9KfWocGe4sAAggggEC6CujcQoGVemOpJ9bkyZNt7ty5tn79ejt48KCfe5QoUcJXK+zXr59PLVQ1Fk3e03UYeDIEEEhCAQKsJBxUdgkBBP5TQJVWq1atsrffftvef/99P6nUktfqf3XVVVfZNddcY1WqVGGpaw4eBBBAAAEEEDhrAYVU3377rQdW6re5cOFC7431xRdf+PmIAi5VY6nyWyGWGr0rxKIK/KzpeQIEEEhiAQKsJB5cdg0BBMyvciq80vLW77zzzonwSieIqrzq3bu39e3b15uq5sqVCzIEEEAAAQQQQCDdBEKQpf5YCrJmzZrljd4VZKknpxq5n3feeTZgwAC7+OKLrWrVqt6LkwVl0m0IeCIEEEgiAQKsJBpMdgUBBP5TQFc409LSbMiQId7zasuWLX6yqJ4TOlns3r27nywqvOJkkSMIAQQQQAABBDJCIARZWjxm0aJFNnLkSPvwww99WqECq5o1a/pqyJdeeqlXh7NCYUaMAs+JAAJxFyDAivsIsv0IIPC9AqH/hE4Shw0b5qsBbdiwwVf7ady4sV177bXeuL1cuXJerk94xYGEAAIIIIAAAhktECrDly1b5gGWqsNXr17tL6tKrOuvv9569erl5yfqicUNAQQQQOD/BAiwOBoQQCDpBL755hs7cOCALViwwIYPH24fffSRV14pvNLy1VdffbV16dLFSpcuzRXOpBt9dggBBBBAAIFoCyjE0qrICq7ee+8978+5cuVKPydp1qyZ3XHHHX6RrUiRIlxgi/ZQsnUIIJDJAgRYmQzOyyGAQMYKKLzS8tXqLTFixAibOHGi/ztv3rzWokUL+9nPfmadOnUivMrYYeDZEUAAAQQQQOAnBBRirVmzxs9X3nzzTV9gJnfu3Na1a1e7+eabrU2bNpYvXz4cEUAAAQT+vwABFocCAggkjYBOBLdu3Wrjx4/3q5mzZ8/2Sqz8+fN75ZWmDbZv397KlClDWX7SjDo7ggACCCCAQHwFdO6yZMkSe+ONNzzIUsV4yZIlrX///nbjjTdanTp1aHUQ3+FlyxFAIJ0FCLDSGZSnQwCBrBE4duyYN0IdPXq0h1f/+te/7MiRI34S2K5dO2/YriuZxYoVY9pg1gwRr4oAAggggAACJwmEnljz58+35557zvtiaQGaypUrez8snb9osRn6YXHoIIAAAmYEWBwFCCAQe4Gvv/7a1q1b572uhg4daitWrDAFWmqA2rlzZ7v88sutUaNG3kuCE8DYDzc7gAACCCCAQFIJKMQ6ePCgTZgwwQYPHmzTpk3z85h69erZLbfc4isTFi9enHOYpBp1dgYBBM5EgADrTNT4GQQQiISATvh0gqcmqFqOWqsNalUf3XTlsm/fvtanTx+rX7++TyPkhgACCCCAAAIIRFVg27ZtXoGlECstLc1y5MhhHTp0sLvvvttatmzp/Ty5IYAAAqksQICVyqPPviMQcwE1bFfDUy1Breanq1atMoVatWrV8vBKy1DXqFHDG6Cec845Md9bNh8BBBBAAAEEklng+PHj3g7hrbfestdff92ry7Vi8nXXXWc///nPmUqYzIPPviGAwCkJEGCdEhMPQgCBqAkoqNq5c6d98MEH9sILL9jixYs9pFJgddVVV1nv3r2tSpUqvpoPNwQQQAABBBBAIA4CqiyfN2+ePfvss16NpTYJTZs2tfvuu886duxoefLk4aJcHAaSbUQAgQwRIMDKEFaeFAEEMlpAqwtOnTrVnnnmGZs8ebLpqqV6RWilwR49enh4pdJ7Kq8yeiR4fgQQQAABBBBILwFdoNu7d6+HV4MGDbLly5dboUKFbODAgXbrrbdahQoV6IWVXtg8DwIIxE6AACt2Q8YGI4CArk6qN4QqrzR9cPfu3d7zSpVX11xzjYdXuXLlAgoBBBBAAAEEEIidgFokLFmyxJ588kmvND906JC1bdvW7r33Xl9RmV5YsRtSNhgBBNJJgAArnSB5GgQQyByBb7/91qcODh8+3Kuv1ANLVybV80r9IRo2bOjhFZVXmTMevAoCCCCAAAIIpK9AqMJ677337K9//atXYZUvX95++ctfeqV5mTJl0vcFeTYEEEAgJgIEWDEZKDYTAQT+V+Dw4cM2Z84cP6EbO3asN21v3bq13Xnnnda+fXsrWLAg4RUHCwIIIIAAAgjEWkDV5gsWLLBHH33URo0aZdmzZ/ceWL/5zW+sWbNm3uOTi3WxHmI2HgEEzkCAAOsM0PgRBBDIGgFVX2l1ntdee81eeeUV27p1q1WsWNFuvPFG+9nPfmZly5alL0TWDA2vigACCCCAAALpKKALdDt27PDznaeeesrbJWhFwgEDBtiVV15pdevWJcRKR2+eCgEE4iFAgBWPcWIrEUDAzFfimTJlil+NnDZtml+N7Nmzp91xxx1+NZK+VxwmCCCAAAIIIJAsAjrv+fzzz+2BBx6wuXPnetW5pg+q4rxfv37WqlUrK1WqFBfvkmXA2Q8EEPhJAQKsnyTiAQggEAUBVV9t27bN3njjDe99pauSatx+9913+0lcsWLFKKWPwkCxDQgggAACCCCQLgIKrNasWePN3N966y1fnVDTBvPly+crL1999dXWp08fr0Bn5eV0IedJEEAg4gIEWBEfIDYPAQT+V0BXIXX18fHHH7fRo0d79VW3bt3st7/9rTVq1Mhy5swJFQIIIIAAAgggkFQCWoFw+vTpNnjwYJs0aZLt27fPdFFP50G1atWy66+/3nr16uUX9eiLlVRDz84ggMD3CBBgcVgggEDkBXQFcs+ePTZ06FB7+umnbe3atX6ipqmD6gNRsmRJqq8iP4psIAIIIIAAAgicroDOgQ4cOOAL2GhVwo8//tg2bdpkx48f94t31atXt8suu8wuueQSq127ti9mky1bttN9GR6PAAIIxEKAACsWw8RGIpDaAt98842tXr3aq6+GDx/u1VidO3e2e++998RKPKktxN4jgAACCCCAQLIKKMQ6evSorVu3zj788EMbOXKkLV261IMt3dTcvV27dnbFFVdYy5YtrUSJEoRYyXowsF8IpLgAAVaKHwDsPgJxENBS0rNnz7YHH3zQJk6caHnz5rWBAwfanXfeaeXKleMkLQ6DyDYigAACCCCAwFkJqOpq586dtnjxYm/uPn78eEtLS7OvvvrKK6+aNGniPbG6dOniqzTnyZOHCvWzEueHEUAgagIEWFEbEbYHAQT+TUBXHVVxNXbsWF+FRydtWnHnvvvus2uuucZP2NTQlBsCCCCAAAIIIJAKArqwt3XrVps6daoNGzbMZsyYYbt37/YLetWqVbPevXv7Ks3169e3AgUK+Nc5V0qFI4N9RCD5BQiwkn+M2UMEYi2gAGv//v32zjvv2MMPP2wbN270pqUKs3r06OENS7khgAACCCCAAAKpJKBG7uoPumjRIp9SOGbMGO8RqvMm9QZt3bq198U6//zzrUKFCpYrVy5CrFQ6QNhXBJJUgAArSQeW3UIgWQR0IrZlyxZ7/vnn7R//+IevvqOTsT/+8Y9+cqZVeLghgAACCCCAAAKpJhCq1NUnVAHW+++/74HWwYMHvd1CjRo1PMTSKoW6+Jc/f35CrFQ7SNhfBJJMgAAryQaU3UEg2QR0crZs2TIbNGiQjRgxwpeOvvTSS30KoVbbYaWdZBtx9gcBBBBAAAEETlVA50maUrht2zabPn26ffDBBzZlyhTbvn27nzOp+qp79+7e4L1Ro0asUniqsDwOAQQiKUCAFclhYaMQQCAIqGGpejv86U9/skmTJlnhwoXtxhtvtFtuucVPyrghgAACCCCAAAKpLqAVm9VyQU3dP/vsM7+rGkurF2pKYadOnWzAgAHWqlUrP5fiAmCqHzHsPwLxFCDAiue4sdUIpIyAGriPGjXKAyydiFWpUsXuuece69+/vxUpUiRlHNhRBBBAAAEEEEDgxwTClEI1eNdFvyFDhvgqzocOHfLKqw4dOvhFwBYtWnAOxaGEAAKxFCDAiuWwsdEIpI7AgQMH/ATs0UcftQ0bNth5553nDdw7duzovRy4IYAAAggggAACCPyfgKqxduzY4VMKtUqhwiw1fC9atKifP2kVZ/URpRKLowYBBOImQIAVtxFjexFIIQFdSdy7d6+9+OKL9tRTT9muXbusZcuWJxq4swJhCh0M7CoCCCCAAAIInLKAzqG08I3aMLz++us2btw4D7EKFSpkXbt2tYEDB1rz5s2tQIECNHY/ZVUeiAACWS1AgJXVI8DrI4DADwro5EsnW4MHD7Znn33WP2/Xrp09+OCD1qxZM8uZMyd6CCCAAAIIIIAAAt8joCbuCrFmzZplr732mo0fP97PpdQTS43dFWKpsbsuCJ5zzjkYIoAAApEXIMCK/BCxgQikpoDCKzVw37Rpk4dXr776qi8L3b59e3vooYescePGBFipeWiw1wgggAACCCBwigI6n1Jz95kzZ/q51NixY03tGRRiXXfddX4/99xzLUeOHKf4jDwMAQQQyDoBAqyss+eVEUDgB64WKrjS1EGFVyp9V/8GXT3UMtHnn3++PfLII172TgUWhxACCCCAAAIIIPDjAqrEUmg1efJke+GFF/zj4cOHva/orbfean369LHixYuzMiEHEgIIRF6AACvyQ8QGIpD8Aro6qJMrnUxt377dVq9e7SsOzp071xYuXGhffvmlf083Lf/8+OOP+wo6BFjJf2ywhwgggAACCCBw9gI6z9q5c6d9+umn9vzzz9u8efP8PEqtGf7rv/7L2rRp44vjMJXw7K15BgQQyDgBAqyMs+WZEUDgFAQUXqmyasuWLTZ//ny/KqjgatWqVd6nQd/TSZcelz17du/Z8Oc//9lq165Nufsp+PIQBBBAAAEEEEBAAlqdUNXtb7zxhr300ku2ceNGK1asmF1xxRV2yy23+LmVzrW4IYAAAlEVIMCK6siwXQikiIAqq1asWGGjRo2y0aNH2/Lly73MXSdZuXLlsiJFili5cuWsYMGCXt7es2dP69Gjhy8FnS1bthRRYjcRQAABBBBAAIGzF9CFQVVfqQrro48+8ibv1atXt5tuusmuvPJK743F+dXZO/MMCCCQMQIEWBnjyrMigMBPCKii6uuvv7bFixfb22+/bR988IFt2LDBgyuVsJcpU8bq1Knjqw02aNDAwyst/ayvFy5cmOorjjAEEEAAAQQQQOAMBNTUXRXvTz75pE2bNs2nDV5wwQV2991324UXXujnYdwQQACBKAoQYEVxVNgmBJJcQOGVVhRMS0vz8Or999/3KYSquKpatar3uVIvhrp161qFChU8sFKfBp1g6aqgPtKjIckPEnYPAQQQQAABBDJEQK0ZdN41dOhQn0q4du1ar2zv37+/3XzzzbRpyBB1nhQBBNJDgAArPRR5DgQQOGUBhVeaIqjy9eHDh9snn3ximzdvtty5c1uTJk385Klt27ZWuXJly5cvn1daEVadMi8PRAABBBBAAAEEflJAUwm1YM5zzz1n7733np+b1ahRwxu69+vXz1s4MJXwJxl5AAIIZLIAAVYmg/NyCKS6wKFDhzy8evXVVz282r17t1detWzZ0q699lrr3LmzlSpViuAq1Q8U9h8BBBBAAAEEMkwgXFAcP368/fWvf7U5c+b4uZfOw371q195CwddSOSGAAIIREmAACtKo8G2IJDEAjpROnLkiC1btsxeeeUVv9q3fft272vVunVrbxzaoUMHD69YASeJDwR2DQEEEEAAAQQiIaCphOvWrbPXX3/dVybUqoTqNXr99dfbDTfcYJUqVeKcLBIjxUYggEAQIMDiWEAAgUwRUHP2NWvW2LBhw7z6SidJefPmtY4dO/pJkvpelShRwreFKYOZMiS8CAIIIIAAAgikuIAuLqr66plnnvHK+OPHj1vTpk3tnnvu8XM0VWFxXpbiBwm7j0CEBAiwIjQYbAoCySqg6itNFdRKg4MHD/aVB9WUXZVXAwcO9BMkei0k6+izXwgggAACCCAQVYFwjqYFdZ566ilbuXKlV8dfffXVduutt1q1atVY+Tmqg8d2IZCCAgRYKTjo7DICmS2gq3vqe6UTo08//dSv7tWvX99uueUW69Gjh5erc0MAAQQQQAABBBDIfAFVyS9dutSrsN59913bv3+/1atXz+68807r06ePrwZNFVbmjwuviAAC/ylAgMVRgQACGSqgK3sbNmywN99801544QXbtGmTlS9f3q677jrvsUB/hQzl58kRQAABBBBAAIGfFNAqhOPGjfOG7jNnzrQ8efJY9+7d7a677rJGjRr5gjuED5iehAAAIABJREFUWD/JyAMQQCCDBQiwMhiYp0cglQUUXh0+fNgmTZpkjz/+uJ8QaYWbrl27+lW95s2bW+7cuVOZiH1HAAEEEEAAAQSyXEBVWFu2bLGXXnrJLzju2LHDLzjedNNNds0111iFChUsW7ZsWb6dbAACCKS2AAFWao8/e49AhgroZEir2zz33HO+8uC+ffusRo0a9utf/9r69u1rRYsW5Wpeho4AT44AAggggAACCPy0gC46Hj161GbPnu1VWGPHjrVjx475xcZf/epXfvExf/78nLf9NCWPQACBDBQgwMpAXJ4agVQXUDn6Z599Zk888YSfEBUsWNAuvfRSPxGqU6cOTUFT/QBh/xFAAAEEEEAgUgKqvBo1apQ9+eSTtmzZMg+t1Afr9ttv9/6lVM5HarjYGARSToAAK+WGnB1GIHMEVH21du1ae/bZZ+2tt96yvXv3eg8F9VJQ43aFWfRSyJyx4FUQQAABBBBAAIFTEdBCO+H8bdiwYb6KdMWKFe0Xv/iFTyVU71LO305FkscggEBGCBBgZYQqz4kAAvbVV195M9BHHnnEVyBUM1Cd+Nxxxx0syczxgQACCCCAAAIIRFAg9C+dMmWKDR482CZOnOirRzdu3NgvQnbp0sUKFChAiBXBsWOTEEgFAQKsVBhl9hGBTBbQyU9oBKqTnz179ljNmjXt/vvvt169enk5OjcEEEAAAQQQQACB6AnoPE5TCd9//337+9//7lMJ8+XLZ/3797df/vKX3gZCqxJyQwABBDJbgAArs8V5PQRSQEBNP9Xz6i9/+Ys3AdVJziWXXGL33HOP1atXz7Jnz54CCuwiAggggAACCCAQTwGdy61cudIX4hk+fLhPJaxevbpPJRwwYICVLVuWVQnjObRsNQKxFiDAivXwsfEIRFNAqw2OGDHCBg0aZGvWrLHKlSvbnXfeaVdeeaUVL148mhvNViGAAAIIIIAAAgicEDh48KBPIfzb3/5mkydP9guQLVq08HO69u3bW+HChZlKyPGCAAKZKkCAlancvBgCyS/w7bff2vr16331mjfeeMMOHz5sF110kf3ud7+zli1bUnKe/IcAe4gAAggggAACSSCgczq1hHj77bftH//4h23YsMGnEqqq/uabb/bFefRvbggggEBmCRBgZZY0r4NAigio5HzOnDn2wAMP+FW7vHnz2vXXX2933323lS9fnnLzFDkO2E0EEEAAAQQQiL/A0aNHbcmSJfbiiy96T6xdu3ZZuXLlrG/fvvazn/3MatWqZblz56YSK/5DzR4gEAsBAqxYDBMbiUB8BA4dOmRjxoyxBx980NLS0jy0Uu8rneSoeTtLL8dnLNlSBBBAAAEEEEDgwIEDNn36dHvmmWds0qRJplCrUqVKdvnll9sVV1xhNWrU8NWmOcfjWEEAgYwWIMDKaGGeH4EUE9i7d68NGzbMG7hv3rzZGjZsaP/zP/9j3bp1s5w5c6aYBruLAAIIIIAAAgjEW0BTCVV5pQuUqsSaN2+eh1gVKlTw87vevXtbkyZNrFixYlTax3uo2XoEIi9AgBX5IWIDEYiXwNatW33FGvVK2L9/v7Vt29arsdT/iitz8RpLthYBBBBAAAEEEJCAQixdmBw9erS9/PLLtnDhQg+xihYt6ud4t9xyi7Vr145qew4XBBDIUAECrAzl5ckRSC2B7777zlcdVAP3N998044fP+6NPu+//36rX78+AVZqHQ7sLQIIIIAAAggkkYDO6xRiffbZZzZ06FDvearFegoUKGD9+/e322+/3erUqcOCPUk05uwKAlETIMCK2oiwPf+PvTuBu2rq////aZ40j0Lj3TxSUpFUVIakEA2kouIuU1GR5kEKhRISqlsTpdySIk2E5lukQUWDQtJciu/v8f48/tv/+vq6ueqaztn7dR6P86iu6wx7PdfunLU/67M+C4E4FlAAS3Wvhg0bZnPmzLGMGTNa69atrWfPnla6dOk4bhmHjgACCCCAAAIIIPDrr7/a999/b8uXL7fXX3/dli1b5hn3qoN1zz332E033WSFChVi0pJTBQEEUkSAAFaKsPKiCERTQAGstWvX2qBBg3x2TkXb77zzTuvWrZsXc+eGAAIIIIAAAgggEL8CGuvpfuDAAS/o/txzz3mBd9U5bdiwoU9aXnzxxexMGL9dzJEjENMCBLBiuns4OATiS0D1EVasWGEDBgzwGTkV87z//vutQ4cOVrBgwfhqDEeLAAIIIIAAAggg8KcCGvPt3r3bS0ao7qmysooUKWJdunSxdu3a+cRl+vTp0UMAAQSSVYAAVrJy8mIIRFvg1KlT9sEHH/iug9qhpmjRol7/SssIc+fOHW0cWo8AAggggAACCIRIQEXcV65caSNHjvTxn2pkXXHFFdajRw+77LLLLGvWrCFqLU1BAIFYECCAFQu9wDEgEBKB48eP2+zZs23IkCG2detWr3v12GOP+fbKWk7IDQEEEEAAAQQQQCAcAlpKqMyrWbNm2bPPPmtbtmzxLKxOnTp5CQlNZJKFFY6+phUIxIoAAaxY6QmOA4E4F9Ag5siRIzZp0iR74okn7LvvvrNq1ap5PawGDRowCxfn/cvhI4AAAggggAACfxRQ9v0XX3xho0aN8klMZWHVq1fPevXq5VlY2bJlAw0BBBBINgECWMlGyQshEG0BBbC0C8348ePtqaeesp9//tnq1q3rAazatWt7cU9uCCCAAAIIIIAAAuERCMZ/M2bM8PHf119/7bsQdu7c2dq3b2/FixcPT2NpCQIIpLkAAaw07wIOAIFwCGgAc/DgQd+NZvTo0Xb06FGfgRs4cKDvRpMxY8ZwNJRWIIAAAggggAACCPwu8Ouvv9p//vMfe/rpp23OnDmmrCzVwurdu7fVqVOHSUzOFQQQSDYBAljJRskLIRBtAQWwlHWlnWg0gFE2llLHlYFVq1YtBi/RPj1oPQIIIIAAAgiEWODHH3+0N99807Owtm3bZsWKFfNi7m3btmUjnxD3O01DILUFCGCltjjvh0BIBYIU8pdfftmefPJJ00BGmVeDBw/2pYRZsmQJactpFgIIIIAAAgggEG2BkydP+g7UQ4cOtUWLFnnmfZs2baxnz55WsmRJy5AhQ7SBaD0CCCSLAAGsZGHkRRBAQAIq4j558mQv4r5nzx6rXr26LyFUEXcCWJwjCCCAAAIIIIBAOAV+++0338BHuxFOmDDBy0pceumlnol/ySWXMA4MZ7fTKgRSXYAAVqqT84YIhFfg+PHjNnPmTJ9927Fjh5UuXdr69OljzZs3t1y5coW34bQMAQQQQAABBBCIsECwG/Vbb71ljz/+uG3evNkzrx544AG7+eabrUCBAhHWoekIIJBcAgSwkkuS10EAAS/a+f7773vW1erVqy1fvnx2++23W5cuXTyYlS5duj9V+uWXXzy1nPRyTiIEEEAAAQQQQCA+BU6fPm0rV6604cOH28KFCy1btmzWqlUrD2KVKVPG0qdPH58N46gRQCBmBAhgxUxXcCAIxL+A0se//PJL34VQhTxPnDhhVapUse7du9v111/vWVh/FsTS7jWauWOnwvg/B2gBAggggAACCERTQGO5nTt32rhx4+yll17y0hKqhzpgwADfmZpyEtE8L2g1AskpQAArOTV5LQQQsJ9++sneeecdGzNmjG3YsMFn366++moPYlWrVs2yZ8+OEgIIIIAAAggggEDIBBTAOnz4sM2ZM8fLSWzfvt0KFy7shdxV0F2Z+WRhhazTaQ4CqSxAACuVwXk7BMIuoPRxbZ+smbepU6fa999/b0WLFvUU8nbt2lm5cuUsc+bM/3U5Ydh9aB8CCCCAAAIIIBBWAZWTWLt2rQewPvjgA2+mxoA9evSw8uXLUy4irB1PuxBIJQECWKkEzdsgECWBY8eO2YoVK2zs2LFeE0s1rooVK+ZFPDWIURAra9asUSKhrQgggAACCCCAQOgFlIW1e/du34lQk5n79u2zCy+80B5++GFr0qQJm/qE/gyggQikrAABrJT15dURiJyABi66ayvlN954w1588UXbunWrqc6VCrl37drVWrdubYUKFSKNPHJnBw1GAAEEEEAAgbALaCJzwYIFvhthsKmPlhDec889vjMhNU/DfgbQPgRSToAAVsrZ8soIRE5AgaujR4/a3r17bf369Z59pfuuXbs8C0tF3O+44w6vh1W8eHHSyCN3htBgBBBAAAEEEAi7gCYtv/76a9/U51//+pedPHnSqlat6rsRqi5q7ty5KSUR9pOA9iGQQgIEsFIIlpdFIEoCClwpQPXDDz944OrDDz/0JYRbtmyxgwcPmnYn1M4zGrzceeed1qxZM8ufPz8ZWFE6SWgrAggggAACCERCICjmrk19Ro4c6TtUaxOfFi1a2D//+U/foTpTpkyRsKCRCCCQvAIEsJLXk1dDIHICCk5pm+SNGzd6sU7dv/jiCw9caQZOta5UxF07EGrWrX79+nbeeef5wCVdunSR86LBCCCAAAIIIIBA2AU0Bgw29ZkyZYpPcv7jH//wAJbqoRYsWJBxYNhPAtqHQAoIEMBKAVReEoEoCGh2TYMTDUg+/fRTe/vttz3zSssHtRPhOeec43UOatSoYTVr1vQAVqlSpSxv3ry+dJDgVRTOEtqIAAIIIIAAAlEVUFmJTz75xLOwlixZ4pn3DRs29ILuF198MRv6RPXEoN0IJEGAAFYS8HgqAlEWUPBKwSrVuNLM2po1a+zQoUOWOXNmz7C67LLLrHHjxnbRRRdZ4cKFPXVcRTsJXEX5rKHtCCCAAAIIIBAVAU12fv/99zZ58mTfmXrnzp2eld+tWzdr166d/50bAgggcCYCBLDORIvHIoCACyjDSrsMvvfee16cc9WqVV4DS9lVyrbSNsmXXnqpZ2ApE4vAFScOAggggAACCCAQPQGNGVeuXGlPPfWUzZ8/33eq1jixV69ePsnJjoTROydoMQJJESCAlRQ9notABAU08NizZ48PQjSjpuCVdpc5//zzPeNKBTovvPBCy5cvHwU6I3h+0GQEEEAAAQQQQCAQ0LhR5SY04TlmzBifAC1Xrpz169fPN/XRJj/cEEAAgcQKEMBKrBSPQwAB301w//79pl1lJk6caGvXrvXMqwsuuMCaN29ut956q5UvX95y5MjBDoOcLwgggAACCCCAQMQFFMA6fvy4LVq0yAYNGmTr1q3zAu4PPfSQderUyTP1KS8R8ZOE5iNwBgIEsM4Ai4ciEGWBYEvkZcuW2bhx42zp0qW/B69uuOEGa9OmjVWqVImZtCifJLQdAQQQQAABBBD4g8CpU6d80rN///6+4U+2bNnsvvvus+7du3vGPgEsThkEEEisAAGsxErxOAQiLqDBx4YNG+yZZ57xHQcPHjzoywZvvvlmD14p80pp4AxCIn6i0HwEEEAAAQQQQCCBgDb+2bx5sw0cONDmzp3rda+6dOliPXv2tEKFCjF25GxBAIFECxDASjQVD0QgugLBLjLTp0/3+gXffvutF2y/8cYbrUOHDlalShWfTeOGAAIIIIAAAggggEBCAZWg2LFjhw0dOtSmTZvmv7rtttusT58+XoYiffr0gCGAAAKJEiCAlSgmHoRAtAVOnDjhxdpHjRrlOw9qoFGnTh3r0aOH1atXz2tekXkV7XOE1iOAAAIIIIAAAn8moADWrl27fCfCV155xUtQXHvttfbYY495+Ql2IuS8QQCBxAoQwEqsFI9DIKICyr7au3evTZo0ycaPH287d+60kiVLWufOna1t27ZWpEgRZs4iem7QbAQQQAABBBBA4O8ENJb88ccfbcKECV6KQhsCXXLJJTZgwAC77LLLqJ/6d4D8HgEEfhcggMXJgAAC/1VAA46TJ0/ap59+aiNGjLAlS5b4Y6+++mqvW3DhhRcy6OD8QQABBBBAAAEEEPhLgWPHjtlbb71lw4YNs02bNlmZMmXs0UcftWbNmlmuXLnQQwABBBIlQAArUUw8CIFoCijl+5tvvrHXXnvNXn75Zdu3b58VLVrUHnjgAWvdurUVKFCA7Ktonhq0GgEEEEAAAQQQSLSANgPSTtaDBg2yFStWWMGCBX0nwttvv90KFy6c6NfhgQggEG0BAljR7n9aj8B/FVD21ZEjR2z+/Pn29NNP25o1azzbqmnTph7Auuiiiyxz5swIIoAAAggggAACCCDwlwKnT5/23ayHDBli77zzjmXNmtULuT/44INWvHhxaqly/iCAQKIECGAliokHIRA9Ac2UffXVV77r4BtvvOHBLO02eP/999t1111n+fLlY7ARvdOCFiOAAAIIIIAAAmcsoKx+7WI9cuRImzx5simg1aRJEy/kXr16dTL6z1iUJyAQTQECWNHsd1qNwN8KaLng7Nmzvdjmli1bPGDVrl07u+eee3ymjB1j/paQByCAAAIIIIAAAgiYmTL7NbbUxOjYsWPt+PHjVrZsWevXr5/XwcqWLRsTo5wpCCDwtwIEsP6WiAcgED0BbW/82Wef+XbHCxcu9FmyunXr2kMPPWQNGjTwpYPp0qWLHgwtRgABBBBAAAEEEDhjgWAnQpWl0OTo0aNHLXv27F4HS/dChQoxtjxjVZ6AQPQECGBFr89pMQJ/KaAUb82QvfLKKzZ+/Hjbu3evnXfeeda1a1dr27at/53gFScRAggggAACCCCAQGIFggws7Wqt8eWJEyc8m79jx47Wt29fH1+mT58+sS/H4xBAIKICBLAi2vE0G4H/JqABxerVq2348OG2aNEiH1w0atTIs69UuF2F3Algcf4ggAACCCCAAAIIJFZAAazdu3fbsGHDbOLEiXby5EnP6L/77rutV69eVqRIEcaXicXkcQhEWIAAVoQ7n6Yj8GcC+/fvtxkzZvjOg9u2bbNSpUrZP//5T2vdurUVKFCA2TFOGwQQQAABBBBAAIEzElAAS0XclYH12muv2bFjxyx//vxexL1Dhw6WM2dOAlhnJMqDEYimAAGsaPY7rUbgTwV+/fVX27p1qwevFMTS4ELZV4888ojVrFnTs6+4IYAAAggggAACCCBwJgIaY65du9YzsN59913Tv7X74NChQ+3yyy9njHkmmDwWgQgLEMCKcOfTdAT+KKDi7R999JENGDDAi7iruOadd97pGVjnn38+2VecMggggAACCCCAAAJnLKCi7drdeuDAgfb111/7GPPGG2/0+lelS5dmjHnGojwBgWgKEMCKZr/TagT+j4BSu48cOWJvvPGGz4598803VqJECc++atmyJandnDMIIIAAAggggAACZyVw6NAhmz59ug0aNMhrYeXKlctuu+0269Gjh483uSGAAAKJESCAlRglHoNABASC3Qe1M8y4ceM8mHXxxRdb//79rV69el5okxsCCCCAAAIIIIAAAmcqoE2Cli9f7ksGP/744983CdJEqcabGTJkONOX5PEIIBBBAQJYEex0mozAnwmoFsGXX37pxTWV4q2BxA033GC9e/e28uXLk9rNaYMAAggggAACCCBwVgKaKN21a5cXcH/++eftxx9/tGLFiln37t3ZKOisRHkSAtEUIIAVzX6n1Qj8HwHNjC1evNhnxj799FMrXLiwb23cqVMn/zs3BBBAAAEEEEAAAQTOVuDkyZOefTV8+HDPxkqXLp1vFnTfffdZnTp1vC4WNwQQQOCvBAhgcX4ggIALHDhwwGsTjBo1ynbs2GGVK1f2wppNmza1c845ByUEEEAAAQQQQAABBM5aQPVW9+zZY1OnTjWVrFC91UKFCtlNN93kE6YVKlSwTJkynfXr80QEEAi/AAGs8PcxLUTgbwWCAcWYMWNs4sSJdvjwYWvQoIHvRlijRg0GE38ryAMQQAABBBBAAAEE/k5AGf/r16/3eqtz5syxY8eOWalSpaxjx46+K6EKulMP6+8U+T0C0RUggBXdvqflCPwuoPpXGzdu9OWDc+fO9Z+3a9fOevXqZcWLF2cgwbmCAAIIIIAAAgggkGQB1cI6ePCgLVy40J577jlbvXq16WfK/L/rrru8/mqBAgWovZpkaV4AgXAKEMAKZ7/SKgTOSOCXX36xZcuWecbVypUrfWvj+++/3zp37mz58+f3GgXcEEAAAQQQQAABBBBIqoAmTnfv3m1vv/22vfzyy76JUMaMGb0OluqvXnHFFZY3b17Gn0mF5vkIhFCAAFYIO5UmIXAmAlo+qPRtZV7179/ftm/f7unbqn+lmgQ5cuQ4k5fjsQgggAACCCCAAAII/KXAqVOnvAbW66+/7jsT6u+qudq4cWPr2rWr1a5d27Jly0YQi/MIAQT+lwABLE4IBCIuoACWUrmnTJliI0aMsH379ln16tVtyJAhPgOWOXPmiAvRfAQQQAABBBBAAIHkFND4UysANmzYYJMmTbI33njDfvjhB8/8b968uXXo0MGqVKnCzoTJic5rIRACAQJYIehEmoBAUgQ0gPj+++9twoQJ9swzz9ihQ4fs8ssvt4EDB1qtWrWoQZAUXJ6LAAIIIIAAAggg8KcCwSoA1cF6/vnnbcGCBb6R0HnnneerANq3b2/lypXz5YWUs+AkQgABCRDA4jxAIOICGjzs3LnTnn32WQ9iaTasadOm1q9fP5/5Sp8+fcSFaD4CCCCAAAIIIIBASghoHHrgwAFbvHixj0NVk1XLC0uWLGmdOnWyVq1aeUCLnQlTQp/XRCD+BAhgxV+fccQIJKuABg5ff/21jRw50qZOneqvrdTtPn36WPny5dMkgKVj0p3gWbJ2NS+GAAIIIIAAAgjEnIB2IVQJC2VgvfTSS7Zu3TpTofeLL77Ybr/9dqtfv74HsaiJFXNdxwEhkOoCBLBSnZw3RCC2BDRo2Lhxo9e/mj17tgeNbrnlFuvZs6eVKVMmTVK2FbzSjXTx2DpXOBoEEEAAAQQQQCC5BTTuC3YmnDVrlu9MuGnTJq9/VblyZbvyyiutWbNm/vesWbMm99vzegggEEcCBLDiqLM4VARSQkABrPXr19vQoUPt3Xff9dmtO+64w7p16+a7EXJDAAEEEEAAAQQQQCClBVTGYvPmzR7Amjlzphd119LBIkWKeCaWCruff/75LCdM6Y7g9RGIYQECWDHcORwaAqkhoBmvlStXetH2Dz/80PLkyePBK9UdOPfcc1PjEHgPBBBAAAEEEEAAAQTs+PHjPi6dPHmyLVq0yPbu3evZWXXq1LFHHnnELr30UnYm5DxBIMICBLAi3Pk0HQEJqFCmAlcDBgywVatWedCqV69e1rp1a8ubNy9ICCCAAAIIIIAAAgikioCWE2onwq+++srmzZtn06dPt61bt3oWVteuXT0Lq2jRoqlyLLwJAgjEngABrNjrE44IgVQVOHHihL3zzjsewFItrFKlSvkOhCrknjNnzlQ9Ft4MAQQQQAABBBBAINoCCmJpOaFKXIwePdrefvttU8mLq666yidZVdw9Y8aM0Uai9QhEVIAAVkQ7nmYjEAgcO3bMZsyYYcOGDbPt27dbpUqVfDmhBgkqnskNAQQQQAABBBBAAIHUFFAQSzWwtEP2mDFjbNeuXV6b9cEHH7Rbb73VcufOzWY/qdkhvBcCMSJAACtGOoLDQCCtBA4ePGhTpkyxkSNH2p49e6xGjRo2aNAgq1evHju9pFWn8L4IIIAAAggggECEBRTAOnnypK1YscIef/xxW7ZsmRdvb9mypfXo0cMqVqxIFlaEzw+aHl0BAljR7XtajoBpcHDgwAF76aWXPEX7p59+srp163oG1iWXXGJZsmRBCQEEEEAAAQQQQACBVBfQssHdu3f7OFU7E+7bt8/Kly9v9913n7Vo0cIKFCiQ6sfEGyKAQNoKEMBKW3/eHYE0FQjSs5999ll7/vnn7ciRI9aoUSMPYFWrVs0yZcqUpsfHmyOAAAIIIIAAAghEV0C7Ei5fvtxXCixdutTHpldccYUvJaxdu7avFkiXLl10gWg5AhETIIAVsQ6nuQgkFFAA67vvvrMRI0bYq6++6jsSXn/99V7EvVy5cp6qzQ0BBBBAAAEEEEAAgbQQUBaWSlxMmjTJJ1v37t3rmVft27e3jh07WunSpRmvpkXH8J4IpJEAAaw0gudtEYgFgV9//dULtw8ZMsRmzpxp6dOnt9tuu80efvhhK1asmP+bGwIIIIAAAggggAACaSEQ1MJat26djR071ubNm2eHDx+2KlWq2L333usTr3ny5CELKy06h/dEIA0ECGClATpviUCsCCjjasOGDda/f39777337JxzzrHOnTt7bYHChQszGIiVjuI4EEAAAQQQQACBiAoENVs1VlXZi9WrV1u2bNns2muvtQceeMCDWZkzZ2bcGtHzg2ZHS4AAVrT6m9Yi8L8EtLvLypUrrW/fvr7LS/78+a179+521113+d+pKcAJgwACCCCAAAIIIJDWAlo1sHPnTi/orrIX33//vZUsWdLHrbfccosVLFiQcWtadxLvj0AqCBDASgVk3gKBWBU4ceKEb0usmlerVq2yc88913r27Gl33HGH5cqVK1YPm+NCAAEEEEAAAQQQiJhAMG596qmnfPyqidarr77aC7rXrFnTMmbMGDERmotA9AQIYEWvz2kxAr8LaGeXxYsXewBr/fr1dsEFF1ivXr2sTZs2vpyQGwIIIIAAAggggAACsSCgpYQq6P6vf/3Lxo0bZ7t27bJSpUp5AKt169aWO3fuWDhMjgEBBFJQgABWCuLy0gjEuoACWB988IEHsFQLq0SJEta7d29Pxc6RI0esHz7HhwACCCCAAAIIIBAhAWVhffrppzZ8+HBbsmSJ17666aabrEePHla2bFmysCJ0LtDUaAoQwIpmv9NqBFzg2LFj9v777/8ewFItgT59+lirVq3IwOIcQQABBBBAAAEEEIgpgd9++82+++47z8CaMGGC/fzzz17EXROwjRs3pgRGTPUWB4NA8gsQwEp+U14RgbgRUABNR3UwAAAgAElEQVQrYQZW8eLFfQmh0rBZQhg33ciBIoAAAggggAACkRE4evSoLViwwJ544gnfkTBPnjxe/uLuu++2MmXKWPr06SNjQUMRiJoAAayo9TjtRSCBQMIi7mvWrLEiRYr4dsS33XabLyHMkCGDp2KzGyGnDQIIIIAAAggggEAsCCgLa+vWrfbss8/a66+/bkeOHLGqVav6MsJrrrnGcubMydg1FjqKY0AgBQQIYKUAKi+JQLwInDp1yncfHDBggNcR0M6D7du3t2uvvdZUKDN//vymrCwNBJjNipde5TgRQAABBBBAAIHwCmiMqqDV/PnzbcSIEb4RUbZs2bwWVvfu3a1SpUpeG4sbAgiET4AAVvj6lBYhkGiBX3/91bZs2WJDhgyx2bNn+/Nq1aplBQoUsJ9++skqVKhgHTp08NoCmTJlYjYr0bI8EAEEEEAAAQQQQCClBJSF9fXXX9v48eNt6tSp9uOPP5pquXbs2NFLYZx//vlMvqYUPq+LQBoKEMBKQ3zeGoG0FtAM1t69e+25556zF154wQ4fPuy1r7Q74enTp61cuXL2+OOPW6NGjSxLliwEsNK6w3h/BBBAAAEEEEAAARdQLdfly5fbmDFjbNGiRb56QBOxDz/8sI9ds2bNytiVcwWBkAkQwApZh9IcBM5UQEGr6dOneyHM7du3+5e/7ueee641bdrUunXr5qnYysDihgACCCCAAAIIIIBALAgoC+uHH36wmTNn2tixY23btm2WO3duz8Lq0qWLFStWzOu5ckMAgfAIEMAKT1/SEgTOWECBqkOHDtkrr7xiTz/9tO3atctfQzWvmjVrZp06dbIaNWp4VhaF3M+YlycggAACCCCAAAIIpKCAVgx8/vnnvppg1qxZnpVVr1496927t11++eXUwkpBe14agbQQIICVFuq8JwIxIqAaWJqtevLJJ23atGn+pV+iRAlr0aKFXX311VazZk3fjZDgVYx0GIeBAAIIIIAAAggg8L8EDhw4YHPmzLFRo0bZpk2bfAMi7ardpk0by5s3L1oIIBAiAQJYIepMmoLAmQqo1tXKlStt6NChvguh6ly1bNnS7r//fitfvrzPWhG8OlNVHo8AAggggAACCCCQWgLaVXvt2rU2ePBgW7BggWXPnt131dZ4VssI2Uk7tXqC90Eg5QUIYKW8Me+AQMwKaMcWpVsrA0v1r/Qlrxmrtm3beg0Bglcx23UcGAIIIIAAAggggICZqRaWymCMHDnSXn31Vd+I6JprrrF+/fpZ5cqVqYPFWYJAiAQIYIWoM2kKAmcioC97pVmPHj3aZsyYYSdOnLD69etbnz59rG7duhRtPxNMHosAAggggAACCCCQJgKq6aplhC+++KKPa/X32rVr28CBA31MqxUF3BBAIBwCBLDC0Y+0AoEzEtAXvepdLVy40IYPH27r1q3zwu133nmn79qiOlhkX50RKQ9GAAEEEEAAAQQQSAOBYFyrXbWHDRtm33zzjVWsWNEDWI0bN7Zs2bIxrk2DfuEtEUgJAQJYKaHKayIQ4wIq3q5U63HjxtnEiRN9J8JKlSpZr169POWaXQdjvAM5PAQQQAABBBBAAIHfBVQHa968eTZgwADbsGGDnX/++b6q4JZbbrFcuXIRwOJcQSAkAgSwQtKRNAOBMxHQcsHPPvvMBg0aZEuXLvWZqZtuusl69Ohh5cqVo1bAmWDyWAQQQAABBBBAAIE0FdDk7EcffWT9+/e3FStW+O6D9957r3Xs2NEKFSpEACtNe4c3RyD5BAhgJZ8lr4RA3Ajs37/fpk2bZk8//bTt2LHDypYt68XbFcTKkycPX/Jx05McKAIIIIAAAggggIBqu/7nP//xJYTKxMqUKZPvRKggVsmSJRnbcoogEBIBAlgh6UiagUBiBfQFr6DVqFGjbOrUqXb8+HFr0qSJPfLII3bRRRdRvD2xkDwOAQQQQAABBBBAICYEVAdr27ZtXsR9ypQppiWF1157rY9vq1atSgArJnqJg0Ag6QIEsJJuyCsgEFcC2lp41apVnmK9ePFi35mla9eu1r17d68XkD59+rhqDweLAAIIIIAAAggggMDevXvtlVdesWeeecZ++uknq1Onjo9369WrZxkzZgQIAQRCIEAAKwSdSBMQSKyAZqeOHj3qqdWqf7VlyxYrXLiwF7ls06YNRS4TC8njEEAAAQQQQAABBGJKQJsSvfnmmzZ06FBfbaC6rv369bMbbrjBsmTJElPHysEggMDZCRDAOjs3noVAXApo+eB3331nL7/8so0dO9Z+/vlnT6vWji2NGjWyrFmzxmW7OGgEEEAAAQQQQACBaAuoLIY2J1LQat26dVawYEHr2bOnderUyXLmzBltHFqPQEgECGCFpCNpBgKJEVA9gDVr1tjw4cPtvffe83pXzZs3t169elmFChXYfTAxiDwGAQQQQAABBBBAIOYEVCZDhdwHDhxoCxYs8IlZBa8efPBBK1KkCGUyYq7HOCAEzlyAANaZm/EMBOJWQKnVc+bMsREjRtjmzZu95pV2Z9HyQW0xzA0BBBBAAAEEEEAAgXgU0EqDb775xidqtVGRAlraYfvRRx+1MmXKMFEbj53KMSPwBwECWJwSCEREQF/qu3fv9qWDEydO9OWDdevW9TRr/cnywYicCDQTAQQQQAABBBAIoYBqvaqQu8a648ePt8OHD9uVV17pGVnVqlVjp+0Q9jlNip4AAazo9TktjqiAlg9+/vnnXrxdadUZMmSw1q1b28MPP2wlS5ZkViqi5wXNRgABBBBAAAEEwiKg3Qc1UTt69Gj74YcfrHbt2jZ48GC75JJLKOQelk6mHZEWIIAV6e6n8VER0IzUiRMn7MMPP/SC7SpsWaBAAevRo4d16NDB8ubNa+nSpYsKB+1EAAEEEEAAAQQQCKGAsq60fPCJJ57w5YTVq1f3DKyGDRuy2iCE/U2ToidAACt6fU6LIyigANbRo0dt9uzZ/iX+7bffWtmyZa1///7WrFkzvtAjeE7QZAQQQAABBBBAIGwCGu/OnTvXs65U71WbFGns27RpU8uePXvYmkt7EIicAAGsyHU5DY6igAJY+/fvt8mTJ9vIkSP97xdffLENGTLE6tWrx/LBKJ4UtBkBBBBAAAEEEAiZwMmTJ32nbQWttCOhymSoiHvLli0tZ86cIWstzUEgegIEsKLX57Q4ggIKYO3bt89eeukle+aZZ7yoZf369X12qmbNmmwrHMFzgiYjgAACCCCAAAJhE1DN1yVLlvgqg88++8x33O7du7fdcsstlidPnrA1l/YgEDkBAliR63IaHEUBBbB27drlu7IoiHXs2DFPpdaXu3Zlof5VFM8K2owAAggggAACCIRL4PTp0/bxxx/7GFd/Fi5c2Hr27Glt27a1/Pnzh6uxtAaBCAoQwIpgp9Pk6AkogKU6AKNGjbKZM2far7/+ai1atLA+ffpY+fLlCWBF75SgxQgggAACCCCAQOgEFMD65JNPfNOi5cuX+6ZF3bp1s06dOlnBggVD114ahEDUBAhgRa3HaW8kBfRlvnLlSq95tWjRIsuRI4d17NjRv9CLFSsWSRMajQACCCCAAAIIIBAuAY15V61a5TWwNObVssG7777bunTpYueee264GktrEIigAAGsCHY6TY6ewIkTJ+zdd9/12agvv/zS6wE89NBDduutt1q+fPmiB0KLEUAAAQQQQAABBEInoFUGKt4+aNAgmz9/vk/adujQwe6991674IILQtdeGoRA1AQIYEWtx2lvJAUOHTpkkyZN8iWEe/bssapVq3ptgEaNGrGlcCTPCBqNAAIIIIAAAgiET+C3336zL774woYPH25z5861LFmyWLt27eyBBx6w4sWLUzYjfF1OiyImQAArYh1Oc6MnoPpXe/futdGjR/9ewF2BK6VWq4B7pkyZoodCixFAAAEEEEAAAQRCJ6AAllYbPPHEEzZr1iwf57Zp08YefPBBK1WqFAGs0PU4DYqaAAGsqPU47Y2cgFKpN23a5KnUc+bMsQwZMvgXuQq4q/6V/s0NAQQQQAABBBBAAIF4F1AASxsXjRgxwmbMmGEZM2a0Vq1aWa9evax06dIEsOK9gzn+yAsQwIr8KQBA2AVOnjxpn376qT322GO+K4uKWap4e9euXX1nlnTp0oWdgPYhgAACCCCAAAIIREBAAawtW7Z42Yzp06d7i1u2bOkTt2XKlLH06dNHQIEmIhBeAQJY4e1bWoaACxw/ftw++OADD2CpJkCJEiXs4YcftltuucVy5syJEgIIIIAAAggggAACoRBQAGvHjh321FNP2eTJk02lNK6//np79NFHrXz58kzchqKXaUSUBQhgRbn3aXskBI4ePeo7EPbr189npPTlrQLu1113nWXNmjUSBjQSAQQQQAABBBBAIPwCClh9++23Xvt14sSJplIazZo1s759+1rFihUJYIX/FKCFIRcggBXyDqZ5CCiApdpXAwYM8BmpSpUqeQH3Jk2a+M4s3BBAAAEEEEAAAQQQCIOAAljffPONPfPMM/bKK6/YqVOn7JprrvHJWwJYYehh2hB1AQJYUT8DaH/oBRTAeuuttzyAtX37dt95UAGsxo0bW+bMmUPffhqIAAIIIIAAAgggEA0BLSHUeHfMmDH22muv2enTpz0DSysRtAqBGljROA9oZXgFCGCFt29pGQIuEASwFLTatm2bVa9e3QYPHmyNGjUigMU5ggACCCCAAAIIIBAagWAXwpEjR9rMmTO9XTfddJPvQli2bFmWEIamp2lIVAUIYEW152l3ZAQUwJo9e7YNGjTIlxAqA2vIkCHWoEEDAliROQtoKAIIIIAAAgggEH4B1bxas2aNDR061BYsWGA5cuSwTp06+Q7c559/fvgBaCECIRcggBXyDqZ5CAQBrCAD68ILL/QMrIYNG1IDi9MDAQQQQAABBBBAIDQCv/zyiy1evNgna1esWGHnnnuu9ejRw9q1a2f58+cPTTtpCAJRFSCAFdWep92REQgCWEERd2VgKRvryiuvJIAVmbOAhiKAAAIIIIAAAuEXOHbsmL399ts+Wbtx40YrU6aMPfbYY3b99ddbzpw5ww9ACxEIuQABrJB3MM1DIOEuhCpqWaVKFS/ozi6EnBsIIIAAAggggAACYRI4ePCgTZo0yZ588knbs2ePaeWBJm7r169vWbNmDVNTaQsCkRQggBXJbqfRURLQTNT8+fN9++CvvvrKZ6L69u1rLVq0sGzZskWJgrYigAACCCCAAAIIhFTgf/7nf2zfvn323HPP2YsvvmiHDh3yTYtURkMrEDJlyhTSltMsBKIjQAArOn1NSyMqcOLECVu6dKmnT6uoZZEiReyhhx6y9u3bW+7cuSOqQrMRQAABBBBAAAEEwiSgHQi1YdHjjz9ur7/+uunfN998s0/clipVyjJkyBCm5tIWBCIpQAArkt1Oo6MkoGKWa9eutX79+nlRS63/v+uuu+zee+/1YFa6dOmixEFbEUAAAQQQQAABBEIocOrUKfviiy98zLtw4UKv9aoxr4q4Fy5cmDFvCPucJkVPgABW9PqcFkdMQNsJq/aVthOeMWOGf3lr+eAjjzxiZcuWZTYqYucDzUUAAQQQQAABBMIocPz4cVu2bJnXel21apUVKFDAHnzwQevcubNP4DJpG8Zep01REyCAFbUep72RE1A9gB9//NGef/55Gzt2rP38889Wq1YtL2hZt25ddiKM3BlBgxFAAAEEEEAAgfAJHD582ObNm+c1r7Zu3WolSpTwshlt2rSx7NmzE8AKX5fToggKEMCKYKfT5OgJaCfC2bNn27Bhw37/QlcGVsuWLS1XrlzRA6HFCCCAAAIIIIAAAqESOHLkiJfL0MZFX375peXPn9+6dOnid2VjpU+fPlTtpTEIRFGAAFYUe502R07g9OnTtnz5cs+6+uijjyxv3rz2z3/+0+sCqA4WNwQQQAABBBBAAAEE4llAdV83btxoI0aMsH//+9+m8W/r1q29bEbx4sUtY8aM8dw8jh0BBMyMABanAQIRENAuLF999ZVnYL311lte90q7siituly5chEQoIkIIIAAAggggAACYRbQeHf37t02cuRImzx5smknbtV91U7cZcqUIYAV5s6nbZERIIAVma6moVEWUB2sPXv2eB2sF154wZRiXa9ePf9Cr1OnDl/oUT45aDsCCCCAAAIIIBACAQWwdu7c6RlYU6ZM8QysVq1aWd++fa1kyZJsXBSCPqYJCBDA4hxAIAICCmCpePvMmTP9S/2bb77xHQhVI6B58+ZeyJ2dWSJwItBEBBBAAAEEEEAgpALaeXvLli1eMkO1X7VksEOHDr7i4LzzzqMGVkj7nWZFS4AAVrT6m9ZGVEABLKVRL1q0yHdmWb9+vRe27NGjh3+xqyYWAayInhw0GwEEEEAAAQQQCIHAqVOnbPXq1b7CYOnSpXbOOedYt27d/K4i7ox1Q9DJNCHyAgSwIn8KABAVAaVRr1u3zgYPHmwLFiywzJkzW/v27e3BBx+0YsWKMSsVlROBdiKAAAIIIIAAAiEU0GTtkiVLrF+/fj7mLVy48O+Ttey6HcIOp0mRFCCAFclup9FRFAjqAjz99NM2adIkr4N15ZVX+jLCiy66yDJlyhRFFtqMAAIIIIAAAgggEAKBY8eO2bx582zAgAG+lFB1r1T/qmXLlpY9e/YQtJAmIIAAASzOAQQiJHDgwAF7/fXX7amnnvI6WJUrV/Y066ZNm1qOHDkiJEFTEUAAAQQQQAABBMIkcPDgQZs2bZo9/vjjvhthtWrVPJjVuHFjJmrD1NG0JdICBLAi3f00PmoCSq1evHix18FSjYBChQrZPffcYx07drQiRYpEjYP2IoAAAggggAACCIREQDtua7ft8ePHm4JZl19+uY95a9WqxQ6EIeljmoEAASzOAQQiJKDdWTZu3GhPPPGEvfnmm97yq666yvr06WM1atTw3Vq4IYAAAggggAACCCAQTwLasGjz5s02cuRImzFjhunfLVq0sN69e1uFChUo4B5PncmxIvAXAgSwOD0QiJCAvsx//PFHmzx5sqkW1r59+6xEiRLWq1cvrw+QJ08evuAjdD7QVAQQQAABBBBAIAwCmqRdtWqVZ1x9+OGHXhqjS5cudvfdd9t5553H+DYMnUwbEDAzAlicBghESEABrJMnT9pHH31kw4YNsxUrVnhNgFtvvdXuv/9+K1u2LCnWETofaCoCCCCAAAIIIBAGgV9++cXmz5/vNa82bNhgRYsWtYcffthat27NBG0YOpg2IPD/CRDA4lRAIGIC2o1QBdxffPFFe+WVV2z//v2+C6G+5CnmHrGTgeYigAACCCCAAAJxLqAJ2sOHD9uUKVNsxIgRplpYlSpV8p22mzRpYtmyZSMDK877mMNHIBAggMW5gEAEBY4cOWLvv/++DR8+3NauXWt58+a1Tp06eUF3zVilT58+gio0GQEEEEAAAQQQQCDeBDQ5+/3339szzzzjBdyPHTtmDRo0sH79+lnNmjW9xmu6dOnirVkcLwII/IkAASxOCwQiKKA6AVu3brUnn3zSpk+fbkq71k4tjz76qNWuXdsyZ84cQRWajAACCCCAAAIIIBBvAhrXbtu2zYYOHWozZ870chitWrWyhx56yMqUKcPEbLx1KMeLwF8IEMDi9EAgggJKtdb2wtOmTfPdWnbu3GnFihXz3Qi1Y4syspipiuCJQZMRQAABBBBAAIE4Ezh9+rQXcNeSQRVw16ZEXbt29ZUFhQsXZkwbZ/3J4SLwVwIEsDg/EIiowKlTp+yTTz7x2aolS5Z4fYDbbrvN7rvvPt+ZkGWEET0xaDYCCCCAAAIIIBBHAsePH/fSGCrgvn79ep+UVfZV27ZtLWfOnASw4qgvOVQE/k6AANbfCfF7BEIqoCysb7/91p599ll79dVXTXWxLrvsMl9GeOmll7KMMKT9TrMQQAABBBBAAIEwCRw6dMiXDj7++OO+UVGVKlXsscce+72Ae5jaSlsQiLoAAayonwG0P9ICWkb41ltveTH3r7/+2ooXL249evTwLYdz587NjFWkzw4ajwACCCCAAAIIxL6Adh184YUXfIftn376yerXr+/LCWvVqmWZMmWK/QZwhAggkGgBAliJpuKBCIRPQMXb16xZY4MHD7ZFixZZlixZPHjVs2dPX0aoIpjcEEAAAQQQQAABBBCIRQGtKNiwYYNPxr799tumf994443Wq1cvK1euHGPZWOw0jgmBJAgQwEoCHk9FIN4FtO3wd99959sOT5w40Qu7a7thFXNv2LCh5ciRI96byPEjgAACCCCAAAIIhFTg5MmTtnDhQhs0aJDXv9IKgm7dutldd91lRYoUYTVBSPudZkVXgABWdPueliPgAqp9NXfuXBsxYoRt3LjRChQoYHfccYd/8WtJIcXcOVEQQAABBBBAAAEEYk1A2VZaMvjKK6/Yk08+afv377eKFSt6Pderr77aJ2LZVTvWeo3jQSBpAgSwkubHsxGIe4Fff/3VvvzySxs9erS98cYbpmWFtWvX9iws1RDInDkzX/5x38s0AAEEEEAAAQQQCJfA6dOnbcuWLT4JqyLuul1zzTU+hlUhd+pfhau/aQ0CEiCAxXmAQMQFNHt14MABL+Y+cuRIL+auLCxlYOletGhRsrAifo7QfAQQQAABBBBAINYEtHzwo48+sgEDBtiKFSt8/NqlSxfr3LmznXvuuUzAxlqHcTwIJIMAAaxkQOQlEIh3Ac1gff755zZq1ChfTnjixAmrW7euF8BUFha1sOK9hzl+BBBAAAEEEEAgXAKHDx+2OXPmeAH3r776yipUqODLB5s1a2bnnHNOuBpLaxBAwAUIYHEiIICA79gSZGGNGTPGlxTmy5fPbr/9duvatSs7EnKOIIAAAggggAACCMSUwI8//mgTJkywsWPH2r59+6xOnTo2cOBAn4RVCQxuCCAQPgECWOHrU1qEwFkJKAtLs1fPPvusTZ8+3ZSWfdFFF3kW1pVXXmnZsmUjFfusZHkSAggggAACCCCAQHIKaPJ1165dXrz9tddes2PHjtl1111nffv29fpXGTNmTM6347UQQCBGBAhgxUhHcBgIpLWABgKHDh2yt99+25544gkvipkzZ06vg3X33XdTCyutO4j3RwABBBBAAAEEEHCB3377zXfPHjx4sJe/0G6D7du3t4ceesiKFStmGTJkQAoBBEIoQAArhJ1KkxA4WwFlYW3YsMGeeuoprymgLKxGjRrZww8/7GnZpGOfrSzPQwABBBBAAAEEEEguAe2avXz5ci/g/tlnn/mk6/333+9F3PPnz8+qgeSC5nUQiDEBAlgx1iEcDgJpLaB6Am+88YY9/fTTviNh8eLF7d5777W2bdsyIEjrzuH9EUAAAQQQQACBiAto1YAKuM+aNcuGDRtmO3bs8PHqY489ZjfddJNlz5494kI0H4HwChDACm/f0jIEzkpAWVdr1qyxxx9/3BYsWGCZMmWya6+91rOwKleu7P/mhgACCCCAAAIIIIBAWggE9a/Gjx9vL7zwggezateu7QEs7Z7NWDUteoX3RCB1BAhgpY4z74JA3AiopoB2cnn55Zdt3LhxpoyssmXLWo8ePax58+aWN29e0rLjpjc5UAQQQAABBBBAIFwCv/76q61bt85rtr7zzjtesP3GG2+0nj17WoUKFcLVWFqDAAL/S4AAFicEAgj8H4ETJ07Y4sWLbcSIEbZixQrLmjWr7+zSvXt3u/DCC6mFxTmDAAIIIIAAAgggkCYCx48f98CVVgusX7/ezj33XC93cfvtt1uhQoXS5Jh4UwQQSB0BAlip48y7IBBXAkrN3r59u02cONHvP/zwg+/o0rFjRx8cFC1alN1d4qpHOVgEEEAAAQQQQCD+BZR9tWfPHnv++ed9jPrTTz/55Grfvn194yHqX8V/H9MCBP5KgAAW5wcCCPypwNGjR+2TTz7xHQmXLFli2qGwRo0aPsPVuHFjX0rIDQEEEEAAAQQQQACB1BI4cuSILVu2zJcPapVAlixZ7IYbbrBevXp5yQstJ+SGAALhFSCAFd6+pWUIJElAtbCUeaUdCV988UXbtGmTz2o1bdrU7rnnHqtZs6YPGtKlS5ek9+HJCCCAAAIIIIAAAgj8nYCyr7766iubMGGCTZ061bOvFLS677777Oabb7bcuXMzLv07RH6PQJwLEMCK8w7k8BFISQFlXW3evNlTtF9//XUv6K7aAu3atbMOHTpY6dKlmelKyQ7gtRFAAAEEEEAAAQRMwSttMjR79mzfeVDjU02stmzZ0mu0VqlSxdKnT48UAgiEXIAAVsg7mOYhkBQB1cI6duyYLyV87rnn7IMPPjAVeNdsV/v27a1Vq1Z2wQUXMGBICjLPRQABBBBAAAEEEPivAgpe7d692+bPn2+TJ0+2NWvWeGmLiy66yHfJVmmLnDlzkn3FOYRABAQIYEWgk2kiAkkRUBBLmVfz5s3zpYQaNOhWrVo1u/vuu313QtXDYtYrKco8FwEEEEAAAQQQQOCPAhqHqqSFdh18+eWXfdfBX375xYoXL+4bC2lVgDYaYhzKuYNANAQIYEWjn2klAkkSCGa+5syZ40EspW1nypTJLr/8cuvatavVr1/fcuXKxcxXkpR5MgIIIIAAAggggEBCAa0EWLp0qT3zzDP+pzKvlP2vmle33nqrlS9f3jJnzgwaAghERIAAVkQ6mmYikFQBDRi2bNnitbCmTJliO3futDx58tjVV19tnTp18qLuOXLkIIiVVGiejwACCCCAAAIIIGDaUGjHjh02fvx4e+2112z//v1WokQJa9GihbVu3doqVKhgWbNmZezJuYJAhAQIYEWos2kqAkkVUP2rL7/80otnzpo1y37++WcrWLCgDyQUxKpatSpF3ZOKzPMRQAABBBBAAAEE7OTJk7Z48Z0cNtUAACAASURBVGIbOnSoffbZZ55p1bx5cy9hUb16dcuWLRvBK84TBCImQAArYh1OcxFIikBQ1P2jjz6yl156yRYtWmRHjhzx2gN33nmnF3bXLoXUIUiKMs9FAAEEEEAAAQSiLRDUYJ00aZKNHj3adyD8xz/+YQ899JBPnKp0BePNaJ8jtD6aAgSwotnvtBqBJAkohXvJkiW+M+Gnn37qWxs3atTI+vbt6zvCZMmSJUmvz5MRQAABBBBAAAEEoiug5YPK+h85cqTNnj3blxM2adLEevfubRdeeCEZ/9E9NWh5xAUIYEX8BKD5CJyNgAJWmglTPSwtJ9y+fbuVKlXKZ8VuvPFGy5cv39m8LM9BAAEEEEAAAQQQQMBOnTrlywcHDx7sk6UaW2rjIGX8n3feeQghgEBEBQhgRbTjaTYCSRXQwGLFihX2+OOP+1LC7Nmze0HN+++/30qXLk1ad1KBeT4CCCCAAAIIIBBRAZWoePPNN2348OG2bds2K1OmjD366KN23XXX+fJBbgggEE0BAljR7HdajUCSBVSb4Ntvv/VlhBMnTjRtc1ynTh3r16+fXXrppZYpU6YkvwcvgAACCCCAAAIIIBAtAY0xDxw4YM8//7w9++yz/vdLLrnEs7Fq165NqYponQ60FoH/JUAAixMCAQTOSkCDi0OHDvluhJod0zbHRYsWtT59+ngmVs6cOdkZ5qxkeRICCCCAAAIIIBBdAdW72rt3r40YMcInSZX1r8yr/v37W8WKFS1DhgzRxaHlCERcgABWxE8Amo9AUgR++eUXr0swaNAgW758uW9vrJ0I7733XitZsiQDjKTg8lwEEEAAAQQQQCCCAqq1unXrVh9fqoC7Ala3336711otXrw4E6QRPCdoMgKBAAEszgUEEDhrAc2QKfNK6d2TJ0+2gwcPeop3z549fVdCZWFxQwABBBBAAAEEEEAgsQKaIFWd1YEDB9rHH39suXPntm7dutk999zjxdzTpUuX2JficQggEDIBAlgh61Cag0BqCxw+fNjmzZvnad4bNmywvHnz2k033WRdunSx8uXLey0sBhqp3Su8HwIIIIAAAgggEJ8CmhBViQqNLb/++mvP6leJiptvvtnOOeec+GwUR40AAskiQAArWRh5EQSiK3D69GnbvHmzF3OfNm2aHT161P7xj3/4VscKZBUuXJgdCaN7etByBBBAAAEEEEDgjAQUtFJ2/5QpU0y7EV522WXWt29fq1u3rper4IYAAtEVIIAV3b6n5Qgki4CKuWtwsXDhQhszZoytXr3a9LMrrrjCa2Fp0JEjR45keS9eBAEEEEAAAQQQQCCcAho/njx50t5//3174oknbOXKlZY9e3avf6UlhKVKlSKrP5xdT6sQSLQAAaxEU/FABBD4bwIacHz77bc2ffp0mzBhgtfFKlCggLVp08aXEir1O2PGjAAigAACCCCAAAIIIPCnAirervHk888/b6+++qodOHDAypYt68sHmzVrZrly5SKAxbmDQMQFCGBF/ASg+Qgkl8CJEye8BpZSvufOnWvHjx+3SpUq+YyZtj4uWLBgcr0Vr4MAAggggAACCCAQIgFNhv7000/27rvv2rhx42zNmjWefaUx5AMPPOBjSpYPhqjDaQoCZylAAOss4XgaAgj8bwENPA4dOmT//ve/bfTo0fb5559blixZrGnTpvbggw9azZo1fRtkbggggAACCCCAAAIIJBTQ0sFVq1b5ROj8+fPt2LFjVrVqVbvvvvs8iJUnTx6yrzhlEEDACGBxEiCAQLIJ/Pbbb75bzGuvvWaTJk2yvXv32gUXXGDdu3e32267ja2Pk02aF0IAAQQQQAABBMIh8Msvv9imTZts8uTJXo5C48d8+fJZ27ZtrVOnTr45kHa15oYAAggQwOIcQACBZBXQ0sEVK1bYqFGjbPHixf7azZs3t969e1vFihUZgCSrNi+GAAIIIIAAAgjEp4Cy91X3aufOnR64UgBry5Ytli1bNt8MSNlXl1xyiS8lTJcuXXw2kqNGAIFkFSCAlaycvBgCCGgw8t1339nEiRO9COe+ffusQoUK1qNHD08BV3F3bggggAACCCCAQCwKaByjGwGTlO8dWSvb6q233vJx4xdffOE7WdeoUcM6d+7sZShUQ5W+SPm+4B0QiBcBAljx0lMcJwJxJKAsrKVLl/oWyB9//LHPpGn3mKAIJ2ngcdSZHCoCCCCAAAIREFDg5NSpU6ZNaVQSQXU8dU+fPn0EWp/6TZT3wYMHbcGCBTZ+/Hj79NNP3b18+fJ2++2324033mjnnXce9VNTv2t4RwRiWoAAVkx3DweHQHwKaACibZBfeuklmzBhgu8qU7p0aS/mftNNN3khTgaE8dm3HDUCCCCAAAJhElAg5fTp074RjcYuX331lR0+fNjrLmnnO2UAMWZJ/h5Xkfa1a9d60XbtPKjJzxIlSnjN1FatWlmpUqUsY8aMZF8lPz2viEBcCxDAiuvu4+ARiE0BDQY1EPnwww9txIgRtnLlSh/8KRX87rvv9noG55xzDoOS2Ow+jgoBBBBAAIHQC2iyTcXDf/75Z/vmm2/ss88+8xqeGzZs8ABWlSpVPAvoqquuskKFCnkwhVvSBTRGlPvGjRvtlVdesTfffNPLTRQuXNgnOe+44w7PwsqaNWvS34xXQACB0AkQwApdl9IgBGJHQEU5NThRJtbu3bu9/pWWEmpwUr16dYJYsdNVHAkCCCCAAAKREFAARcsEFbjatm2bL11btmyZrVu3zusxaRmhbpkzZ7ZatWpZx44dPYh17rnnRsInpRup4NWOHTts2rRpPkbUWDFHjhx2zTXX2D333GM1a9b00hPcEEAAgT8TIIDFeYEAAikmcPLkSVuzZo2NHTvW/v3vf5vSxYsUKWINGjSwm2++2erUqWN58+YlNT/FeoAXRgABBBBAIJoCClQFd+10pzGJMqsUpNq6dat9/vnntnr1al8y+P3333tWUIYMGSxXrlxei0mPVQ0sTbh16NDh94Liegy3MxdQX6gPZK+i7TNnzrRNmzZ5Zpsy8xW8atiwoZeZoGj7mfvyDASiIkAAKyo9TTsRSAMBDVY0AFy8eLHvSKjUfAWxNDisV6+eDwjr1q1r+fPn96NjwJIGncRbIoAAAgggkMoCwU5/ChQFQaZgDBD8O6g7pX/rd8GfOtTg+cHYIXiOXk/BKtW0UpaV7hqH7N+/33bt2mVbtmyxL7/80v9UZrh+p8dqcxlliWvX5MqVK9uPP/5oS5YssT179niARWMVjVkUYNFSNx0PY5bEnTRBXx05csSDhbNnz/Zlg6o3pt9Vq1bN7rzzTs/QD2wT98o8CgEEoihAACuKvU6bEUhFAQ1OfvjhBw9iKV18+fLlduDAAQ9iXXbZZda+fXu7/PLLLV++fGRipWK/8FYIIIAAAgiklYCW6WkHOtU+0lI+ZT8FgSmNGxSIShggCoIgQSDrj8etxysQpdfR6+o1tYGM7gpGKcNKmVcKZB09evT399MywaJFi1rVqlU9C+jiiy+2Cy64wMctCrLMmjXL62Opbqd+p+LiV1xxhe+OpxpNFHf/+zNIAUX1geqhKnj1wQcfePBQQcNgx8EWLVrY+eefz46Df8/JIxCIvAABrMifAgAgkPICGrxoMPnJJ5/YjBkzfMtkDWY0INRAUNslKyNLQSxmNVO+P3gHBBBAAAEE0kpAY4LvvvvOAxma3FImjgJaQZBKv//jLWHGVcJAVzBm0O/1PL2Osq60kYzuWrKmwJZ+FwTFtCxQy9RU0kDZVjVq1PC7dsDTOESBFWWLK1Pr9ddf9yCWgl8KdingcuWVV9qll17quxQqg1xjGT1HwSzGMP9/zwXF2oO+1pJBLdnUeFDBPy3NvOWWW+zqq6+2YsWKuSE3BBBA4O8ECGD9nRC/RwCBJAsEA09tUa0tk1977TV77733PIiVM2dOq1+/vqePK4jF7oRJ5uYFEEAAAQQQiEkBjQeUFTV//nwbN26c/ec///GAk24JlxAGQaq/W1YYPC5orF5fgaQgM0p/KjCigIkyv1WIXYGnihUr+l1/17I1jT1U2yrh+ykApjpZCmK9/fbbnjWkm4JcCnZpuaFeo2zZsp61pZ0Kc+fO7e8V9R0LFSxUEFBLNd99912bM2eO7+6oDDkFD5XtpuBVo0aN3C2hfUyeuBwUAgjEjAABrJjpCg4EgfALBDWxVq1aZVOnTrV58+b9nonVpEkT69Spk+8+o0EmtSXCfz7QQgQQQACB6AhoDKCghrKxX3jhBZ/IUpBIO9DpriDGH5fkJayDpefrMX/MxtJjgp8pcKQd7LJnz+5BKQWbFCApWLCgB6+U6aPlf6p3pd8rG+u/FWUPjnfjxo02d+5cH7OoALmOWTcFqhSwUgBMAS0Fw5ShpYCWliVqk5ogmBWVzCwFrhSk0gSlJixl9v7773vwT7+TfePGja158+Z20UUXeT+wDDM6nwG0FIHkECCAlRyKvAYCCCRaQANC1Z9QEGvixIk+C6taExpgakCjIJZqUWjQRxAr0aw8EAEEEEAAgZgW0FI+BYAUvJo+fbp/9yvApDqYF154oQd8dAsCShoDBMGphOMB/UzBkIS/Cx6rgJQCWAqIKUClLG9NiunfWgIYBKzOZHyhZYgqAK/Am4JuWganJYUKxqlNQWBN76uAjIJYVapU8XvJkiW9tpOOQ79XgC1hwOZMjiNWOzcooC8LFcXfvHmzLV261Md3ymBTTTLZK8CncZ7qXSnIpyBjGNofq/3CcSEQVgECWGHtWdqFQAwLaLCj5YQq6Pnyyy/7IEcDQc3MqUBq69atfQCogSY3BBBAAAEEEIh/ARVSVybTc88957vRKaCj7OuOHTtapUqVPKDx34I7CXcgTFjI/Y+7E+r5wXK0oCZV8KcEzyZgEtTX0rhF9bp07F988YUHarZt2+YF4hWk0VJIBda0ZFHBMwWztLSwdOnSHrxRlpaCWQraaRmdgmp6bJCddTbHlpZnRVBsX3XHtDnP9u3b7bPPPvO6ZloaqtpX8pCFaozdcMMN1qBBA3dgkjIte473RiC+BQhgxXf/cfQIxK1AsJxQA53x48fbRx995Gn5pUqV8qLubdq08YFe1OtIxG0Hc+AIIIAAAgiYeYaSJqn0Pa/v+0WLFnlxdRXx7t69u11zzTW+FC/WAzhBIEuBKmUaaQfFnTt3ep2nTZs2+V07FqrGVxDMUjBN2UfKAlPReI1rihcv7gGtMmXK+FJDtV2/T5ihldAiVlyCTKtgmeCRI0d8V0cF9RSwUoba+vXrbc+ePV5MX+3Wkk3VN1Uf16pVy5dyUqydjwUEEEiKAAGspOjxXAQQSJKABkNaQqBdCbWkYM2aNT5bp0HtXXfd5QMe1ZaIlcFbkhrLkxFAAAEEEIiggII52tHvpZdestmzZ3uAR4GbO+64w9q1a+cTV/FUBykI5AS7Hio4pzYpmKV6WVo2p2CW/q3MLAV6NLbRTQGtoHaWDJR5rqCWlhrqriCXMreUnaWAloJACZcdBploqTUuSrgzpGpbqT1aPvn11197GxW807JQBe60u6ACk2qj6o2pxlXDhg19x0a1LdikJ7WOPYL/1WgyApEQIIAViW6mkQjEroAGgCruqUHtq6++6qn5GrDVqVPHg1jaoSYeZmZjV5gjQwABBBBAIG0EVBdJwY5p06bZlClTbMeOHV4PqmnTptatWzevfaVATbzf/piVpOCVAjtaZqj2q4aWglxahqhsc419goCWyiUExeAV+NFdwS0FtvR3ZS0lLHKvDCaNkxQI09+D4vfB7ov/LUD0334eBKkS7sCo9iiLSsFHBa20TFJ9pzGadhNU27REUJloCmzp8ToeBd8qV67sdc3q1q3rWWaqbaYgHIGreD/LOX4EYkOAAFZs9ANHgUBkBYIaChrk/etf//IBrgJamqnTTjUKYmm75WDmLrJQNBwBBBBAAIE4ElBQQ4GPWbNm+dJBBT0UZFFGTufOnT07R4GbeMq++jv+IDtLwR9lIykrSQYK9ihLSTWzgqWG2qlP2VkK8imgpQCPglEK9igYpECfAkIKYMkpCFxpPJQ/f37/uZYeBnfV1dLjFBALsrZ0PPJNWGtLbUgYTNJ763HB0r6EGWUKvimrTJlWqnGltigIp/YFx6vjUeZYhQoVfLxWu3Ztr/ulWl/B+/6dG79HAAEEEitAACuxUjwOAQRSTEADJ81IqobCa6+95kVeNUjSwE1BrNtuu81q1qzpg7QwDXRTDJQXRgABBBBAIA0F9L2uzB3Vu1KJgGXLlvnRVKxY0Semrr/+ei8REObv9IRLDRWk0jgnWIKnulHKaFJQS5N2ytAKAloKfClAFDxfQaCgEL2CRvp3sNti8KeCVxoz6a4gVsLsLP1dBfL12IQZW3otvY+yqPReCorppuwxTSoGyyBVoF27RwdBK2V/KatKGWIqyK4sKwWvVNdLP9Ox6L3IuErD/4C8NQIhFiCAFeLOpWkIxJuAZiK1PbXqZLzzzjs+y6eBkIJYqpOhZYX6d7BjT7y1j+NFAAEEEEAg7AJB0fZVq1b597l2Gtb3uYqXa0JKOw2rJlJUN2lRMEvBIAW0FDwK6mcp20mBLdWY0l1F4lUkXQEtPSeooxVkruvfQZAr4TJCuQaZT8GujAoo6R4EDPV43fS6GntpGaAyuhScUm3SYFdFvX7weppE1NJGBaq0q6CWCqpIuwJfGpvpccHrhv0cp30IIJB2AgSw0s6ed0YAgT8IBDO22qno5ZdftuXLl/vWzJpNVPDq1ltv9d1sVBOCegqcPggggAACCMSWgL7HFXBRIfOJEyfanDlzPLNIGTs333yzdejQwSpVquQZQlG//VkxeAWTlO2koJZ28wtqZ2lZnwJeqkmlxyggqOCX/q6f6Xd6nuyDQJcm+4JgVzDxp9/pHgSagn/rz4TF4vV7LQ1UUEtZVVoSqEwrBa+UdVWoUCHPig8yutSXZFxF/Yym/QikjgABrNRx5l0QQCCRAhpEKWil7ZhVD+v999/3GhIqYFqtWjVr3ry5706o2VvNFDJgSiQsD0MAAQQQQCCFBRRACWpaTp8+3QMwquXUoEED69Kli9e/0nI2vrv/vCMSBrWUFRXcg5payphSwErBKgWwFMhStpSytVR6QRlb+rker8fq+Xp8sCxRP9M9uAXBMj1eASxlUmmSUJlV5cuXtypVqvh4S5lXCkKq7/S4qGbPpfB/H14eAQQSIUAAKxFIPAQBBFJXQEEsBa3WrFljU6dOtQULFvjgTDN9mv1r0aKF3XDDDV5zgSBW6vYN74YAAggggMCfCShYorpJM2fOtBkzZnjRb31HK3NawavLLrvMC3sTvErc+RPsDqhHB38PAlzBn8FyRNkrC0t3Bav07yCApeythD/Tz/V8Ba3Wrl1rb731li9ZVLZVs2bNPNiosZayrBS0UrZckPVO3yWu73gUAgiknAABrJSz5ZURQCAJAhpcaRZRhd1nz57tNTRU8FS75aiOhgJYCmRpKYKys8JcCDYJjDwVAQQQQACBFBXQ97UCJtphb9q0aabMK31fK+hx4YUX2p133mnXXnutB6/4rk65rvhjcCsIfAXLBIPfBz9XAOu9996zYcOG+U6DyrTq1auXF9gPaloRsEq5/uKVEUDg7AQIYJ2dG89CAIFUENBgS6nv2r5ZgywNir/88kufVVSKe6NGjeyWW26xWrVq+RIFUtpToVN4CwQQQAABBBII6DtZwStlXSlrWt/ZyphWkW/VvFLw6rzzziN4lYZnTcJsruAwFMBShvuAAQNs/fr1Xttq4MCBXqpBE4PcEEAAgVgUIIAVi73CMSGAwO8CQZq7tnV+9913fWmCUt4V2FJxd9XTuO6667zIuwqNatCl4qPMGnISIYAAAgggkLICWpqm3fOUKa3glf6uLKuqVata27Zt/ftZ3818L6dsP5zNqytrbuHChda/f39bt26dB7D0d2W3q4A7NwQQQCAWBQhgxWKvcEwIIPB/BLR0UDUaPvzwQx8kq8i7ir1ny5bN097r16/vGVkaNCs7Sz8Pdt2BEwEEEEAAAQSSTyDYbVA1rxS8Uoa0srAUvFJ9SmVeqZ6SgldkRyefe3K+koKP8+bN86wrZberPIOysZSBRQArOaV5LQQQSE4BAljJqclrIYBAigkEW0FrO+7Vq1fbG2+84TsUatcd1XdQNpaKjl588cVeKFY752jXHDKyUqxLeGEEEEAAgQgK6DtXNSo3bNhgc+bMsblz59o333zjEqpLqcwr1VHSTnZB8e8IMsV8k5XJ/vbbb9ugQYO8BlbZsmU9gKUlnywhjPnu4wARiKwAAazIdj0NRyA+BRTIOnLkiA+2VLtBxd31d/1MN80ali5d2mrUqPF7IEszwPo5u+jEZ59z1AgggAACaS+g719lQ//www/26aefevBKWdHfffed7zZYsWJFa9OmjWdeXXDBBV4Hi1vsCmjHQvXh4MGDvW6ZAljKxmratCkBrNjtNo4MgcgLEMCK/CkAAALxJxDseKQlhWvWrLEPPvjAlxRq16ODBw/60kEFrDT7W716dQ9kVatWzQfUytTKkiULxWTjr9s5YgQQQACBNBLQ9+7Ro0c902rJkiUe+FA9Sn3nKnil71plXjVp0uT3ZYPUokyjzkrk2yqApeWfQ4YMsa1bt1q5cuV+D2Blz549ka/CwxBAAIHUFSCAlbrevBsCCCSjgJYxKPNq9+7dXoD0o48+spUrV/4eyNKAO2vWrL77kWaGL7roIt/Su0yZMpY/f36fYVRWFtt6J2On8FIIIIAAAqERCCaMtFz/888/98xnBbCUsaMi4PourVmzpt14443WsGFDr0FJ5lV8dL8Ckm+++aYNGzbMi++XL1/es7EaN25sBLDiow85SgSiKEAAK4q9TpsRCJGABtfBzLAysr744gtbvny5B7M0IPv555/99wpUKStLKfKaKVatLNXqUJ2sICuLWh0hOjFoCgIIIIDAWQvoe/P06dO+WYq+S5cuXep1JzVZFGQ66/vzqquu8l3rFMRSMIvNU86aPNWfqDpm2hRnxIgR9u2333rtUNXD0oY42giHGwIIIBCLAgSwYrFXOCYEEDgrAQ22lRK/b98+31FHywpXrVplmzdvtv3795sKlmorb80sapZYtbI046gdk/Snlhjmy5fPl0Ow5fdZdQFPQgABBHzSINh4I/i7WBIGN/T3IPuVpWaxc9Ios1nflT/99JNnM6vW1bJlyzz7SpNE+p7VZJC+N1UrSdk6+rsymslmjp1+TMyRaIJvwoQJNmbMGN8Qp1atWh7AqlOnjmevc0MAAQRiUYAAViz2CseEAAJJEtAAXNtDa8dC1XVQnSwFsrRj0q5du+zYsWO+c6EyrjTLWLBgQa/9oMGbsrNKlChhhQoVsly5cnkwK7i44iIrSd3iF7S6yV6z+roQUkHgU6dOeV2yIHiIc9KceTYCaSUQBKs0kaD/47pA1uet/p8HASsFOfS5qs9eBUJ0oax7sJyboFbq917CTObge3PFihX22Wef/R640ue2+k2TP5deeqnvVHfJJZf4v/VzbvEloD5X8f3Ro0fbSy+95JN/Ckb279/fa4bq/yM3BBBAIBYFCGDFYq9wTAggkGSBYECuGh1a7rBnzx776quvPJClJRAqRKusLNWA0E0D8Dx58ni9LNXIUip91apVrXjx4la4cGGfXdZjmGE+u67RxY8CVvJW7ZS+ffu6vy5q9TtlwP3zn//0ZSgJg4Zn9248CwEE0kJAwWhlcqxfv94/azdt2uRBLP38jwGsvHnzWoECBaxIkSJ+10SC/q27AlvKlA2CWgS1U643g519VUtS/aaMK/Xd9u3bPQtLfad+0HJBBTauuOIKz9BRBrMmeZStzC3+BPS9q/+fqnmlQu7qx1tvvdUeeeQRH/fQr/HXpxwxAlERIIAVlZ6mnQhEXCBYXqjtv7UsQksM//Of//jyQtV+0EWXgl26UNJgXdlA2sVQmVkq/F65cmVfYqiLLgWzVKRWwSwurP78xAoCiHJXNpwuYnfu3OnBw48//tjmzp3rBfiDrCy5PvDAA9a1a1e/gMU14v9haX7cCej/spZvv/feezZ9+nTbuHGjZ8EqAKKL5YTB/+CzU8FqfZ4qEKLPgGBpt4IjpUqV8skDfRbrMUFASzDUWUra6RF87mqpoL4TtZugalypfqTqXR06dMjfQJlx6gPVi9RuvrVr1/Y6kprsIesqaX2Q1s/W97KClcq40neyaoHec889PpHEd3Ba9w7vjwACfyVAAIvzAwEEIiOQMCtLmUC6uFJQRYGs1atXe4aWUuqVsaVgVrDURYVpS5Ys6cEs1frQXcsMdcGlTIGgZlZkIP+iocGSQC0b0uy9PIOAoWb3FTBUsDBYxhlcSOlCqVWrVvboo496BhwBLM4mBOJLQJ+Zqjv49NNP24cffugZlwo6BVmWQQAr2NVOgS19Xii4FdTL0lJiLS1UgERZWfqcPf/88z3bR3dlASmgpc9dPVavSVbsmZ8nQY0rbXqiwJX6S9k4Kuqt/lDAUBM4yrjSMkHt4Ct/9Ysmb/h8PnPzWHuGgpRz5sz5fQdCBYyVfdWyZUvvf/o41nqM40EAgUCAABbnAgIIRFYgCLYoYKVAi+plKWtAxWq1zE3ZBMocCuq3KMgSZGb94x//8ECLglq6yNLFlrIIgouqsA/+gsBTsFOVZnPlqGWBCgrKUsGqbdu2ed0xzfJrwKyLWl0AySpnzpxed0O/0+3yyy+3Pn36WL169diGPbL/K2l4PAroc0AB69dff92eeuop03I0fSZqNzMFQoLlg/pTnwEKYOuzQnf9/1e9LGVk6q7PhCBjK6hTGCzv1kW27ppQ0DInZYrodwqUBRMJCYNaYf8cTsy5krCgvoKM8tb3m+pbqTi7JhbUdzJXFo5stUuvDbZJGAAAIABJREFUsq20lF7L6vVzAleJ0Y6fx6iswosvvmjPP/+8j3NU10xL+/n+jZ8+5EgRiKoAAayo9jztRgCB3wWCAb5mpTUDHQSzFMhSZpZmppWtFWQNBZlZumjS4F5BLNXL0my1Alu6qAouqMKWHSArBfSCi1AFpRTo07ITOemuoJUMNSjWBZMujHRTcE/ZbKp3pVpXCvwp0KXlRrrg1RJNLWFo3749Sxj4/4lAHAno80DZPKNGjbJZs2Z5RpVqJWlZsD4bFfwIgt5qlj5D9FmroLeCJ/p81WeAPkeCZd0KaimYpc8QPVefpUFAS58jysxSEEv3YBJBn71BhpYyufS+QeAlasGsINNNkwsKDMpYtR+1bEyZcso4VgBRvsq4kaOCGA0aNPCMKy3nDDLoomYXR//1zvpQ9V39xBNP2BtvvOH/H1u0aGG9e/f2DPOwjVvOGoknIoBATAoQwIrJbuGgEEAgrQSCjCIFs3RxpfpYmq1WZpYG/ArOaAmcLgg08A8CM8oC0EWUglm6K5ClDARdaOl3wVLDoPZLvFwQKPiku9qqi0kFpXQhpGWBwV0XRXLSxZAuSoOCzSoCq4tILbXUxaZcNKOvu7Io9Du56qJ34cKFbnnllVdaz549rUaNGn7xxA0BBGJbQJ+Z+lzQciQtH1R9QdVN6ty5s3Xs2NGD/H92Cz5bgs+XoFaeMkOUxanPFH3G6PNFWZwKdAWfL3qOPl+UdaXPCWUI6XNWASwtM9R76vNXQZiEReEVRE84uaDPYR2/XuuPyxET1tn64+d1rHx+J8yE1d/12RtMxARL5GUZOOpPWSo4qKCFsorlpWyrhg0ber1HTSQoO5Yi3rH9/y4pR6dzRZNzQ4YM8Zp1+j9x1113+QSS+j9Wzu+ktJHnIoBAeAUIYIW3b2kZAggkg4AyC3RBoAs0XVgpQ0AXaAq8KJiln+miShdfGvBrtl8XU4UKFfILKA0GtdRQhW8VxNHPdXGg4I2yCf7qIikZDj9RL5EwM0JP0MWhLm7UJmVYKTCli0m1V3cZ6EIoqGUVZFklzExTOxXQU7t1l4EstNOYZvuDLbq1nGXSpEk2btw4v7DSBeedd95pt99+++9LjxLVCB6EAAKpLhAE/Dds2GDPPPOM72am+oJ169b1enZajqTPusTeggxPfaYo41WfP8rm1OePMrN012fP3r17fYJBQXUFbfS84KJbQS0FZvQ5q+C5MrJ0DyYTgr/rMQpo6TNbx6i7/h0sRQwCZAmXJga7IupnCXel/eMFf5AxpnYnJRgQZAcHfkE2a5AFGwSs5KDvIbkoYKXPaE28yCpYvq3Pcz1eNwUs9BldvXp1z7hSf2lSQRMtZN8k9myN38dpXKPloyrgrow8/d/o0aOHZz/r70k5Z+NXhSNHAIF4ESCAFS89xXEigECaCSTcUU/BLF1UBVlIQc0s/algVpCZFczmBwEtBW4UwApquGi5hrIUdIGlgJcuKHTxFFwgJfXC56+wEs7a60JI9yDDShdBugfLTRSw0oWQsiAUsNLvdLGkAbBuQZaVsh8UoFL9FAWrlIGmv+siSb8LAnZ/3LlRF1QrV6600aNH27vvvuvHUqtWLXvwwQc9G0vPYzCdZqc+b4zAXwoEOw9qGdLYsWM9wK3PM2VeKZtDmVBnm8mT8HM3WAanzCF9zurzaPv27f6nlh4qO0uTDPps1mP1ORI8X585QTAqYdaWPmt112e0glnBZ7D+HQSt9Kc+g/S7IMgVBMZ0oZ9wR9ogiyuYlNBrB4Eu/S6YsPjjZ3vw+ZZwp8agPqM+l3VXm/Tdo7/rT33PKICnNge1xPT5rHsQsFIAMAjuBe1WgEp9omWdWsatjCsVZ1dNQmpcRec/u77DlTE5aNAgD3bqu1v1r2688UYPYvKdG51zgZYiEI8CBLDisdc4ZgQQSFOBYMesIENJF1SqJxFkZunCKljuoouI4GJKF1K6ENLFgpa1KLijiwllKqnQsbKPdFGkC6SgdouCWkFWQGKytRJmIggpCFYFy3R0QaPjVpaELoIUkNJFny58dCGoLChdECnrQbP5ukAKLoT0eroI08WeLlIVgNNx665glYJWCtIFS3Z03Lpw+qvBsI5P7/fWW2/ZmDFj3FED6Ntuu83uvfdetznbC+A0PUl4cwRCLqD/u7oQXr58uT377LO2aNEiz96sU6eOPfTQQ14D60yyr/6O648TCfrsUkBLn7Wqw6fPL931eawgjn6WMEtLn30KvOvzOLgFn5cJP1sTBpiCn+vzOMiwDYJa+hxX+4JgVxAQC5Yl6vMvYbatXiMIYum7IMimSrg7Y/DeOk59RuuzV/fg7/rs1l3uwV0BLbUt2NVRr6HX1LEpwKbPY30uBzXDVONIkwz6vgm+a/7Ont+HR0DnvP5fTJw40UaOHOmTVarfqWCWsvGS8/9seNRoCQIIxJIAAaxY6g2OBQEE4kogCA7pgkgXE0FB8+AiStkByl7S8hddTOliK8gO0EVOMCsf1HBRlpbuWuKiCwtdICmgpUBRUBj+j0GhPwsOJQxi6SJJF0PBUkBd2AUXdwpaBVkLGtDqMbpQCp4TZAToAi1YFqmZWmWRKVilmXtdFOl3CjoFF3N/vBj8q04NlgzJSQGsmTNn+uBaA2oVlL366qv9tbkhgEBsCShgouyN8ePH29SpU/3zTZmlXbt2tVatWnlwPqWWoyUMzAfL6fTZqmCPAltBUEufu7pAV5Bcf+rzTr/X51yw/PCP2U763Ev42a7Pz+BzNpiM0GOCnRWDXvljW4PP+IQB+OBnQfAqeN2Ey7iDnwXBtiBwlzCrLGGQLWGGWcKagwr+K1ClyQV9buu7RJ/VCmrpe+RMPqdj68zjaJIioHNPE1SqVzdhwgQfkyjbuV+/fp6RFyzvT8p78FwEEEAgJQUIYKWkLq+NAAKREkhYvyXhzk8KaCkrK6hJogyBIEMrYQ0XYWnwGAS2gpl+BXAUzNKFh4Jdf1zqoQuYhLVSgn/r9YKLM120BUXWNWMf7O6VMDtMr6H318WN3kvvqTpeCljpQkgBq6COVbAsMDiWpF6oKhtMhdxV0F1LChXAu/XWW+2+++7zYFlSXz9SJyKNRSCFBXQRrAxN1bxSAEsbXOhz6oYbbvD/s8ry0edIat+C4JP+VIAt4fI7fcYkzGgKglhBvS39O1imp89FvYY+x/XZqZ8HATIF2BM+VoGmhEGuIEM3eI2gWL3+HQSNEi5vTLikO6idFTwu2HkxyN4KsryUBatglf4MitdrokMTIMqsUlas/q4l6uoX9UW8bSCS2udOVN5P56pKHgwdOtSXEeoc0nftww8/7AFovmujcibQTgTiV4AAVvz2HUeOAAIxKJBwJl2HFxREV8BIFz7KAlAAS1lZwV1FdzUjquwAXUwFGQXB84NmBhc1f7cjVsJj+GO9q+A1guUwujDSxY1m5jVDr4sf7UqlzCoFq/SnfqassGD3ruD9k7NOhtqsjDUtRXr11Vc9wFa5cmXPwmrSpIkHtLghgEDaC+gzRUGdDz/80LMmP/nkEw+gq3bdA/+PvTeBu7Fc2//PXSKNhMxkKFOmDJmnQpIyhRIyRSlpfqv9/vau3a52aCIViSihiChjMkQhM5Ux85wxktrv///5nu97tZ9tN3hYj2fdax3357M+z7See13X97rWep77WMd5nPfd524OBPBYvj6cyqxPfC0+8bUwvOGQUmAKAlgQm7jYD/mAfI4Axus4YlgowQ5iVihNDK/f3De8WYD4xe8H51Z4nCBYMb8wPrgFoQqO3BCp+IgYxY3XYm58zmsjr998RIzgjQ9e11PmDab3WpzK+ul30oYAf1tnz57tJYMLFizwKIO7777bm6fg9NZeSRvuOqsIiEDsCEjAih1LnUkEREAEfpNAyjKQkEPFRSCiFSV9uLQQsXBJcYEUbuE+4SIphKeHEhQeMGWeSkqxKwhgKQN8Q7t53p3HXcWFETe+5h9ZRCycV1wYhYuhECyflv/YwocLwo8++sieffZZf4eYCzbeGb7jjjvSzdGhLS0CIvAvAiE/Z9GiRTZkyBD7+OOPXczCpdmtWzdr3bq1C95Rc3GcKHalXPPwWntiKR+vxSF3Kritwn2COBZyt8IbGSkfJ5Rop3TPhtfY0AQkiFF8DIHzIY8rCFThvr/1Bof2rwikJMD/G8OHD/c3i3jzjDeKHn30UWvcuLHK9bVVREAEIkFAAlYklkmDFAERSEQCKS+IeIc+dJjiXXsEK26h9I9/OhG7QmBvKP1LKSrxeXiHn3OHn4VOiAhWIWMLIYsbZShB4Ep5YZQevJnTmjVrrH///jZ69GifL/ktbdu29QtjLpLVKSs9VkaPKQL/6yZFWEe8GjZsmJf84ijFndmsWTPr0aOHFS9e3J+jOv7lqIJFytfjwObE7/3a1+ENCvEUgVgQQFBdvny5h7cjPiPCXn/99e50LleunPKvYgFZ5xABEUhzAhKw0hyxHkAEREAE/pjAiWV/IUclBKqfmM0SOl2FEpRfexc/PCrv0PMOPo6qkKUS3rUP90lLd9Ufz/5f90CwmzVrlpcmzZ071y+ayd9q3769t/gmmDhq7o7UzF/3FYF4JMDzkJB2ygVxb9BxEDGLsrVrrrnGXZJVqlTxsrZ4eS2JR44akwikFwH+RyB7c8yYMda3b1/P5aRkEOG5Y8eO7sjW39b0Wh09rgiIQGoISMBKDS3dVwREQATSkcCvlbn80bv4DDdlzko6Dv+kHpoLZbojEg5NhyTCoRk/7w5zkXzDDTe440P/aJ8UTt1JBE6LQBDSeU6Sl4N4RfYVHUspPa5Vq5Z16NDBatas6V9LvDot3PplEUgzAritlixZYi+++KJNmDDBszbJrcN9xfMXN7aev2mGXycWARGIIQEJWDGEqVOJgAiIgAicHoFwwUzA/bhx4zzQnbJCnGM1atSwu+66yz9ysaxDBEQgbQlQckTTCcoFx44da/Pnz/eyZsqPGzRoYLfddptfBCMqc+gCOG3XQ2cXgVMlgPvq3XffdXfzhg0bvFkLwe233367N2vRm0KnSla/JwIicKYJSMA608T1eCIgAiIgAn9IgDww/skma2fEiBF+Ec1FMx3Ounbt6hfNlCvpn+4/RKk7iECqCSAkk8u3fv16mzRpkpcdrVq1ynP6aPRA2WC7du38eUgZoZ6HqUasXxCBM0YAt9VXX31lzz33nI0fP96bD9StW9ceeughL/3FfaVDBERABKJCQAJWVFZK4xQBERCBJCLABXQoeRg0aJC7scjcQcS66aabPNi9fPnyfvFMCL0OERCB2BH44YcfbPXq1fb+++/be++9593KuOjFtXHdddf98vyjW6lcV7HjrjOJQKwJ8LeU5zNC9FNPPeVCNI7JO++80zuH0n1YAnSsqet8IiACaUlAAlZa0tW5RUAEREAETpkA/3h///33nr2DiDV9+nTvTEgnxWrVqlnTpk29nDBv3rzqTnjKlPWLIvAvAjg1eI6RlUMO3eTJk23r1q3+/CpSpIhn0DVp0sRKlSpl559/vi58tXlEIM4J8HcUB/PgwYNtwIAB3oyhbNmy9vjjj1vDhg29uYsOERABEYgSAQlYUVotjVUEREAEkowA/3xzQU1HwoEDB9rs2bPtyJEjlilTJitRooS7sRo3buydCrmglhskyTaIpnvaBEIHUzqdbtu2zebNm+fiFR/JzeG5htuxZcuW7r6iEyjf03PttNHrBCKQ5gQQpRGk//GPf7gLC7dVs2bN7MEHH7TSpUun+ePrAURABEQg1gQkYMWaqM4nAiIgAiIQUwJ0JkTE4oJ69OjRNmvWLNuxY4f/I547d27P4+HimotsSiMoKeTiWhfYMV0GnSxBCZB1tXfvXlu5cqWHtX/yySeefUXZ0UUXXWQVKlTwksE6der48w03lp5bCboZNK2EI3D06FEvwX/22We9qy9lwD179vQGDJQP6hABERCBqBGQgBW1FdN4RUAERCAJCeASOXTokHcknDhxot/4HNdI1qxZrWLFih7wfvXVV1vhwoU9KwuXSMpsD110J+HG0ZR/lUDImOM5tXbtWpszZ46X6C5dutTFYg7EKoKeW7Ro4c8vSneVN6cNJQLRIcDznDd7XnnlFXcw83yn8QLlg7Vq1fJGKDpEQAREIGoEJGBFbcU0XhEQARFIUgL8M06QNGVOXHCPGjXKvvjiC/+nHFcIF9hXXnmld1XCNYKQhbhFhyV+zi1DhgxJSk/TFoH/JYCjkWw5sq3Il5s6dap9/vnntmvXLu88SDB7yZIlvTSXjJzixYsr70qbRwQiSIBGKF9//bX97W9/8zd9+PuHW/mRRx6xokWLSpCO4JpqyCIgAmYSsLQLREAEREAEIkWATA+CaBcuXOilEZQUbt682bsWIlIhWhUsWNBzsfiYK1cuL5sgM6tAgQLK74nUamuwsSAQHFfkxyFcLV++3J838+fPt02bNrmgRZhzvnz5rHr16la/fn13auDCUshzLFZA5xCBM0+A8sFPP/3UnnzySc/BomSQ8sEuXbr430m5ks/8mugRRUAETp+ABKzTZ6gziIAIiIAInGECXJBzMU5WDxfiuEhWrFhh3333nbtI+Mecd5u5+CbcPXv27P7OM1k+XKTLiXWGF0wPly4EQkB7cFwtWrTIGyEE4YoLXJ4LZF1dddVV3mGQzp6FChVyJ5YucNNl2fSgIhATArt377Z33nnHXnjhBXdY4qz885//bI0aNVL5YEwI6yQiIALpQUACVnpQ12OKgAiIgAicNgEuzo8fP+5urHXr1nl+DyVRCFk7d+60w4cPe8kh9+PAWcI/73yUq+S08esEcU6AUkFEXkpucSvixFi8eLG7Ffk+4hRZcTgTEa1q167tJbjZsmVTUHucr62GJwJ/RIC/e5QP9unTx8aOHet/K+ki+uijj7pYrTy7PyKon4uACMQrAQlY8boyGpcIiIAIiMBJEQjZWAhWlEetXr3avvrqKw+n/vbbb/0jzqwrrrjC/3mnhTiOEx0ikIgEeD6EzoLLli3zcHZcV4i8dBZEuGL/k4GDmFuzZk0rU6aM5cyZU66MRNwQmlPSEQivAZMnT7ann37aS4YRq7t27Wp33nmnl9TLXZl020ITFoGEISABK2GWUhMRAREQgeQmwD/t5GNxkU7J1N69ez2c+vXXXzcu5MnzIf/j9ttv95JC/QOf3PslEWdPDty+ffvsm2++sRkzZnh57cqVK73RAc8P3FUIudWqVbOqVau644rmB3Qjo2OnnhOJuCs0p2QjgPty+/bt/reP28GDB718kO6DNGZQeXCy7QjNVwQSi4AErMRaT81GBERABETAzC/WuZinrPCpp54y3om+8MILXbzq1auX5c2bVxfr2ikJQYC9HsoFKQ+kQ+e0adPsyy+/NDJwEHWzZMnijqtatWp5uSDCFYHOdOhEuNIhAiKQOAR4E2fu3LnWu3dvmzlzppfMN23a1B588EEXslQ+mDhrrZmIQDISkICVjKuuOYuACIhAEhDgop4Oa/wTP3ToUL9Q5594crBwoejCPQk2QYJPEfHq2LFjtmfPHhdraWZA1tXGjRs98yZ0FqxTp441aNDAypUr56WCfB+3lRxXCb5BNL2kI4BgTen8m2++acOGDfPwdsRr3ri5+eab1X0w6XaEJiwCiUdAAlbiralmJAIiIAIi8H8uLC7sX3nlFXv55ZeNjmsEVT/xxBNWqVIlfxdaF/DaKlEkwEUqmW80K1izZo03L8BxQfbbgQMHfG+Tc0NYM8LV1VdfbZdddpl35JRwG8UV15hF4I8JIGhTQjxp0iT/m0dDE7qM3nTTTS5glS1b1hs06BABERCBKBOQgBXl1dPYRUAEREAEfpMA/8xzMT98+HB79tlnPci9dOnS9uSTT1rdunV/caEIoQjEK4HQQTN8DBlvdBakRJBwdpxXOK7IueJApCpevLjdcMMNds0111ixYsU8tF3CVbyussYlArEhQPMGXhcQryib52teCxCvELEoJdabNrFhrbOIgAikHwEJWOnHXo8sAiIgAiKQxgSOHDliH3zwgYtWlBMWLlzY/vKXv1iTJk08uFr/zKfxAuj0p0wg5LjRkGD//v3emAB3xfr1691tRYMChCzybjjYzwUKFPDOgriucF/lypXLMmXKpH1+yqugXxSBaBAIJfOUy3PbsWOHP/9vueUW69ixo5cR4sbSIQIiIAJRJyABK+orqPGLgAiIgAj8JgHegZ4+fbrnXq1atcr/oSfItm3btnbJJZfowl57J24JkGG1ZcsWD2UPgewIWVu3bvUbJbFctFIuiHBFOHvNmjWtSpUqKheM21XVwEQg9gQQuxG46Tzap08ff72gVBAh++677/aSeZyZOkRABEQgEQhIwEqEVdQcREAEREAEfpUAnQgXLVrkuVeEWxNejXh17733WpEiRVRWpX0TlwQoFdywYYONHz/eRowY4a6rn376ybtr8rOUJYV012zTpo132KRckK9xWshdGJdLq0GJQMwJIGSvW7fOXnvtNXv77bft4MGDdvnll1vPnj2tRYsWerMm5sR1QhEQgfQkIAErPenrsUVABERABNKUAP/Yb9682fr16+cdmcgJItD64Ycf9nygzJkzp+nj6+QikFoCiK7bt2+3cePG2ZAhQ+ybb74xvkcpIPv14osvdpFq9+7d3mEse/bs7iqkTEiuwtTS1v1FINoEELMplf/444+94+7y5cv99YGOg927d7crr7zSXZo6REAERCBRCEjASpSV1DxEQAREQAR+lQCiFV2ZnnnmGS8j5CK/U6dO/s99vnz59M+99k3cEECoojyQ/frWW295QDsXqOzTChUquGuQboLkXr3zzju2bNkyy5Ejhz366KPWrl07D2uX8ypullMDEYE0J8BrBp1IeZNm1KhRLmaVKVPG36Rp2LChvyboEAEREIFEIiABK5FWU3MRAREQARH4DwKUXvEP/vPPP2/vvfeed2YiE+SBBx6wevXquaNFhwikNwEyr7799lvvHsaF6IoVK3yvUgqEm+K6666z3Llze5bNkiVLvDHBggULXMB67LHHvDRWAlZ6r6IeXwTOHAHE7T179nijkv79+9vq1au90yCvBXfddZc3LZH76sythx5JBETgzBCQgHVmOOtRREAEREAE0okA/+TjwiJPqG/fvl6SdcEFF1jLli094LZEiRL+T76cK+m0QEn+sOxPHFVkXk2YMMFGjx7te5QD5xVdxLggLVSokGXMmNHLCelCSGOC+fPn26WXXvqLA4vSIe3jJN9Qmn5SEOB1gzdn6Eb6wgsveIA7X1Mif//999u1117rnUl1iIAIiECiEZCAlWgrqvmIgAiIgAj8BwGCrxEFXn/9dXe3HDhwwNuK9+jRw90t2bJlU6C79s0ZJ4DDCnEVt9VHH33kpYO4sLg4xXnVrFkzD2EuXry4i1eIU0HAevzxx//NgXXbbbfJgXXGV1APKALpQ4B8xx07dtjQoUPt1Vdf9Uy8vHnzWpcuXbycGPH7rLPOSp/B6VFFQAREIA0JSMBKQ7g6tQiIgAiIQHwQSNlm/MUXX3TnCmIAQe64sHjXWuVX8bFWiT4K9iIiFMIVriv24rRp01yM+u677+ycc875pWwQAYsyILpnhiOlgBUcWJQQSsBK9J2j+YnAvwjg2sSJSXD7rFmzXODGdYX7qmLFiv/2miFuIiACIpBIBCRgJdJqai4iIAIiIAK/SQAXFgHZhGPT3Y3PyQ9q1KiRv2tdvnx57/SmEixtorQgEEp+vv/+e9u0aZMtXLjQZs6caV9++aU7KY4ePer5VldddZW1atXKGjRoYAUKFHBBK+WeZB9/9tlnFhxYoYRQAlZarJrOKQLxSYC/X4MHD7ZBgwb560exYsX8zRhK4/m7pr9j8bluGpUIiMDpE5CAdfoMdQYREAEREIGIEDh27JgtXrzYBg4caBMnTrTDhw9brly5PGPo9ttv95whBAMdIhArApT64Jrat2+flwfSOZDcGoSrbdu2uXDFnkOIql69ut10001WrVo1//rX9iIC1rx58zwD64svvrCcOXPaI4884mVDysCK1arpPCIQnwQQwik9xn317LPP+kfEqqZNm7r7ig6E+hsWn2unUYmACMSGgASs2HDUWURABERABCJAgH/+Ea1wvpAbwj//lGKUKlXKunfv7hcBCAfKDonAYsb5ENlrdBakLJBSQcQm9tvy5ctt165dhpiaIUMG7xpWtmxZq1+/vtWtW9fLB2ky8Ft7MKWAhRBGftujjz5q7du3946acl7E+cbQ8ETgNAjwuoLwjfvqtddes71791rBggXtoYcestatW+s14DTY6ldFQASiQUACVjTWSaMUAREQARGIEQEcMQgIBGa/8cYbtmTJEn/HulKlSi5iISJccsklErFixDuZToO4xP7CVUV7+7Vr13rGFTeaCPA9OoUhTiE80QET1xWOK0TU7Nmzexnr7x08BufDgUUpYdasWd150alTJ/99CVjJtOM012QjwBsuvAHz/PPPuyBO9tX1119v9913n5UrV07uq2TbEJqvCCQhAQlYSbjomrIIiIAIJDuBkIf1zjvvuIi1ZcsWbzmOC+auu+7yUHe+lhiQHDsFV8PJHtw33IJghShFWQ/5Voij69atc2GUMsE1a9a4CwthC6GUfBqEqypVqrh4xed8L2VQ+++Nhcfm3H/9619t+vTpljlzZuvcubPdc8893nlMe/ZkV1L3E4FoEeD1ZvPmzZ57RfdBBHEcm7169fKOpbyO6BABERCBRCcgASvRV1jzEwEREAER+A8CIVB7xYoVNmzYMBs7dqzt3LnTXTEtWrTwPKySJUt6qLaOxCXABSHiUxCwgjCFCBS+h/DE/Sj5w1mV8kY56sGDB/1GxtX27ds9oB1BlGBlBC3Og3CFuMSeqlq1qlWoUMEvPINuVgrUAAAgAElEQVTjisc7WeGJ8yGQ0X1s9OjRPjYcGA8++KAHwJ999tmJu2CamQgkMQFeZz755BPr06fPL85hyt4feOABF8JxY+kQAREQgUQnIAEr0VdY8xMBERABEfhNAkeOHLGlS5d6lgih7ggOCA2IWG3atHHBAYfLyYoLQh0NAohABw4csNWrV7vwhDiFEMTBWvM59yF8HYHr0KFD7qLav3+/35/fZa9wQ9Di9ynt4YYTC9GL8yCAsp9Kly5tNWrUcIHpsssu89wrLjZPdV/h8sKB0b9/f3d8FS9e3Hr27On7lnOf6nmjsXoapQgkHwFeU1atWmUDBgxw4ZrXHv4+4b6i8YPy75JvT2jGIpCsBCRgJevKa94iIAIiIAIuUnAhMGPGDA91J1MIwSJ//vxekoGIxTvblBPqSAwCrDkt6LkQXLhwoYtTJwpYwYmFgIWYhSjFfdgbfB1u3C+IReRa8TkZVuRSsYfIpKlcubJdeeWV/vVFF13kDqnTbRLAnmWvPvXUUz4HHhMXVrdu3axixYrejVCHCIhAYhDgdQYB/f3337eXX37ZHZgI1bfddpt17drVihUrdtqvKYlBSrMQARFIBgISsJJhlTVHERABERCB3yTAO9u7d++2qVOn2pAhQ2zRokUuWBQoUMDf2W7VqtUv5YRytkR7IyFIIfz07dvX5s2b5+JlONgHQYQKDqrws7DudA2kHBD3FB8RjnBZIXDyEeGKjmBFihTxW+HChb2rJT/nd2O1f0IWDvltOLHYvzlz5rTrrrvOWrZs6SWKjIXH1CECIhBdArwW4frk9WrgwIEe4M7rGBl6lA7SdISupTpEQAREIFkISMBKlpXWPEVABERABH6VQHDbIALQmRBBABHr+PHjLj6QMYIoUKZMGX/X+3TdM1qG9CFAqd8LL7xgI0eOtA0bNvj6Uh6KW4kA9ZBDhUOKi0YO1hqRivtwkUiZDh0qEYv4nBt7gp9x4358jdMK0YpzpSbf6mTJsGcRWb/44gvr16+fh7lTvohoRUdDRFdKFhmncnFOlqruJwLxRYDnOQ7RadOmebORBQsW+Ne8uULXUbIa8+TJo79J8bVsGo0IiEAaE5CAlcaAdXoREAEREIFoEOBdbYLccWIR7I6IRdkYIhaiwM033+wfc+XKJWdLNJbUR8lF4Nq1a+3JJ590oYcgZNaadaxdu7aX+RHej1gVBKdQGoiDCXErCFTBacX3EIa4cZ/we5wj3NIaEWPEmfHpp5+66Dp//nyfG04wShYbNWpkDRs2tCuuuMK/J+E1rVdE5xeB2BLgdYrcq2eeecYmTJjgf48Qx2+88UYvFyZT72S7l8Z2ZDqbCIiACKQfAQlY6cdejywCIiACIhBnBCjNwolFpydELEQBgt4RAMqXL2+33HKLNWjQwPLmzStnS5yt3a8NBycVbefvvPNOmzNnjruucETR/Y+LwHbt2rnAExxYQeQJHQhDSWEQt3iMeBKCmB/ZOHPnzrUxY8b4vuVr5sgerV+/vge7c6GLOyuexh6B7aMhikC6EsA1iiv4r3/9q61cudL/5pCpR+lgvXr13PEZq7LkdJ2oHlwEREAEUkFAAlYqYOmuIiACIiACiU8AESuIAoTmzpo1y0UtLh4IdEcQIBuLfKPT6SSX+CTTd4aIUOTGPP7447/kmiHgsG5NmjSx5s2bu1MJV1WULwLZr5QVLV++3D766CN3EBLyTOA8zrKqVat6M4I6dep4+SNuMR0iIALxTQBxeu/evZ7LSJnwjh07vINp9+7drW3btu4glSAd32uo0YmACKQNAQlYacNVZxUBERABEYgwgZA9gijw3nvv2ZQpU9zJg9CBAEImFl3f+JwcpLTKOoowwnQdOvlQdJZ89NFH7euvv/4l04rsGMSc1q1b2+WXX+4ZWIly4NbYtGmTu7DGjRtnS5cutcOHD7t7EBGLXCyCn3FmMW8JWYmy8ppHIhKgfBDX1XPPPeflgwjSNGngNQ1HJU0kdIiACIhAMhKQgJWMq645i4AIiIAI/CEBRCwyRxBAKOMYPXq0rVmzxnC8IIRcffXVVrNmTQ93J0gXISt0mwvvjEfZ2fOHgOL0DpQJvv322/b//t//s127dnkGFjeyzBAe27dvb6VLl/Zw9kRaH+bIRe+ePXs87Hns2LEe/oyLA8GKUkk6luHEwnkGj1A6GadLqWGJQFIS4LmM+Dx+/Hh79tlnPcMPN+U999xjnTt3thw5csh9lZQ7Q5MWARGAgAQs7QMREAEREAER+A0CXEggiOBs+fDDD13E+uqrr/zdcESB3LlzW9GiRV0c4CPCFsIAQbuIAwhaCCW4XUK4N6JJEFV4WEpFEMX4PvdLGQqeSAJLWm8yOCLevPnmm/bSSy/55/6Pzp/+5ALjDTfc4KU3ZcuWdVdSorKFAyWFS5Ys8Y6LuAdpTsCeI/urePHi7shCfIUFF8NyY6X17tT5ReDkCQT31SuvvGKUsdNhtFKlSvbYY4+5CK3g9pNnqXuKgAgkHgEJWIm3ppqRCIiACIhADAkEZ8u2bdtcDCAse9myZbZ//34XnhCcELMQrRCvELUQChAG+JqP/Iz7hNItfi+IY7i8uEChJIR32QnmpcyLzzm3jj8mgGhD7hPduij5pJwuHKwBeVcdO3a0kiVLRj7z6o9p/G/nRfYUJUi4OMjFwkkYQuxxC9J9sVOnTt6pkIB3HSIgAulPIAjx7777rg0cONBf18iu69Chg3ceJAdL2Vfpv04agQiIQPoRkICVfuz1yCIgAiIgAhEhgCCA6ISrZ8WKFTZ79mz74osvbOPGjbZv3z4vNeRdc1w9XFwQ7o4gFUQrPuLE4p3zIErh4uKGqMCN+yBa4Q5CVMAxpKDe394gYU0okSPvavDgwb4m5F+xVhwwxbFw//33e8lnIjuvTiTFhTAsEF7ppjl9+nRbuHChuwnZr7C5+eab7cEHH3RXVqI60iLyEqNhioATOHjwoM2cOdMGDBjg3UV5HuOYpPNgrVq17IILLhApERABEUhqAhKwknr5NXkREAEREIHUEAiiAELWhg0bbNWqVe5sIRtr+/bt7srC+YIghaDF/UO5YBC3wuPx/XDwMwQuRC9+nwuVhx9+2C9cEiloPDWsf+u+cAtlcvCnrJPyTsrk4IjbjRI6xBucRrfeeqvdd999VqRIkaQUaRDzyNNBuEJ4xUG4aNEi36OIe0888YRVrlw5KdnEYj/qHCIQCwK8rvGGBu5exCuC23kdK1iwoN1xxx122223Wc6cOeW+igVsnUMERCDSBCRgRXr5NHgREAEREIH0IICAggBAqRoOrN27d9vWrVtdxOJzxJTvvvvO301HPDhy5Ii7XoIzKIhXZA8hUPGuOmILIsOWLVv8QoWwXgLHKRmRO+Z/Vxl+MF2/fr3NmTPHSzrptodwSN4Y4eSE6pP/tHjxYne71a5d2x566CHvwJesYmAog6WT5ltvvWWvv/66HThwwHOwnnzySRdKtcfS45VEjykC/3pt4+/HO++8Y2+88Yb/HciSJYuXP3fp0sVf19R5ULtFBERABBTirj0gAiIgAiIgAqdFADErCFq8g/7999+7YIXQwke+RuTi3XREr5B/Rakhrisyr7hQQQwbN26cizKcp0KFCv7OO63TKS1M1tyTUCqIMw2REHGKcrh58+b5RR6sYFi9enVr0aKF51zBcNCgQbZjxw7PIyP/6vbbb7dChQolda4YouqwYcOsd+/eLrBWq1bN/v73v0vAOq1XAP2yCJweAV7jEOF5Xevfv7+X+vLmBgJzjx49XITnTQ6JzKfHWb8tAiKQGATkwEqMddQsREAEREAE0plAypLAUDYYxBfKCRFaQvkbH0NXwtB1EMGLUrh+/fp5SSJ5WeQ2UQLHBQzh8AheyXIRE0pqEAARrggkR7T6/PPPvXwTcRB2+fLlcz7NmjXzTl1c6OG+evHFFz28HGGQwPK7777bc8UIRE4Whic+JRCthg8f7gIW2WEIWE899ZQLWMkqkKbzy4YeXgTcnfvll1/6a/+0adP8TY9ixYpZ165drVWrVt4MRM9PbRQREAER+F8CErC0E0RABERABEQgDgggcK1evdrefPNNzyminISStxIlSliDBg1cpOGiBkcRQlaiXtDgUOOCDoHl22+/9dB8Lu7IhkHIoiQTAQohqnTp0la/fn275pprPOMquBT43Y8//tizZCgxpLyQYPx77rnHrrrqKhcHk1HEwgmIgPXcc895QwJcawhYCFnJyCMOnvYaQpIT4HWfToOU9lI+SAk6r/Ft2rRx1ygNFlQ6mOSbRNMXARH4NwISsLQhREAEREAERCAOCOA4QrhBcHn77be9nBCRgSNr1qye70S4e40aNf5NyEoU4YH5E7zOnL/66ivvKEgXrm+++cZLMPkZc0WMIhcM0YrySrJhuOBD0AssEMHIe6KMcMiQIS6G5cmTxx0N5Irh2kpUAfD3tjIc2VspBay//e1vErDi4PmvISQfAV7zdu3a5W9YkEvH6x6vb9dee62L7ThweRMjUV7jk2+FNWMREIG0ICABKy2o6pwiIAIiIAIicAoEuKChfITOhpQTUgKHgEP+E+/Ck4WFC4uucWRkIWohzHDRQ2ZKFA/yw5gfwffMmxJBxCvcaJS8UX6ZMWNGF/EKFy7s8+bCrnz58i5EcYF3ohgVxDAEsJdfftnb0odcsbvuussaNWrkofnJdmGY0oEVSggRsHBiJRuLKD5XNObEIcBrFGXjvDa98sor/prHa13FihVdaOc1CmFez8vEWXPNRAREIDYEJGDFhqPOIgIiIAIiIAIxIRCcWNu2bXMxZ/LkyV5CR0khDi2EKkLLKZkjuwhXFhlPuXLl+iUjK94vekJGGMIVDgSEq88++8xva9eu9UBjhC3EKS7iSpUq5flWiFeU1NClkTJAMrB+76AcZ/z48R6MzGOcf/751rRpU7v33ns97B1hLJkOuA4dOvTfMrBCiHsyOtKSae011/gigKBOQwrKnHmzgjcuChQo4B0Hb7nlFhfno/qmRHyR1mhEQAQSjYAErERbUc1HBERABEQg8gRC+DudCzdu3GgLFixwcYfyQnKgCCZHcLjooousaNGiXlZIxypEGQJ/49mRFRxXlAoSzD579mybP3++B9enFK4KFizowhxuKz7ivsI1FfK/Tkak4yJx/fr19tprr9moUaPc0QWvnj17ent6WCXTwfzJ2unTp4+XVbJvyMCqUqVKUpZUJtPaa67xQ4ASZ17XeS6SScebFQj1NKLo1KmTl0Ur9yp+1ksjEQERiC8CErDiaz00GhEQAREQARH4hUAQsig12bRpkwtYlJrgyCLjKQSaZ8mSxa644govP8GphJCVN29ed2pxIYTYczKCT1qhD90X6RyIcIUbinnMmTPHSySZH/dBeMOFQNA64gofEbKYB26rU5kDLi/KdJ5//nkXATkPofi9evXyUkwEsWQ5cLu98cYb3u3swIEDVqdOHXviiSecw6mwTRZumqcIxIoAr3OIxxMnTvTSQUR8XqPJ9CP3iucir3c6REAEREAEfp2ABCztDBEQAREQARGIYwJc8HDwrj2C1Y4dO2z58uUu/iDIIGwhDCFA0IWPTCwcS1wIkROFc4n8KEruznSZGGMn14XyGEogCSmeN2+eC3A4rhBRcGRR2pc/f34X3+i2iBCHAMf3T1W4CkvKGHhswssp1+FznFedO3f2WzKV6iB6Uk45ePBgL0clBP+///u/rWzZshKw4vg1QENLHAII6rhOX3rpJX8NxyVKluGdd97pDixeqyUmJ856ayYiIAKxJyABK/ZMdUYREAEREAERSDMCCEIIVlu2bLHFixfbrFmzbNGiRV5aiFCEIIRYRU7U5Zdf7iIWAgWlcwg3lB3iOiJfJWXnvtO9aAq5Vnw8fvy4dw3EWcU4cRkwRhxklM6EcZJxRUdBBCuCxMm4QlBijIzvdMcUFoGxkDeDC4tMMcQbuOB4QMS55JJLzri4l2Yb5HdOTDll3759bcSIES6I3njjjfbYY4+5Yy9WrNNjXnpMEYgCAcQqmlPgvHrvvff89RHHaYcOHTz3ijcblHsVhZXUGEVABNKTgASs9KSvxxYBERABERCBUySAABGELBxZBL7jbEKk4MIIoQuBinIU3EyIWQSgI2RRloeYRekhYhclLNyCqBWGFESN4AJLKXIEwYr78ljccIjhqqJUDaEKlxVj46KNQHWyu3gMhCucYuRb0TIe51Xu3LndcZVWF3Dka1G2Q1fCZcuWuYhHCR2lhGRAUb6YyCIO68V69O7d20aPHu1zJQfs4Ycf9n2RyHM/xaeYfk0EYkYgOEHfffddGzhwoG3YsMFffxGR6YxK7lWyNZWIGVydSAREIKkISMBKquXWZEVABERABBKJQCjRQxhCNEKgwOWEkEW21M6dO100QpygFI8SQ4LQCQzG6ZQjRw53H3EhxUfErpTurMCKxwkCBx9DphUiGm4rhLR9+/Z5eR6OK26MByENtxXiFo/PYxcqVMjdT4hXOMNwIPC4sXRc/doaM1bGRXAyJXSUYlKu06pVKy8lxIWUyHlYrBlCIgIW7g/EzZYtW7qARX6aDhEQgbQhwHOPBgqTJk3yhhK8RvM9yqURr/jIa6BE5LThr7OKgAgkFgEJWIm1npqNCIiACIhAkhKgdBAxCacR7iecTwsXLvTyPcoL6WjIzxFyuHgKjive9ceFhfsJZxRfpxSrThSxws94PG6IU5wX9xViGeV5PAY3RCvOnS1bNi+PQbTC7VSsWDF3XPF4aeW4OnEbMGdKeLh4JAfq448/doENQe3WW2/1Eh4+D6H3ibaNgoD1j3/8w8aMGeMCVuvWre2BBx6QgJVoi635xA0Bnne8zpB3RQOF6dOn++sQTtgePXpYixYt3A17pvMJ4waQBiICIiACqSQgASuVwHR3ERABERABEYhXAqGsL+Rk4cCipBDnzdq1az3wnZbtlPMRJozIxH0RolKWCYbPmWdwXPE5F1kpfxacWeE+/BwXE04vHF2IVJQuElJcqlQpF4gQsxC10qszIkIbXQnJoSE/jLkjqN1+++0eoowj7EyJamdyH7FWuPIQsMaOHetr2aZNG7v//vslYJ3JhdBjJQ0BnnOUVM+dO9eGDh3qrzuIWZR0I5i3b9/eXx8R+nWIgAiIgAicHAEJWCfHSfcSAREQAREQgUgRCGV+BJhTxoczi/btlNEhZCFuUfZHaQs/4z7cNzi0UgpaiDzhOFHEwrGEa4sMKUQrShMJZkes4nOyrvg+otaJGVvpAZS57Nmzx8aPH+9ZNHRGREyjnLFjx47WuHFjD8BPNBGLeacUsJgzAtZDDz3kF9E6REAEYkeA10/EcjrFIl7NmDHDXbCULTdt2tS6dOniwj4uVB0iIAIiIAInT0AC1smz0j1FQAREQAREIHIEghAVBC3K/XBfcSO7iosqXAF8zvdwZCFiIXgg4qQMa2fyQcAK7ivcVEHAIksLhxUfEbT4fuh0GE/5Loz922+/tQ8++MAzscgOwwVBmHy3bt3smmuu8XywRDpOFLBYF1wglBBKwEqkldZc4oEA4hVZhOTt0fmU11mEfJpWdOrUySpXruxl2/H0uhgP3DQGERABEfgjAhKw/oiQfi4CIiACIiACCUggCFMhryrl17813ZTlhNwnXHwhhnBD8Aph7PF+YYaQR3nlO++84135cKUhxhGo3L17d6tVq1ZCXWCyvl9//bU999xz/1ZCKAErAZ/cmlK6EeD1FEcr+YMjRozwzCtcrjivGjZs6GWDCOU0tNAhAiIgAiKQegISsFLPTL8hAiIgAiIgAiKQAAQomVy1atUvIhZllRdddJHddNNN7sQqXbq0l/jEuxh3MksRQtyfffZZF7CYEw4sZWCdDD3dRwR+n0BwuFKe/Omnn9q7777rwe04sRCrGjRo4Dl71apV83LqRHhN0Z4QAREQgfQgIAErPajrMUVABERABERABNKdABedlE0uW7bMO4RNmDDBc8HI7aI7GN0JyakJofPpPuDTGEAQsHBgvffee+6Ya9mypT388MMeYq9DBETg1Ang6KTb67Rp01y8WrJkiZdlUzZYp04dd14hXuHEknh16pz1myIgAiIgAUt7QAREQAREQAREIGkJIOxwoUnY8muvvebuCUQtuhEi8LRq1cpKlCgReRGLeVIy2bdvX7/AptQJp9kjjzziIp0uqpP2KaCJnwYBnlc4OXluTZw40XP1Vq5caQhaNIO47rrr7Oabb/ayQbIB9Tw7Ddj6VREQAREgvuL/S9kPW0hEQAREQAREQAREIMkI8K8QuTW4JxCxFi9e7Bel+fPnt+bNm1vr1q2tePHikS8nxCHC/Oi+SNdJnCF//vOfrUqVKu7I0iECIpA6AseOHfNsuTFjxrh4tXHjRheHEcBvvPFGF8ERiGlqoedY6tjq3iIgAiLwawQkYGlfiIAIiIAIiIAIJD0BRKwdO3Z4x7Bhw4Z5BzFcFPny5fO297goyMSK8oUoYdKjRo3yIPft27dbyZIl7dFHH3UnFmWSOkRABE6OQHBuIl7RBGL8+PHeCOKcc86xokWL+msGNzp80m1QhwiIgAiIQGwISMCKDUedRQREQAREQAREIOIEcE7s2rXLPv74Y3vrrbc8xwYnVu7cub0UqE2bNla+fPnIlgIdPXrUZs2aZU888YS7zChp6ty5s911112e+0UHSR0iIAK/T+B//ud/3MHIc2jkyJEueiMII16VKVPGs/MIbb/sssssY8aMKhvUhhIBERCBGBKQgBVDmDqVCIiACIiACIhAtAkgYuHEmj59ug0fPtwWLVpklAkRxlyzZk0vJ6xataplz57dL1ijdDC3b775xnr37u0lTz///LNVrlzZunfvbvXq1fM5ScSK0opqrGeaAOIVTsbPP//cxSsy8/iabqUVKlTwzp6IVwjCUXt9ONMs9XgiIAIicCoEJGCdCjX9jgiIgAiIgAiIQMIS4CJ17969LmKNGDHCL1YPHz7s5YOIV3QorFu3rmdkcZEapWBmuixS8tSvXz9bt26dX3hfffXV1qlTJ8/EkoiVsNtaEztNArwuHDhwwF2MQ4cOtblz59rBgwe9RJAcuQ4dOljt2rXdsRml14TTxKJfFwEREIEzSkAC1hnFrQcTAREQAREQARGIAoEgYs2bN89zo2bOnOmiFiIWuTYENF9//fUe7h6lXKyffvrJvvrqKy+RRMiiZJL8K4Q5Oi5ec801ljdv3sgJc1HYUxpjdAnweoD4O2fOHBev6FpKGWHWrFld+KW8ODgz5WKM7jpr5CIgAvFPQAJW/K+RRigCIiACIiACIpAOBLhoPXTokAe6v/fee+7I2rZtmxHgjPuKUiEC0MnFosSQC9d4d14wdrKwli5d6mH15H3t3LnTnVglSpTwrovMiyBqnCXqnJYOG08PGVcEgpiNaIXwO3v2bBevcubM6c8VyoopxSVTLt6f/3EFVoMRAREQgVMgIAHrFKDpV0RABERABERABJKDQBB8yI6aNGmSdxvDwYSTiQvWSpUquYhFSSHOJdxY8X6EOa1YscLdZcyJEGrEqgIFCrijpHHjxi7McZGuLJ94X1GNL60IBOfVjBkzXPClbJByYgRrnvft27f34PaLLrpI4lVaLYLOKwIiIAIpCEjA0nYQAREQAREQAREQgT8gQDdCRB5cWGPHjnVX1v79+738jpJCnBh0KixVqpSXFWXIkCGuL2gRsX744Qf7+uuvXcDiRiYWQe8XX3yxlS1b1ssJEeaKFCni34uCw0wbWQRiRYDnAgHtOK+GDBni4tWRI0d+cV61a9fOKlas6KK1nFexoq7ziIAIiMDvE5CApR0iAiIgAiIgAiIgAn9AAMGHgxwsOhOSH0UHMkQtLnSzZcvmZUQ4l6pVq2aXXXaZXXDBBXFdgsec6LC4efNmd5d9+OGHtmzZMi+bxHWVK1cunxPiHEHvlE3G+5y0kUUgFgTo0Ek3UrLv3n77bZs/f/4v4lWTJk3stttus3Llykm8igVsnUMEREAEUkFAAlYqYOmuIiACIiACIiACyU0A0QcXxurVq23atGk2ceJELymkrAg3VsGCBb0jWb169dydQVkh+VLxmiXFfCiHJAdr8eLFNnnyZA+qRtTCdcbYw5xq1qzp5VLMiXysjBkz+rzkPknu50QizT6U165Zs8afCzy/KbUlN+7SSy/1ssFbbrnFrrrqKn8OaO8n0uprLiIgAlEgIAErCqukMYqACIiACIiACMQVARwae/bs8fIiyu8Idt69e7eRmcOFLWWFiFjkSSH6kJmTKVMmn0M8XvQybi7SKSNkLlOmTLElS5Z45zXmivMKIYsL9woVKlixYsVcyMJ5xs9Silkp5xePc42rjaTBxA2B0LQBIZcyYRoc0LSBAzdio0aNfnFeSbyKm2XTQERABJKMgASsJFtwTVcEREAEREAERCA2BLjgxXlFwDvlhORjrVy50g4cOOAiFVlYZGLVqFHDS/CKFy/uLg6cWvHoyApuLHJ/mBNC1qxZs2zVqlU+Jw4cWYhWiFeFChVyoY5yScLeEenIyrrwwgv9fpQhBocW+Vlya8Vm3+kssSXAvqcMeNeuXfb55597x1FciJQLI8ySAXfjjTf6jU6dEq9iy19nEwEREIHUEJCAlRpauq8IiIAIiIAIiIAInEDg+PHjHvZMNhbdyrj4Xb9+vX3//fcefI6wU7JkSRexyMe64oorXMhC5InHsHcu6CkfxFG2fPlyF+fmzZtnGzdutIMHD3rJIQIdF/eIVcyPW44cOVzIypcvnwtcCHiIdYRc83NcLHRrU1dDPYXihUAoGWRvs8/JgaNBA8I0exW3YbNmzdxNiVDLnperMF5WT+MQARFIRgISsJJx1TVnERABERABERCBmBLAjUVXv61bt9rChQvtk08+8eDnLVu2eB5OAAwAACAASURBVFA6QlWWLFnczcFFcaVKlax06dK/BKPz83hzZYU5kY9FzhcX9kuXLnVxjvJJssAQ7xABuKhnDtwQ5oITiwt+BCwC4CmnrFWrlhUoUMDvp0ME0pMAriuchWRckXVF5hVCFgItgiui1c033+yZdtmzZ9eeTc/F0mOLgAiIwP8RkIClrSACIiACIiACIiACMSJAXhRd/L799lsXfMjIIlOHLB0ELg5cS7iUyMZCyKKbGe6OkJOFayteXB6IU0HI2r9/vwt0CFhkZRF0vWnTJi+1Ij+L+XGDQRC1Albyv3CetW3b1po2beqClkSsGG06nSZVBBCuEF/ZywsWLHDhau7cue445LmHwBrEK56bCM/x8nxM1UR1ZxEQARFIQAISsBJwUTUlERABERABERCB9CGAcMMRAqFxYCFkkSdFiSFfI/Lwc0QdnB3k6tCxkFvRokUtd+7c7lri5/Fy4RzmxcU/5YUIALiwduzY4dlBXPwj0jG/7du3e0llcGgxXwQuHGaIdnfccYc1btzYSwrjZX7ps1v0qGeaAI5BOmySdcVzEpckIix7FOcgz0UE1oYNG7rgyvNQe/RMr5IeTwREQAR+m4AELO0OERABERABERABEUgDAog+uJHI08HtQakS5YWU4eFgCh3+yIQibwfnB0HvV155pWdmEZJOVhaOrRCIngbDPKVThuBr5scNUYvML9xnCFu4ssjLokQLxxZiAR8R5SjJ6tKli5cUIuDFW+nkKQHRL8U1AQRj9iidNUeMGOFZdQiufI+DxgTVq1e3Jk2aeNMFMtx4zkm8iutl1eBEQASSkIAErCRcdE1ZBERABERABETgzBFIWYaHU2nt2rX2xRdf+G316tUu9oTyQgQexCxKChGxgjMLNwhCVrxfUCMUBFGLz3G8IBTQ2e3tt9/2z3G1IBa0b9/eS7UonWRe8T63M7dj9EixIhCEVoRUnnfDhg2zkSNHurjKz9iLiMbXXnutXX/99Z5LR34bpYQ6REAEREAE4o+ABKz4WxONSAREQAREQAREIAEJBCGLUHfypMjJWrVqlZcW0u2P8rvQ5Q9XEhfXOJRwhNx6661WuXLlSIhYYelC2SEiFu6zoUOH2rhx47zk8Pzzz/f5dOzY0UUsnGYSsBJw06fjlBBQKWOlRJAumtOnT/fSQUpc+Rklg+zB2267zWrXrm158uRRyWA6rpceWgREQAROhoAErJOhpPuIgAiIgAiIgAiIQAwJIO7Q7YyyO3KkcIesXLnSli1b5p9ThsfPELtwKJHLQ3YUDpEohp9TRknp5FtvvWWTJk3yzCxErJo1a1rnzp2tbt267jyTiBXDTZakpwrOP55D7DlC2ufMmeMdBnk+cWTNmtUbKNBUAAE1R44cKmVN0v2iaYuACESLgASsaK2XRisCIiACIiACIpBABIIriywe8qMQszZs2GBfffWVu0bIzEL8KVy4sN17773WqlUrv/iOmtCDqECQO04zSrjGjx/vc73gggvsuuuus+7du1uFChVc1NIhAqdCIDQYIFsOERjRiqwrhGGeW7gacTRSjovjCtGUpgJBOI3ac+pUGOl3REAERCDqBCRgRX0FNX4REAEREAEREIGEIBBC3xGzuAin3Om1117zrCwCpZs1a2b333+/Z2PxddQO5kdJF+WEQ4YMsYkTJ3r+V86cOX1ulHLhMDv33HMjJ9BFbS0SZbwh4wqRd+fOnbZmzRpbvHixdxdEBMaFhbCVJUsWf94gXFWrVs0/Z98pqD1RdoLmIQIikCwEJGAly0prniIgAiIgAiIgApEgEFxZOJQQsAYNGuSCVokSJdyFRTkhXdOieDA3SiMR5V5//XXPJSLAnvwh3GVt2rTxUG3yiXSIwO8RCK4+Mq3IkcNxhWNx8+bNniVHMwHE0Pz587tw1bhxYytXrpznrWXMmFEiqbaXCIiACESQgASsCC6ahiwCIiACIiACIpD4BBB2KIHq3bu3Cz50KGzUqJH17NnT83ui6MJi1RAeEOQQrwYOHGhffvml4TpDaGjYsKE1b97cypYt66WS6gaX+Ps8NTMMjivKURGuyLiaNWuWC1dkXCFcUSqIcIUoimBFqWCVKlW8syclqtpTqSGu+4qACIhAfBGQgBVf66HRiIAIiIAIiIAIiIAT4GKdDmqU2w0ePNiDz3Pnzm1du3a1du3aWd68eSMZ6B5ELBxmH330kQ0fPtxFLBwziFYEu7ds2dJLvSjzQrhTPlFyPilCJ8vQ9IASVJ4HlKHOnj3bc+LIjOP7CFcIVAihlKJWr17dc9WKFi3q3Tuj2PwgOVddsxYBERCB3yYgAUu7QwREQAREQAREQATikAAX7TiTyMJ64YUX7NNPP/XOhVyUd+vWzd1KUe6ehmBFbtG0adPs7bfftiVLlnhg/Xnnneflktdcc427Z0qVKuWdGBGydCQPAbKr2COUnOLYozSQXCv2Cc0AcFyxXzguvvhiu/zyy+3qq6/2GxlXOLAIaEe4kgCaPPtGMxUBEUhsAhKwEnt9NTsREAEREAEREIEIE6DcDsfJ2LFjPQvr66+/diGnatWq7sQi2wdxB/dJFA8Eiu+++85LJMeMGeMi3a5du3w+zOuqq66ya6+91kWJIkWKeBh3ECQkSkRxxX9/zKGRAaIVAf9btmyx1atX26pVq3zvI1oRzI6wG4QrOnRSIohzj66CuXLlchGUPaQ9knh7RDMSARFIbgISsJJ7/TV7ERABERABERCBOCeA62r9+vVeaseN0jsu0OvVq2edO3f2UikcKFEVsVJ2J5wwYYJNmjTJ1q1b5+HuZBlRRoiQhViH+6xQoUIuZJEBpjyjON+8qRgeYiYZVjitcFkRzI5wRRktDixEK1xZiFKsP/uAvV+jRg0vGUS4ooSQn0u4SgV43VUEREAEIkRAAlaEFktDFQEREAEREAERSD4CoZSQwOphw4bZhx9+6KV3OJQosbv11lvdkZU9e/bIilisKsHcW7du9VwjAt7nz5/vYh3CBYIdQhZCRcWKFf0jWUcw4GeIWQh4fMShJWErGs+TkG0VhCvC2D/77DMXsAhpZ09wH9aWckA6CBLGTsg/jQwoFSQXjj2gNY/GmmuUIiACInA6BCRgnQ49/a4IiIAIiIAIiIAInAECXMTjSFq2bJl37kPEIv8Hxwlh5x06dHBHVpTLCZkjN8rHcJzNnDnTpk6d6mLGgQMH7Pjx45YxY0YPes+XL5+XFCJmhKwjWCBy4cxB6FBm1hnYmKfxEJTHHjp0yMsCEStDN8Ft27b5WiNaIUyxlqwpoiXCFVlXBQoU8L3OfpDj6jQWQb8qAiIgAhEjIAErYgum4YqACIiACIiACCQngSDuEOpO6DkuJXKCMmfO7A6s22+/3R1ZUQ52Z2WZJwIGZWOEdiNu4Mric/KxKDXjPogXCBzMH+cVN1xotWrVsmbNmtmVV16pDoZx+FRBuMJZRakgaztjxgxbvHix510dO3bMnVTsYYSqcuXKuXBFJ0Ecd5QOst647KJaMhuHS6IhiYAIiEBkCEjAisxSaaAiIAIiIAIiIALJTgDhBjcS5YTvvPOOTZkyxcvsghOrS5cuLmJxoR/1C/xQOrl//353ZC1YsMDD3r/55hsvocSRRj4YuUjclwM3Di6sNm3auCvtiiuukBMrTp40CFesF00JVqxYYZMnT7bZs2fbt99+62sZgvspCyTXClG2ePHili1bNs9CQ9hStlWcLKaGIQIiIALpREACVjqB18OKgAiIgAiIgAiIwKkQCE6s5cuX26hRo2zcuHHuTELEqlOnjnXs2NHDrSm1i/oFfygrRPggJ4nysjVr1njIO6VniHd8H0cPjq3g0KK88JZbbrFWrVp5qSHuLB3pQyAIkXSbRHwk44ry0JUrV/raIVwhUuGYo5MgHSdTClcqEUyfddOjioAIiEA8EpCAFY+rojGJgAiIgAiIgAiIwO8QCJlYOLHoTDhx4kQXb+hGSLc+RKwqVaq4iBV1J1bAwJwpH6S8kPwvxA8+kplFlhIlhh999JFnZuHKwn3VtWtXLyck6DtROETliYHjigB+hCtER9xzc+bMceFqz549xs/Zr6wTZZ+Ir7ivKB8kvyzq4mtU1knjFAEREIEoEZCAFaXV0lhFQAREQAREQARE4P8IIOgcOXLEvvzyS+9OiIhFuR3d2gh0pzshjpYoB7v/2mKHcsHgzuIjghVuLMrSBg0a5GIWghVOtDvvvNN5wEWiSNo/fUKGGcLV119/7fllBLSvXr36F+EKRxwB/OzPBg0aWPny5S1XrlwuXEloTPs10iOIgAiIQFQJSMCK6spp3CIgAiIgAiIgAklPALEAJ9LChQs92J1MLIQDMrDoTkgZHc4WOrklujBAmSF5SqNHj3YWfI5o1bBhQ3ekVaxYUSJWGj5j2IusASIqjqu5c+d6qeCqVat8TyIyIlDRNfKqq67yfUm5IB0GKX8l40qHCIiACIiACPweAQlY2h8iIAIiIAIiIAIiEHEClNAtWrTIBg8ebFOnTvWgd7q1IdoQZo7LJXQnTGQXEiVruH5ee+01e//9913cI1+pUaNG1r59e6tUqZJ3Lkx0Me9MbufghCOHbMOGDS5cTZs2zZ2BBLZT9knHyLx587pwRYkrAe2FCxe2Cy64QMLVmVwsPZYIiIAIRJyABKyIL6CGLwIiIAIiIAIiIALkCZEFRc4Qwg0iFoHnOF4qVKjgXfkQsQoUKJDQgeaIKQgpZC0NHDjQu9yRk5U9e3a79tprrXXr1i7qIWrJ8XP6z5tQLkj5JgLqpEmT7PPPP7etW7d6Z0H2X758+bxEkHJB9iKlgzgEKSNMZDH19OnqDCIgAiIgAicSkIClPSECIiACIiACIiACCUIAsYbuhJTRffjhhy4k4H4hHLtdu3bWpEkTFxQSvSsfHQkRr4YMGeJiFuIeognOH0LdCQ2nlA2BhUNCSuqfAEEspFQT4Wr8+PGePQbrDBkyuOOvXLlyLhySRYZwRUknwqF4p563fkMEREAERMBMApZ2gQiIgAiIgAiIgAgkCIEgKlBGN2bMGPvggw9s48aNLhiUKVPG2rZtazfccIPlz58/oUUsHGlkMSFi0aUREYtyQgSrEiVK2HXXXWd169b1zwm5R+TTcfIE2GeUrSKWjh071gUshCwOOguWLl3a+VIuSJfB4HiTcHXyjHVPERABERCB/yQgAUu7QgREQAREQAREQAQSiADiwrFjx2zt2rUuYCFkEaqN8wXBhjK666+/3jOIzj333IR1wyBi4cSirBIGBIpTVgkHQu1xB+EM4lasWDF3aOEc0vH7BOCK02/BggX27rvvet4VWVewK1KkiLvb6tev73lXuLAQDSVcaVeJgAiIgAjEgoAErFhQ1DlEQAREQAREQAREII4IhGyi9evXu0MGF9KmTZt8hAULFrTGjRtbixYtrFSpUu6YSUSBIYSLHzlyxEvbKKmcMGGCO4VCPhPZWAS7wwPhhaBxRD0dv04Apjjbli5d6uWZKRsGlC1b1vfUNddc4+WChOVzJOLe0v4QAREQARFIHwISsNKHux5VBERABERABERABNKUQBCx1q1b504shKzVq1fbTz/95A6katWqeXe+GjVq/CLcJGJ3vuBIQ8D77LPPXHRZvHix7dq1y51qdGu8/PLLPasJZxpCDFlNicjidDbc8ePH3WkFQxxtlGd+99137lzDxYazj71EtpicbKdDWr8rAiIgAiLwWwQkYGlviIAIiIAIiIAIiEACE0B4oHSOnKKRI0fakiVLXLghyB3hBhGrYcOG7sbKmjXrL+JDojlnfv75Zw8Yp7QSEeaTTz5xIWvv3r2GyIUQg3uIjo1VqlTx3KYgxCQai9Rs95QCIOLfe++95w4suj3i3iPrqn379t5lEIYS/lJDV/cVAREQARFIDQEJWKmhpfuKgAiIgAiIgAiIQMQIIEAg3uzcudM+//xz7xY3b9482759uws3lNGVL1/ehQicNIRuI0wkYre44EqjDI6yQlxEiDKE3iNuMW+ysQi6R8SiFA5RD7EvpYiVDIJW2DfkiCH0ffzxxzZjxgwvwWQ/5cyZ0+rVq+fOq6uvvto5SbyK2IuDhisCIiACESMgAStiC6bhioAIiIAIiIAIiMCpEPjnP//pnfgoI0S0wZHF53yP3KdcuXK5aIMLiY8FChSw888/34WbRBNsgquIMsK5c+fauHHjXMxC2EKsypcvn3fSoyQOFrBBnMGRRcdCgsm5H1/z/cAnETjBhqB2ssPoYDlr1iybOHGiLVq0yDsPMmf2RpMmTeymm27ykkv2icSrU3lW6ndEQAREQARSQ0ACVmpo6b4iIAIiIAIiIAIiEGECwYGE+yq4ahBuduzYYZQaErxNyDuiDe4aAs4RbxC4ElGgQNQ7cOCAl8SRETZlyhQvt8RhhEgVhCzKCWFAXhZOIzLEuPF9XFtkZsEOcSsIWohZwcXG57A/UeDie/HEFeGKgPuwP6ZPn+7C3ubNm53JBRdc4N0Fcag1aNAg4TtZRviprqGLgAiIQEISkICVkMuqSYmACIiACIiACIjAbxNAuKFkji6FCBTkQSHiEMqNUHHhhRda0aJFvTMf2UZXXnmll4wFISsRnEaBDiLS4cOHPRtr2rRphmizYsUKd6Zx4DhivghNuK5ggJCDkEX5JVwQ+fiIoAU7xC/ELu7L7yBknShUBYGL+wUB7MRSxbTew8ydA+EqhLQz95kzZ3qZ6Zo1a5wD48J1RYkp4lXlypUtR44cLtjpEAEREAEREIEzRUAC1pkirccRAREQAREQAREQgTgiEDKOcCCtWrXKRaxPP/3UvvnmGy8V48BdRCYWpXR16tTxsrogXCSaiEV3xlBSOGTIEM8Lw42E+BQO5ozYgwAYnFaIOAg8OLAQthCkELAQr4KAhQgWRCx+D/bcuB/iV4kSJaxMmTLuaELMOhNd/ILbCiGT9aZLI6IVAh6lpewLxsgeoEzwxhtv9D1QqFAhnydHIu2BOHpqaigiIAIiIAK/QUAClraGCIiACIiACIiACCQxAUQKhBpC3pctW+Yd+nBlbdiwwV1aiBSXXHKJFStWzIPeueHOwoEUSuYSBd+PP/5oK1eutCeeeMLdWAhJdGosUqSIf073RnKycKrh2oIbN9xLCEJBnOLzUD4YSgdPzMkK90fwQhTE5YbbrWLFih4eT0e/lCWJsRCMgvhGvtXWrVtt+fLlfqNsktu6deu8K2Nw4TFvxlS/fn0X2HCcnWmXWKLsLc1DBERABETg9AlIwDp9hjqDCIiACIiACIiACESeAEILwgZCFvlYOLIQsxA6EGkQYMh9QshAZKHzHJ/nyZMnYYLecVZRSvj000/b+++/72tKqH23bt08GwyXFm6lPXv2eE4Uji2EHzLE+B78ELO4cV8EIw4EIY5QsgdLHiv8jPvixoIvXRBhi+spf/78LmTh5EIQC86sUNYYRLKUQfLhMTh3EKx4LB4jCJWUCc6ZM8cD7Mm3QrgL7jLGQblg1apVXbgiBy1v3rw+BjmuIv801wREQAREINIEJGBFevk0eBEQAREQAREQARGIHYHQgQ530ZYtW2zJkiXehW7hwoVeYoYAgnhCuRyiRvPmza1Vq1buUEqEPCTmjwNp0KBBNmDAABelSpUqZQ888IA1atTIy/sQhRCDcGPBA1a4svbt2+d5UUePHvWfIQohZCEeBVErrFTgzP3himi2e/duvx8CEo43+CJgUWKIiEWnv1CemPJjKFtMmbHF+RkjY0Fww0nHGBEnyT0j2wrhje8jriFMIVDxmBUqVPBSwdCJkjmnFMhit9t0JhEQAREQARFIHQEJWKnjpXuLgAiIgAiIgAiIQFIQQHhBnNm4caN98cUXNnXqVFuwYIG7joLoQR5Su3bt7NZbb/X8puAIijIgxCfcZ88++6wLdwhEiHT33HOPl1GeKBQxV1hxQ9yCDQJS+DqIVcGFFToSBscbDjceB0cU5YuUJyJ+ccCTkj1ELQTC8DXf48b3ELYQnxAWGRtjCAIW6xdcYYhtKcU17s/vUgoaSkQRrXBcsZZkX/EYOkRABERABEQgXghIwIqXldA4REAEREAEREAERCDOCISgd9w7uHYQscaNG+eOIUSWkBHVtWtXa926tbuFol5mhgBE/terr75qQ4cOdZcSLqxHHnnEGjdu7KLPr80xZeneyS5jEJrgS/4UQhY3gvQpSwwOqSCCcd6QqcXnIUfr10oIw+/wMfyccSNKhXD+8uXLezA/5ZG5c+f2Eka6KIYSxZOdh+4nAiIgAiIgAmeCgASsM0FZjyECIiACIiACIiACESaACEJ5G2VndKqbMGGCf6QkDVcQQd8PPfSQ1a5d291CUT6YK06lKVOm2DPPPGPkRVGy16FDB+vRo8cvTrNYzjHwpdyP0k3K/BC0yNnCkRXKAHGH4eQKZYl8Takg3wt5W0GwCm4tXFqUfHLDaYVQRWdJ8ssI48+WLZv/LHRJjOW8dC4REAEREAERiCUBCVixpKlziYAIiIAIiIAIiEACEwjiztKlS23IkCE2duxYz32ii16nTp0MJxYB4IghUT4QgxCRXnrpJRs1apTPkWyoBx980Bo2bOhlhbE+goMrZeA65X/ccGIhquF6Q6xCTORzfha6IQZhi/PgoEJIxGnFWHGN8ZE8K0Ss8P2QWxZ111ys10LnEwEREAERiE8CErDic100KhEQAREQAREQARGIWwKIJrNnz7aXX37ZOxUinuDowaFE2HnOnDnjduwnOzBcT5MnT7Y+ffoYgh1ZUW3atLE777zTHUwps7BO9pypuR9CVMobolrIt+I8IWcrBMX/mgMruLAYa7gFp5VEq9Sshu4rAiIgAiIQDwQkYMXDKmgMIiACIiACIiACIhAhAqFb3wcffGCvvfaarVq1ygPFKSXs2bOn1apVy8vuoiySIAhRxodI99Zbb3lnQbKwKJUkCwsXU5TnF6HtpqGKgAiIgAiIgBOQgKWNIAIiIAIiIAIiIAIikGoClLoRdj5ixAgXeMhuokSNjn133XWXFS9ePNJd7BDpKN0jC+u5556z5cuXe1nejTfe6CJd2bJlXbTTIQIiIAIiIAIicGYISMA6M5z1KCIgAiIgAiIgAiKQUAQQeMhhQtjBhUWwO1lRhQoVsjvuuMO7EubJkyfNS+3SEiourI0bN9obb7zhIh2h9cyPrK+2bdtGfn5pyU7nFgEREAEREIFYE5CAFWuiOp8IiIAIiIAIiIAIJAkBRCzysMjB6tevn82cOdNnXrFiRbv33nutfv367sqKcqkd4enz58+3559/3mbMmOHZU1WqVLEHHnjAuy6mRaB7kmwfTVMEREAEREAEUkVAAlaqcOnOIiACIiACIiACIiACKQngUsKZNGbMGBswYICXFZJ/df3117sTq1KlSnbeeedFVsRifnv37rV3333XXn31VZ8fge633HKLdevWzYoVKxZpl5l2swiIgAiIgAhEhYAErKislMYpAiIgAiIgAiIgAnFIAEcSIs+aNWu81G7kyJEuaF166aXWvHlz69Spk4efkx8VVScWeV+USiJgjR071rOxSpYsaY888og1adLEBTodIiACIiACIiACaUtAAlba8tXZRUAEREAEREAERCApCBw5csQWLVrkeVgfffSR/fDDD5Y/f34PdScPC8EnyqHn5HtNnjzZSwmXLl3qpYOIc7169bLcuXPLhZUUu1yTFAEREAERSE8CErDSk74eWwREQAREQAREQAQShABOrEOHDnlOFKWE5EYR8k7o+W233eYldwULFrQMGTJEcsa4sNavX28vvviiu8zIxqpXr57993//t1WoUCHS4lwkF0SDFgEREAERSDoCErCSbsk1YREQAREQAREQARFIGwKIWLt27bKpU6faoEGDbPHixYbwU7p0ae/cR7ldrly5IltKiAsL8apv377enbBIkSL28MMPW7NmzSxLlixpA1VnFQEREAEREAERcAISsLQRREAEREAEREAEREAEYkYAwWr79u32wQcf2JAhQ+zrr7+2c845x6pXr249evSwOnXqePldFPOwjh8/bvPmzbO///3vNnv2bLvwwgutTZs2ds8999jll1+uMsKY7SKdSAREQAREQAT+k4AELO0KERABERABERABERCBmBL4+eefvVsfnfuGDRtmW7ZssYsuusidSnfddZeHukcxD4uwepxX/fv3t6FDh3rOF9leuLDouhhVYS6mi6+TiYAIiIAIiEAaEZCAlUZgdVoREAEREAEREAERSFYClBKSf7Vs2TIbOHCgTZgwwfbv32+FCxf24HPysPLlyxc5xxLzOnz4sIfU9+7d27766ivLnDmz3XzzzS7MRT2oPln3q+YtAiIgAiIQDQISsKKxThqlCIiACIiACIiACESKAGLP999/bzNnzrRXXnnFZs2a5eOvVKmS3X///Xbttdfa+eefH7lSQkok165d690WycPat2+fFS1a1O68807vtnjppZdGap00WBEQAREQARGICgEJWFFZKY1TBERABERABERABCJGgJK7HTt22JgxY+zVV1/1skJKCXFg3XHHHVa8ePFIdiXEhYUg99JLL3kWVqZMmaxBgwb20EMP2VVXXeWZXzpEQAREQAREQARiS0ACVmx56mwiIAIiIAIiIAIiIAIpCPz0009eaoeAhZBFJz9K7Si5IxMre/bskXRh0W2RkHrmxed0JHz00UetadOmLtJFMaReG1cEREAEREAE4pmABKx4Xh2NTQREQAREQAREQAQSgMCBAwfs008/tRdeeMHmz59v5557rncj7N69u9WsWTNypYSURyLMffbZZ/bMM8/Y3LlzfQ50Wezatavlzp07cvleCbDNNAUREAEREIEEJyABK8EXWNMTAREQAREQAREQgfQmQG4UnQjp3Pfmm2/azp077ZJLLnEHVpcuz7e/VQAAIABJREFUXaxMmTKRLLvbtGmTz2f48OF29OhRa9OmjQtYxYoVi2RpZHrvEz2+CIiACIiACPweAQlY2h8iIAIiIAIiIAIiIAJpSiB0JVy0aJGHn0+aNMm7+RUoUMA6d+5s7dq1i6Rr6ciRI/b55597p0XmhnDVoUMHq1+/vgt0OkRABERABERABGJHQAJW7FjqTCIgAiIgAiIgAiIgAr9DgI59c+bMsQEDBnjZHc6sqlWrWq9evbykkOyoKB2UEa5bt85LI0eNGmUZM2b0MHfyvQhzz5w5c5Smo7GKgAiIgAiIQFwTkIAV18ujwYmACIiACIiACIhA4hCgK+Hu3btt9OjR7sRC/MmSJYu1aNHC87BKlSoVqdI75rN3714Pc0eUozQyZ86c7sLq2LGjFS5cOHEWTzMRAREQAREQgXQmIAErnRdADy8CIiACIiACIiACyUQA19KqVats0KBBLmQdOnTIChUq5K6lm2++2QWgs846KxJIQmkkwfT9+/e3qVOnerh72bJl7e6777YbbrhBHQkjsZIapAiIgAiIQBQISMCKwippjCIgAiIgAiIgAiKQIAQQfb7//nvvSvj888/bggULfGaUEN57771WvXr1SHUlZD7fffedTZw40fr162crV670Los33nij3Xfffe4qy5QpU4KsnqYhAiIgAiIgAulHQAJW+rHXI4uACIiACIiACIhAUhKg9G7btm02YsQIGzx4sG3YsMFy5MhhzZs3t27dulmJEiUi05UQAevnn3/2ORDmzpwoK6R8kLnQmTBPnjxJuc6atAiIgAiIgAjEkoAErFjS1LlEQAREQAREQAREQAROisDx48fdrUTp3dixY+2HH35w0YcsLEoJc+XKFZlSQiZ89OhRD6bHhfXJJ58YwlaNGjXs4Ycf9o+4sP70pz+dFBvdSQREQAREQARE4D8JSMDSrhABERABERABERABETjjBBB4jhw5YjNmzLA+ffrYl19+6QJPtWrVrGfPnlavXj0vJYzKkTKg/qWXXrLNmzfbJZdcYp06dbIuXbp4zldUsr2iwlzjFAEREAERSC4CErCSa701WxEQAREQAREQARGIGwKIWFu3brX333/fy+9CV8JWrVpZjx497IorrohUV0IC3JcvX24IWBMmTLDDhw97oDuusmbNmlm2bNnkwoqb3aeBiIAIiIAIRI2ABKyorZjGKwIiIAIiIAIiIAIJRADRZ+3atV5KOHLkSBd9ihUrZvfff7/ddNNNLvpE6di/f79NmTLFXnjhBVuyZIllzJjRatas6YHulBJmzpxZIlaUFlRjFQEREAERiBsCErDiZik0EBEQAREQAREQARFIPgK4sMiPIjeqb9++Nn/+fBd9GjVq5KWEV199daRcWAS6b9++3d5++2174403bMuWLZY1a1Zr2bKllxLSlZD5KQ8r+fa6ZiwCIiACInB6BCRgnR4//bYIiIAIiIAIiIAIiEAMCJAZNXz4cC8lRACicx+ldx07drRLL700UvlRIaB+wIABNn78eMOVVbBgQRew2rZt63PLkCFDDKjpFCIgAiIgAiKQPAQkYCXPWmumIiACIiACIiACIhC3BI4dO2YLFy50F9b06dPtn//857+V3l144YVxO/ZfGxilkPPmzfM8rFmzZvl8yMPCVYa7jIB3HSIgAiIgAiIgAidPQALWybPSPUVABERABERABERABNKIAF389u7da6NGjbJXX33VA90ReQh0v+OOO6xEiRJ29tlnp9Gjx/60zGffvn02duxYn89XX31l5557rjVp0sTzvcqUKSMXVuyx64wiIAIiIAIJTEACVgIvrqYmAiIgAiIgAiIgAlEiQKD7ihUr7JVXXrEPPvjAjhw58kuge9OmTe3iiy+OVHYUItaGDRvszTfftGHDhtmuXbusQIECHuhOKWGWLFkiNZ8o7SWNVQREQAREIPEISMBKvDXVjERABERABERABEQgkgQIdD948KBNmzbNu/gtXrzYzjnnHGvevLnde++9Vrp0af86Kgfz+fHHH23u3LnWu3dvmz17tgtWjRs3tgceeMBLCnFl6RABERABERABEfhjAhKw/piR7iECIiACIiACIiACInCGCJAVtXHjRhs8eLC99dZbtnv3bitSpIhnR9HJL0eOHJFyLSFi7dixw4YOHWqvv/66B9SnDHTPmzevz0ddCc/QBtPDiIAIiIAIRJaABKzILp0GLgIiIAIiIAIiIAKJSYDSQQLQ+/TpY59++qm7rurWresurKpVq9r5558fKcHnhx9+sAULFrirDHcZYlWFChWsR48edu2111rWrFkjNZ/E3HWalQiIgAiIQLwTkIAV7yuk8YmACIiACIiACIhAkhEgO2rnzp02fPhw69+/v3+OyNOiRQu7/fbbvZQwc+bMkRF9mA/5V++//74Huq9fv97Hf91111n37t2tcuXKdt555yXZKmu6IiACIiACIpA6AhKwUsdL9xYBERABERABERABEUhjApTdEei+fPly69evn02YMMEOHTpklNuRh9WuXTsrWbJkZPKjmM/PP/9sX3/9tQ0cONA7E9JxMVeuXNamTRvr3Lmzl0lmyJAhjcnq9CIgAiIgAiIQXQISsKK7dhq5CIiACIiACIiACCQsAUQfRKs5c+a4C4sg9OPHj3t+FAIWwg+iz1lnnRUZBpRGzp8/37OwpkyZ4gHvCHF33XWX3XTTTZYtW7bIuMoiA10DFQEREAERSBgCErASZik1EREQAREQAREQARFILAKU3u3bt8+mTp1qb7zxhn355ZfuzCpVqpTnRzVr1swuvvjiyIg+iHIHDhywjz76yF5++WVbsWKFZcyY0Ro2bGi9evWyihUr+tc6REAEREAEREAE/pOABCztChEQAREQAREQAREQgbglgIhF576PP/7YnUurVq2yTJkyuehDZ0LC0MmTispBl8Vvv/3W873ossjc8uXLZ127drWOHTvapZdeGilXWVS4a5wiIAIiIALRJyABK/prqBmIgAiIgAiIgAiIQEITwHWF6DNkyBB75513PNQ9d+7cHujeoUMHu+yyyyIl+tCVcPHixda7d2+bPn26IWrVrl3bHn/8catUqVJksr0SetNpciIgAiIgAnFHQAJW3C2JBiQCIiACIiACIiACInAiAUQf8qMGDBhgkydP9lD0cuXK2T333OPd/LJkyRKZUsJQGjly5EgPqd+wYYMLct26dXNBjrD6P/3pT9oEIiACIiACIiACKQhIwNJ2EAEREAEREAEREAERiHsC5EfRuW/8+PEu+qxevdpLCa+//nrr3r27O5fOO++8uJ9HGCAiFi6svn37eiYWglz16tXtv/7rv6xGjRqehSURKzLLqYGKgAiIgAicAQISsM4AZD2ECIiACIiACIiACIjA6RNA5Fm3bp1nYY0aNcr27NnjzqXWrVt7ftQVV1xhGTJkOP0HOgNnQJAjoH706NH24osvuguL/CvC6bt06WLZs2ePVFnkGUCmhxABERABEUhyAhKwknwDaPoiIAIiIAIiIAIiECUCR44csYULF9orr7zi3QmPHz9uRYsW9RD0Fi1auKB11llnRWJKjH358uX2j3/8w6ZMmeIdFnGUPfbYY1amTBk755xzIjEPDVIEREAEREAEzgQBCVhngrIeQwREQAREQAREQAREICYEcC4dOHDAc7BwLiEAcVSrVs3uvPNOq1+/vl188cUxeay0Pkkoixw2bJiXRW7ZssVKlChhDz30kDVt2jQy80hrTjq/CIiACIiACEBAApb2gQiIgAiIgAiIgAiIQKQIkB+1adMmLyMcOnSodyi88MIL7dprr7U77rjDKleubBdccEEk5vTjjz/anDlz7JlnnrG5c+f6uFu2bGn33XefO8vOPvvsSMxDgxQBERABERCBtCYgASutCev8IiACIiACIiACIiACMSeA8EOQ+2uvvWYffPCBfffdd3bJJZd4GSEZUqVLl3bxJ96D0BHjNm7c6N0VhwwZYpRIMvY///nP7ibLnDlz3M8h5ourE4qACIiACIjArxCQgKVtIQIiIAIiIAIiIAIiEDkClN8dPXrU5s2bZ4MHD/Y8LMSfggULeh7WLbfc4nlY8e5gYh7ff/+9TZo0yZ5++mlbtWqVlw4SSt+tWzcrVKhQ3M8hcptHAxYBERABEYgkAQlYkVw2DVoEREAEREAEREAERCB08ps5c6Y7sT7//HP75z//6SWEd999t11zzTWWNWvWuHcwMeZvvvnGXnrpJXv//fddiKtQoYLdc8891qhRIxe04t1Jpt0oAiIgAiIgAmlNQAJWWhPW+UVABERABERABERABNKEAAIWtx07dtjo0aPtjTfesLVr13qOFMJPz5497aqrror7bn7M4eDBgx5M36dPHw+mP//8861hw4bWo0cPn8N5550nEStNdpFOKgIiIAIiEBUCErCislIapwiIgAiIgAiIgAiIwK8S+Omnn9zB9Oabb9rIkSM9DytfvnzWq1cva9OmjeXIkSPuxR/mQBbW66+/biNGjPA5XHrppda8eXNr166dlSlTxoU4ObH0JBABERABEUhWAhKwknXlNW8REAEREAEREAERSBACKfOw+vbt6139OJo0aWL333+/lS9fPhIuLILpv/jiC+vfv7998sknno2VJ08ea9++vXXu3NlFuQwZMiTIqmkaIiACIiACIpA6AhKwUsdL9xYBERABERABERABEYhDAnTzo5Rw+PDhnoe1detWK1q0qLuwWrVq5R0K4/1Imek1aNAg++yzzwxn1pVXXmndu3d3QQ5X1llnnRXvU9H4REAEREAERCDmBCRgxRypTigCIiACIiACIiACIpAeBI4dO2bz58/3bn6zZs2yjBkzuuhz3333RaYEj0D3/fv328SJE12IW7JkibvHqlSpYvfee6/Vq1dPeVjpsbn0mCIgAiIgAulOQAJWui+BBiACIiACIiACIiACIhALAsGFNXDgQBd/EIIou+vQoYOX4V122WWRyJBCxNq8ebO9++67nuu1adMmu/DCC+3WW291EatQoUIqJYzFhtE5REAEREAEIkVAAlaklkuDFQEREAEREAEREAER+D0CP/zwg82YMcNdWF9++aV3KSxWrJh3JCQQnVLCKAShHz9+3FauXGkvvfSSffjhh56HValSJfvrX/9qNWvWtMyZM2sjiIAIiIAIiEBSEZCAlVTLrcmKgAiIgAiIgAiIQGITQLDasGGDvfzyyzZ06FA7dOiQlxLWrVvX87CqVatmF110UdxDYB579+61t956y/r162fbtm3zTC/KIVu0aGHZs2eP+zlogCIgAiIgAiIQSwISsGJJU+cSAREQAREQAREQARFIdwK4laZPn269e/e2xYsXG26mbNmy2Q033ODd/CpUqGCZMmWKeycW85g8ebI988wztmLFCi8jbNSokfXo0cPKlStn5557btzPId03gwYgAiIgAiKQMAQkYCXMUmoiIiACIiACIiACIiACECALa9++ffbxxx/bsGHDbOHChUZpIR38brvtNuvatavnYZ199tlxDYwOhKtXr7b+/fvbe++9526yPHnyeKZXu3btrHDhwnE/h7gGrMGJgAiIgAhEioAErEgtlwYrAiIgAiIgAiIgAiJwMgQQsSjBoxshItacOXNcxCpdurQ7mHBjUYYXz3lYlBEePnzY5/Dqq6/aZ5995m6yyy+/3Nq0aeO3ggULKtD9ZDaE7iMCIiACIhB5AhKwIr+EmoAIiIAIiIAIiIAIiMCvEQg5UhMnTnQBaNmyZR5+Xq9ePbv77rutcuXKdv7558e1iMW8du7caePGjfPOigS7I7oVKFDAg+lxlEUlmF67VAREQAREQAROh4AErNOhp98VAREQAREQAREQARGIawL//Oc/7dtvv7UhQ4Z4IPru3bs9D4sg9Ntvv92uvPJKz5KK54NSQoLpKSXETUYp4TnnnGMNGza0v/zlL56HlSFDhniegsYmAiIgAiIgAqdNQALWaSPUCURABERABERABERABOKZwLFjx2zBggUuAH3yySdGODoOptatW1vbtm29ux8CUDyXE/744482bdo0e+KJJ2zp0qWe88W4cWExD1xYZ511Vjwvg8YmAiIgAiIgAqdFQALWaeHTL4uACIiACIiACIiACMQ7AUoJ9+/fbzNmzLBBgwbZ3LlzDVcTAlCXLl2sWbNmlj9//rgORGcOO3bs8PGPGDHCNm/e7IJV3bp17YEHHvilHDLe10LjEwEREAEREIFTJSAB61TJ6fdEQAREQAREQAREQAQiQwDHEuWDH330kb3xxhueh4UoRPkdXQkJdae0MJ47EyK6ffPNN/b+++97KeGWLVssV65c1rJlS+vYsaOVLFky7p1kkdkwGqgIiIAIiEDcEZCAFXdLogGJgAiIgAiIgAiIgAikBQFErG3bttnYsWPt9ddft/Xr17vgU7NmTQ91r1GjhmXJkiUtHjom50Rwo5Rw0aJF9vLLL9ukSZP8a8ohyfMi0D1v3rzKw4oJbZ1EBERABEQg3ghIwIq3FdF4REAEREAEREAEREAE0owALqYQ6v7OO+94Wd4FF1xgVatWtTvuuMM7FF544YVxm4eFiPXdd9/ZlClTvCvh4sWL7eeff7ayZcv6+G+88UbLkSNH3I4/zRZWJxYBERABEUh4AhKwEn6JNUEREAEREAEREAEREIGUBI4fP26zZ8+2p59++pc8rEyZMv3ixKpTp05ci1h0VqR88IMPPrChQ4d6WWHGjBmtdu3a9sgjj3geFl/Hcyi9dqQIiIAIiIAIpJaABKzUEtP9RUAEREAEREAEREAEIk2AUsINGzZY3759PUvq6NGjPp/MmTO7E6tXr15Wq1at/7+9e3nVud3DAH6XQyLHKGcykUTEQBlJzJkxUDIQZWpi7O+QjBgpGToMRGImIRRyzCHHUAa7712/3Wq33zet7d3rcfmsWq3lsQ7P9bnW6Or+/Z42a9askR2B6iRZZTh16lQ7ceJEv7/XokWL+oC1Z8+eNnfu3JF97r/1H48nT4AAAQITJmDAmjB6v5gAAQIECBAgQGAiBOoyvE+fPrVLly71V/W7efNmf5XCuhSvLifcuXNnO3DgQNuyZUsfserV/kbx7du3b+3y5cvt+PHjPUMNcIcOHWqHDx9uixcvNmCNYmmeEwECBAiMW8CANW4630iAAAECBAgQIPA7CtSAVaewPnz40B48eNAvIzx37lwfgT5//txfjbDuhVU3Rq8Ra/bs2SM3YlWGGrDqudelkFevXu0D1sGDB9uRI0cMWL/jH6bnTIAAAQJ/K2DA8gdCgAABAgQIECDwRwrUiFX3w3rz5k0fgupyvPpYI1Zdgrdt27a2b9++tnXr1pE5iVXDVd0D6+PHj+3evXvt7Nmz7fTp0+358+dt/vz57ejRo/3VCGuEcw+sP/LPWmgCBAjEChiwYqsVjAABAgQIECBA4GcEasiqSwjrFFONWHVpYZ3OqssH6yTW/v3728aNG/tANGnSpH//yP/XQFSjVb3V86z7db169apdv369nT9/vl25cqW9fPmynxCrm7cfO3as34x++vTpPxPd1xAgQIAAgd9GwID121TliRIgQIAAAQIECPxTAsOIVZcRnjx5sl24cKG9e/eun8TavHlz27FjR/+4bNmyfknhtGnT2pQpU/pwVEPW/zpm1Ug1DFXDWFUf67E6Jfbly5f24sWLdufOnX5K7Nq1a/3yx3q8XkFx3bp1be/evW3Xrl398sFRvW/XP9Wfn0uAAAEC+QIGrPyOJSRAgAABAgQIEPgJgeG+WDUO1UmsGrHqZNbUqVP7K/ytXr26rV27tq1ataotXbq0LVmypM2bN6+fdqoxq05nDUPWzw5aNVDVKwoO7zVW1effv3/vw1W91ysM3r9/v926dau/P378uF9CWCNVnQqr02G7d+/up8XqOdVz8UaAAAECBNIEDFhpjcpDgAABAgQIECAwboFhxLpx40Y7c+ZMu3jxYr+/VD1eA9WMGTPazJkz24IFC9ry5cv7iawakebMmdNvol5fMwxZY8es+v7hpNbY01Y1VtUrItZQ9v79+/55XSY4DFj1sU6C1WWCdVljDVr1s+o51KBWo9X27dv7sFZj2tgRbdwIvpEAAQIECIyggAFrBEvxlAgQIECAAAECBCZOoAaiujTv7t27fcCqe2LV5Xpv377tr/z348ePPkZNnjy5X75Xw9VwSeEwUv3nSawareqxOjVVP38YtOpjjVRfv37tP7tu0F7vw+WEwysm1vfWyaq6L9fKlSvbpk2b+k3mN2zY0E+H1e//2VNfEyfrNxMgQIAAgfELGLDGb+c7CRAgQIAAAQIEQgWGS/vq9NNw+d7t27fbw4cP27Nnz/qYVa9WWOPTMEYNo1MNSfVYvdXnYx8f+3n9f/17uF/VMIoNp6jq8XqvcapOV9WJq/Xr1/fRas2aNW3hwoX9RNivuAdXaI1iESBAgECQgAErqExRCBAgQIAAAQIEfq1ADVF1mV+NVXWZ3+vXr/uA9ejRo/bkyZP29OnTfonfcDKrvn44QTX2RNRwAmsYtIbRq05x1UBVQ1TdHL5uGl+nrOq0Vf1f3X+rHq97W61YsaKftqqvqe8ZbiD/axP7aQQIECBAYDQFDFij2YtnRYAAAQIECBAgMGICw6V/dQlhDVZ1v6q6L1UNW/XvGrqGAaue+nAy6r+dxhpOYtVAVZch1o3g675WNWTV58M4VSNW/Zz6unqv01neCBAgQIDAnyhgwPoTW5eZAAECBAgQIEBg3AJj709Vp61qoBp7Y/bhssDhlNXYXzT2ksJh5KqPw+WCf3Wqyv2txl2XbyRAgACBEAEDVkiRYhAgQIAAAQIECBAgQIAAAQIEUgUMWKnNykWAAAECBAgQIECAAAECBAgQCBEwYIUUKQYBAgQIECBAgAABAgQIECBAIFXAgJXarFwECBAgQIAAAQIECBAgQIAAgRABA1ZIkWIQIECAAAECBAgQIECAAAECBFIFDFipzcpFgAABAgQIECBAgAABAgQIEAgRMGCFFCkGAQIECBAgQIAAAQIECBAgQCBVwICV2qxcBAgQIECAAAECBAgQIECAAIEQAQNWSJFiECBAgAABAgQIECBAgAABAgRSBQxYqc3KRYAAAQIECBAgQIAAAQIECBAIETBghRQpBgECBAgQIECAAAECBAgQIEAgVcCAldqsXAQIECBAgAABAgQIECBAgACBEAEDVkiRYhAgQIAAAQIECBAgQIAAAQIEUgUMWKnNykWAAAECBAgQIECAAAECBAgQCBEwYIUUKQYBAgQIECBAgAABAgQIECBAIFXAgJXarFwECBAgQIAAAQIECBAgQIAAgRABA1ZIkWIQIECAAAECBAgQIECAAAECBFIFDFipzcpFgAABAgQIECBAgAABAgQIEAgRMGCFFCkGAQIECBAgQIAAAQIECBAgQCBVwICV2qxcBAgQIECAAAECBAgQIECAAIEQAQNWSJFiECBAgAABAgQIECBAgAABAgRSBQxYqc3KRYAAAQIECBAgQIAAAQIECBAIETBghRQpBgECBAgQIECAAAECBAgQIEAgVcCAldqsXAQIECBAgAABAgQIECBAgACBEAEDVkiRYhAgQIAAAQIECBAgQIAAAQIEUgUMWKnNykWAAAECBAgQIECAAAECBAgQCBEwYIUUKQYBAgQIECBAgAABAgQIECBAIFXAgJXarFwECBAgQIAAAQIECBAgQIAAgRABA1ZIkWIQIECAAAECBAgQIECAAAECBFIFDFipzcpFgAABAgQIECBAgAABAgQIEAgRMGCFFCkGAQIECBAgQIAAAQIECBAgQCBVwICV2qxcBAgQIECAAAECBAgQIECAAIEQAQNWSJFiECBAgAABAgQIECBAgAABAgRSBQxYqc3KRYAAAQIECBAgQIAAAQIECBAIETBghRQpBgECBAgQIECAAAECBAgQIEAgVcCAldqsXAQIECBAgAABAgQIECBAgACBEAEDVkiRYhAgQIAAAQIECBAgQIAAAQIEUgUMWKnNykWAAAECBAgQIECAAAECBAgQCBEwYIUUKQYBAgQIECBAgAABAgQIECBAIFXAgJXarFwECBAgQIAAAQIECBAgQIAAgRABA1ZIkWIQIECAAAECBAgQIECAAAECBFIFDFipzcpFgAABAgQIECBAgAABAgQIEAgRMGCFFCkGAQIECBAgQIAAAQIECBAgQCBVwICV2qxcBAgQIECAAAECBAgQIECAAIEQAQNWSJFiECBAgAABAgQIECBAgAABAgRSBQxYqc3KRYAAAQIECBAgQIAAAQIECBAIETBghRQpBgECBAgQIECAAAECBAgQIEAgVcCAldqsXAQIECBAgAABAgQIECBAgACBEAEDVkiRYhAgQIAAAQIECBAgQIAAAQIEUgUMWKnNykWAAAECBAgQIECAAAECBAgQCBEwYIUUKQYBAgQIECBAgAABAgQIECBAIFXAgJXarFwECBAgQIAAAQIECBAgQIAAgRABA1ZIkWIQIECAAAECBAgQIECAAAECBFIFDFipzcpFgAABAgQIECBAgAABAgQIEAgRMGCFFCkGAQIECBAgQIAAAQIECBAgQCBVwICV2qxcBAgQIECAAAECBAgQIECAAIEQAQNWSJFiECBAgAABAgQIECBAgAABAgRSBQxYqc3KRYAAAQIECBAgQIAAAQIECBAIETBghRQpBgECBAgQIECAAAECBAgQIEAgVcCAldqsXAQIECBAgAABAgQIECBAgACBEAEDVkiRYhAgQIAAAQIECBAgQIAAAQIEUgUMWKnNykWAAAECBAgQIECAAAECBAgQCBEwYIUUKQYBAgQIECBAgAABAgQIECBAIFXAgJXarFwECBAgQIAAAQIECBAgQIAAgRABA1ZIkWIQIECAAAECBAjViweyAAAGIElEQVQQIECAAAECBFIFDFipzcpFgAABAgQIECBAgAABAgQIEAgRMGCFFCkGAQIECBAgQIAAAQIECBAgQCBVwICV2qxcBAgQIECAAAECBAgQIECAAIEQAQNWSJFiECBAgAABAgQIECBAgAABAgRSBQxYqc3KRYAAAQIECBAgQIAAAQIECBAIETBghRQpBgECBAgQIECAAAECBAgQIEAgVcCAldqsXAQIECBAgAABAgQIECBAgACBEAEDVkiRYhAgQIAAAQIECBAgQIAAAQIEUgUMWKnNykWAAAECBAgQIECAAAECBAgQCBEwYIUUKQYBAgQIECBAgAABAgQIECBAIFXAgJXarFwECBAgQIAAAQIECBAgQIAAgRABA1ZIkWIQIECAAAECBAgQIECAAAECBFIFDFipzcpFgAABAgQIECBAgAABAgQIEAgRMGCFFCkGAQIECBAgQIAAAQIECBAgQCBVwICV2qxcBAgQIECAAAECBAgQIECAAIEQAQNWSJFiECBAgAABAgQIECBAgAABAgRSBQxYqc3KRYAAAQIECBAgQIAAAQIECBAIETBghRQpBgECBAgQIECAAAECBAgQIEAgVcCAldqsXAQIECBAgAABAgQIECBAgACBEAEDVkiRYhAgQIAAAQIECBAgQIAAAQIEUgUMWKnNykWAAAECBAgQIECAAAECBAgQCBEwYIUUKQYBAgQIECBAgAABAgQIECBAIFXAgJXarFwECBAgQIAAAQIECBAgQIAAgRABA1ZIkWIQIECAAAECBAgQIECAAAECBFIFDFipzcpFgAABAgQIECBAgAABAgQIEAgRMGCFFCkGAQIECBAgQIAAAQIECBAgQCBVwICV2qxcBAgQIECAAAECBAgQIECAAIEQAQNWSJFiECBAgAABAgQIECBAgAABAgRSBQxYqc3KRYAAAQIECBAgQIAAAQIECBAIETBghRQpBgECBAgQIECAAAECBAgQIEAgVcCAldqsXAQIECBAgAABAgQIECBAgACBEAEDVkiRYhAgQIAAAQIECBAgQIAAAQIEUgUMWKnNykWAAAECBAgQIECAAAECBAgQCBEwYIUUKQYBAgQIECBAgAABAgQIECBAIFXAgJXarFwECBAgQIAAAQIECBAgQIAAgRABA1ZIkWIQIECAAAECBAgQIECAAAECBFIFDFipzcpFgAABAgQIECBAgAABAgQIEAgRMGCFFCkGAQIECBAgQIAAAQIECBAgQCBVwICV2qxcBAgQIECAAAECBAgQIECAAIEQAQNWSJFiECBAgAABAgQIECBAgAABAgRSBQxYqc3KRYAAAQIECBAgQIAAAQIECBAIETBghRQpBgECBAgQIECAAAECBAgQIEAgVcCAldqsXAQIECBAgAABAgQIECBAgACBEAEDVkiRYhAgQIAAAQIECBAgQIAAAQIEUgUMWKnNykWAAAECBAgQIECAAAECBAgQCBEwYIUUKQYBAgQIECBAgAABAgQIECBAIFXAgJXarFwECBAgQIAAAQIECBAgQIAAgRABA1ZIkWIQIECAAAECBAgQIECAAAECBFIFDFipzcpFgAABAgQIECBAgAABAgQIEAgRMGCFFCkGAQIECBAgQIAAAQIECBAgQCBVwICV2qxcBAgQIECAAAECBAgQIECAAIEQAQNWSJFiECBAgAABAgQIECBAgAABAgRSBQxYqc3KRYAAAQIECBAgQIAAAQIECBAIETBghRQpBgECBAgQIECAAAECBAgQIEAgVcCAldqsXAQIECBAgAABAgQIECBAgACBEAEDVkiRYhAgQIAAAQIECBAgQIAAAQIEUgUMWKnNykWAAAECBAgQIECAAAECBAgQCBEwYIUUKQYBAgQIECBAgAABAgQIECBAIFXAgJXarFwECBAgQIAAAQIECBAgQIAAgRABA1ZIkWIQIECAAAECBAgQIECAAAECBFIFDFipzcpFgAABAgQIECBAgAABAgQIEAgRMGCFFCkGAQIECBAgQIAAAQIECBAgQCBVwICV2qxcBAgQIECAAAECBAgQIECAAIEQAQNWSJFiECBAgAABAgQIECBAgAABAgRSBf4F+/aTi5JbtbIAAAAASUVORK5CYII=;" vertex="1" parent="1">
          <mxGeometry x="-163.32999999999998" y="-70" width="1226.67" height="920" as="geometry" />
        </mxCell>
        <mxCell id="EB9xk-Qg2N86TKkpJkFX-1" value="" style="rounded=0;whiteSpace=wrap;html=1;fillColor=light-dark(#EDF7FE,#281D00);strokeColor=none;" vertex="1" parent="1">
          <mxGeometry x="260" y="170" width="360" height="185" as="geometry" />
        </mxCell>
        <mxCell id="6_BgS3UIXrI-bBICyFOS-2" value="a" style="shape=trapezoid;perimeter=trapezoidPerimeter;whiteSpace=wrap;html=1;fixedSize=1;rotation=90;" vertex="1" parent="1">
          <mxGeometry x="90" y="140" width="120" height="60" as="geometry" />
        </mxCell>
        <mxCell id="6_BgS3UIXrI-bBICyFOS-3" value="" style="shape=trapezoid;perimeter=trapezoidPerimeter;whiteSpace=wrap;html=1;fixedSize=1;rotation=90;" vertex="1" parent="1">
          <mxGeometry x="90" y="310" width="120" height="60" as="geometry" />
        </mxCell>
        <mxCell id="6_BgS3UIXrI-bBICyFOS-5" value="VQ1" style="rounded=0;whiteSpace=wrap;html=1;rotation=90;fillColor=#dae8fc;strokeColor=#6c8ebf;" vertex="1" parent="1">
          <mxGeometry x="254" y="250" width="80" height="20" as="geometry" />
        </mxCell>
        <mxCell id="6_BgS3UIXrI-bBICyFOS-8" value="" style="ellipse;whiteSpace=wrap;html=1;aspect=fixed;fillColor=#f5f5f5;fontColor=#333333;strokeColor=#666666;" vertex="1" parent="1">
          <mxGeometry x="320" y="251" width="18" height="18" as="geometry" />
        </mxCell>
        <mxCell id="6_BgS3UIXrI-bBICyFOS-10" value="" style="endArrow=none;html=1;rounded=0;strokeWidth=2;" edge="1" parent="1">
          <mxGeometry width="50" height="50" relative="1" as="geometry">
            <mxPoint x="324" y="260" as="sourcePoint" />
            <mxPoint x="334" y="260" as="targetPoint" />
          </mxGeometry>
        </mxCell>
        <mxCell id="6_BgS3UIXrI-bBICyFOS-20" value="" style="ellipse;whiteSpace=wrap;html=1;aspect=fixed;fillColor=#f5f5f5;fontColor=#333333;strokeColor=#666666;" vertex="1" parent="1">
          <mxGeometry x="321" y="320" width="18" height="18" as="geometry" />
        </mxCell>
        <mxCell id="6_BgS3UIXrI-bBICyFOS-21" value="" style="endArrow=none;html=1;rounded=0;" edge="1" parent="1">
          <mxGeometry width="50" height="50" relative="1" as="geometry">
            <mxPoint x="325" y="329" as="sourcePoint" />
            <mxPoint x="335" y="329" as="targetPoint" />
          </mxGeometry>
        </mxCell>
        <mxCell id="6_BgS3UIXrI-bBICyFOS-22" value="" style="endArrow=none;html=1;rounded=0;" edge="1" parent="1">
          <mxGeometry width="50" height="50" relative="1" as="geometry">
            <mxPoint x="330" y="334" as="sourcePoint" />
            <mxPoint x="330" y="324" as="targetPoint" />
          </mxGeometry>
        </mxCell>
        <mxCell id="6_BgS3UIXrI-bBICyFOS-38" value="" style="endArrow=classic;html=1;rounded=0;strokeWidth=1;endSize=2;entryX=0;entryY=0.5;entryDx=0;entryDy=0;" edge="1" parent="1" target="6_BgS3UIXrI-bBICyFOS-8">
          <mxGeometry width="50" height="50" relative="1" as="geometry">
            <mxPoint x="304" y="260" as="sourcePoint" />
            <mxPoint x="321" y="260" as="targetPoint" />
          </mxGeometry>
        </mxCell>
        <mxCell id="6_BgS3UIXrI-bBICyFOS-42" value="" style="endArrow=classic;html=1;rounded=0;endSize=2;entryX=0.5;entryY=1;entryDx=0;entryDy=0;exitX=1;exitY=0.5;exitDx=0;exitDy=0;" edge="1" parent="1" source="6_BgS3UIXrI-bBICyFOS-8" target="6_BgS3UIXrI-bBICyFOS-107">
          <mxGeometry width="50" height="50" relative="1" as="geometry">
            <mxPoint x="340" y="260" as="sourcePoint" />
            <mxPoint x="360" y="260" as="targetPoint" />
          </mxGeometry>
        </mxCell>
        <mxCell id="6_BgS3UIXrI-bBICyFOS-56" value="" style="endArrow=classic;html=1;rounded=0;endSize=2;" edge="1" parent="1">
          <mxGeometry width="50" height="50" relative="1" as="geometry">
            <mxPoint x="310" y="260" as="sourcePoint" />
            <mxPoint x="330" y="320" as="targetPoint" />
            <Array as="points">
              <mxPoint x="310" y="290" />
              <mxPoint x="330" y="290" />
              <mxPoint x="330" y="320" />
            </Array>
          </mxGeometry>
        </mxCell>
        <mxCell id="6_BgS3UIXrI-bBICyFOS-84" value="" style="endArrow=classic;html=1;rounded=0;endSize=2;entryX=0.5;entryY=0;entryDx=0;entryDy=0;" edge="1" parent="1" target="6_BgS3UIXrI-bBICyFOS-8">
          <mxGeometry width="50" height="50" relative="1" as="geometry">
            <mxPoint x="270" y="260" as="sourcePoint" />
            <mxPoint x="330" y="250" as="targetPoint" />
            <Array as="points">
              <mxPoint x="270" y="210" />
              <mxPoint x="300" y="210" />
              <mxPoint x="329" y="210" />
            </Array>
          </mxGeometry>
        </mxCell>
        <mxCell id="6_BgS3UIXrI-bBICyFOS-92" value="" style="endArrow=classic;html=1;rounded=0;endSize=2;" edge="1" parent="1">
          <mxGeometry width="50" height="50" relative="1" as="geometry">
            <mxPoint x="250" y="260" as="sourcePoint" />
            <mxPoint x="284" y="260" as="targetPoint" />
          </mxGeometry>
        </mxCell>
        <mxCell id="6_BgS3UIXrI-bBICyFOS-107" value="VQ1" style="rounded=0;whiteSpace=wrap;html=1;rotation=90;fillColor=#dae8fc;strokeColor=#6c8ebf;" vertex="1" parent="1">
          <mxGeometry x="332" y="250" width="80" height="20" as="geometry" />
        </mxCell>
        <mxCell id="6_BgS3UIXrI-bBICyFOS-108" value="" style="ellipse;whiteSpace=wrap;html=1;aspect=fixed;fillColor=#f5f5f5;fontColor=#333333;strokeColor=#666666;" vertex="1" parent="1">
          <mxGeometry x="398" y="251" width="18" height="18" as="geometry" />
        </mxCell>
        <mxCell id="6_BgS3UIXrI-bBICyFOS-109" value="" style="endArrow=none;html=1;rounded=0;strokeWidth=2;" edge="1" parent="1">
          <mxGeometry width="50" height="50" relative="1" as="geometry">
            <mxPoint x="402" y="260" as="sourcePoint" />
            <mxPoint x="412" y="260" as="targetPoint" />
          </mxGeometry>
        </mxCell>
        <mxCell id="6_BgS3UIXrI-bBICyFOS-110" value="" style="ellipse;whiteSpace=wrap;html=1;aspect=fixed;fillColor=#f5f5f5;fontColor=#333333;strokeColor=#666666;" vertex="1" parent="1">
          <mxGeometry x="399" y="320" width="18" height="18" as="geometry" />
        </mxCell>
        <mxCell id="6_BgS3UIXrI-bBICyFOS-111" value="" style="endArrow=none;html=1;rounded=0;" edge="1" parent="1">
          <mxGeometry width="50" height="50" relative="1" as="geometry">
            <mxPoint x="403" y="329" as="sourcePoint" />
            <mxPoint x="413" y="329" as="targetPoint" />
          </mxGeometry>
        </mxCell>
        <mxCell id="6_BgS3UIXrI-bBICyFOS-112" value="" style="endArrow=none;html=1;rounded=0;" edge="1" parent="1">
          <mxGeometry width="50" height="50" relative="1" as="geometry">
            <mxPoint x="408" y="334" as="sourcePoint" />
            <mxPoint x="408" y="324" as="targetPoint" />
          </mxGeometry>
        </mxCell>
        <mxCell id="6_BgS3UIXrI-bBICyFOS-113" value="" style="endArrow=classic;html=1;rounded=0;strokeWidth=1;endSize=2;entryX=0;entryY=0.5;entryDx=0;entryDy=0;" edge="1" parent="1" target="6_BgS3UIXrI-bBICyFOS-108">
          <mxGeometry width="50" height="50" relative="1" as="geometry">
            <mxPoint x="382" y="260" as="sourcePoint" />
            <mxPoint x="399" y="260" as="targetPoint" />
          </mxGeometry>
        </mxCell>
        <mxCell id="6_BgS3UIXrI-bBICyFOS-114" value="" style="endArrow=classic;html=1;rounded=0;endSize=2;entryX=0.5;entryY=1;entryDx=0;entryDy=0;exitX=1;exitY=0.5;exitDx=0;exitDy=0;" edge="1" parent="1" source="6_BgS3UIXrI-bBICyFOS-108" target="6_BgS3UIXrI-bBICyFOS-118">
          <mxGeometry width="50" height="50" relative="1" as="geometry">
            <mxPoint x="420" y="260" as="sourcePoint" />
            <mxPoint x="437" y="260" as="targetPoint" />
          </mxGeometry>
        </mxCell>
        <mxCell id="6_BgS3UIXrI-bBICyFOS-115" value="" style="endArrow=classic;html=1;rounded=0;endSize=2;" edge="1" parent="1">
          <mxGeometry width="50" height="50" relative="1" as="geometry">
            <mxPoint x="388" y="260" as="sourcePoint" />
            <mxPoint x="408" y="320" as="targetPoint" />
            <Array as="points">
              <mxPoint x="388" y="290" />
              <mxPoint x="408" y="290" />
              <mxPoint x="408" y="320" />
            </Array>
          </mxGeometry>
        </mxCell>
        <mxCell id="6_BgS3UIXrI-bBICyFOS-116" value="" style="endArrow=classic;html=1;rounded=0;endSize=2;entryX=0.5;entryY=0;entryDx=0;entryDy=0;" edge="1" parent="1" target="6_BgS3UIXrI-bBICyFOS-108">
          <mxGeometry width="50" height="50" relative="1" as="geometry">
            <mxPoint x="348" y="260" as="sourcePoint" />
            <mxPoint x="408" y="250" as="targetPoint" />
            <Array as="points">
              <mxPoint x="348" y="210" />
              <mxPoint x="378" y="210" />
              <mxPoint x="407" y="210" />
            </Array>
          </mxGeometry>
        </mxCell>
        <mxCell id="6_BgS3UIXrI-bBICyFOS-118" value="VQ1" style="rounded=0;whiteSpace=wrap;html=1;rotation=90;fillColor=#dae8fc;strokeColor=#6c8ebf;" vertex="1" parent="1">
          <mxGeometry x="410" y="250" width="80" height="20" as="geometry" />
        </mxCell>
        <mxCell id="6_BgS3UIXrI-bBICyFOS-119" value="" style="ellipse;whiteSpace=wrap;html=1;aspect=fixed;fillColor=#f5f5f5;fontColor=#333333;strokeColor=#666666;" vertex="1" parent="1">
          <mxGeometry x="476" y="251" width="18" height="18" as="geometry" />
        </mxCell>
        <mxCell id="6_BgS3UIXrI-bBICyFOS-120" value="" style="endArrow=none;html=1;rounded=0;strokeWidth=2;" edge="1" parent="1">
          <mxGeometry width="50" height="50" relative="1" as="geometry">
            <mxPoint x="480" y="260" as="sourcePoint" />
            <mxPoint x="490" y="260" as="targetPoint" />
          </mxGeometry>
        </mxCell>
        <mxCell id="6_BgS3UIXrI-bBICyFOS-121" value="" style="ellipse;whiteSpace=wrap;html=1;aspect=fixed;fillColor=#f5f5f5;fontColor=#333333;strokeColor=#666666;" vertex="1" parent="1">
          <mxGeometry x="477" y="320" width="18" height="18" as="geometry" />
        </mxCell>
        <mxCell id="6_BgS3UIXrI-bBICyFOS-122" value="" style="endArrow=none;html=1;rounded=0;" edge="1" parent="1">
          <mxGeometry width="50" height="50" relative="1" as="geometry">
            <mxPoint x="481" y="329" as="sourcePoint" />
            <mxPoint x="491" y="329" as="targetPoint" />
          </mxGeometry>
        </mxCell>
        <mxCell id="6_BgS3UIXrI-bBICyFOS-123" value="" style="endArrow=none;html=1;rounded=0;" edge="1" parent="1">
          <mxGeometry width="50" height="50" relative="1" as="geometry">
            <mxPoint x="486" y="334" as="sourcePoint" />
            <mxPoint x="486" y="324" as="targetPoint" />
          </mxGeometry>
        </mxCell>
        <mxCell id="6_BgS3UIXrI-bBICyFOS-124" value="" style="endArrow=classic;html=1;rounded=0;strokeWidth=1;endSize=2;entryX=0;entryY=0.5;entryDx=0;entryDy=0;" edge="1" parent="1" target="6_BgS3UIXrI-bBICyFOS-119">
          <mxGeometry width="50" height="50" relative="1" as="geometry">
            <mxPoint x="460" y="260" as="sourcePoint" />
            <mxPoint x="477" y="260" as="targetPoint" />
          </mxGeometry>
        </mxCell>
        <mxCell id="6_BgS3UIXrI-bBICyFOS-125" value="" style="endArrow=classic;html=1;rounded=0;endSize=2;entryX=0.5;entryY=1;entryDx=0;entryDy=0;exitX=1;exitY=0.5;exitDx=0;exitDy=0;" edge="1" parent="1" source="6_BgS3UIXrI-bBICyFOS-119" target="6_BgS3UIXrI-bBICyFOS-128">
          <mxGeometry width="50" height="50" relative="1" as="geometry">
            <mxPoint x="495" y="260" as="sourcePoint" />
            <mxPoint x="515" y="260" as="targetPoint" />
          </mxGeometry>
        </mxCell>
        <mxCell id="6_BgS3UIXrI-bBICyFOS-126" value="" style="endArrow=classic;html=1;rounded=0;endSize=2;" edge="1" parent="1">
          <mxGeometry width="50" height="50" relative="1" as="geometry">
            <mxPoint x="466" y="260" as="sourcePoint" />
            <mxPoint x="486" y="320" as="targetPoint" />
            <Array as="points">
              <mxPoint x="466" y="290" />
              <mxPoint x="486" y="290" />
              <mxPoint x="486" y="320" />
            </Array>
          </mxGeometry>
        </mxCell>
        <mxCell id="6_BgS3UIXrI-bBICyFOS-127" value="" style="endArrow=classic;html=1;rounded=0;endSize=2;entryX=0.5;entryY=0;entryDx=0;entryDy=0;" edge="1" parent="1" target="6_BgS3UIXrI-bBICyFOS-119">
          <mxGeometry width="50" height="50" relative="1" as="geometry">
            <mxPoint x="426" y="260" as="sourcePoint" />
            <mxPoint x="486" y="250" as="targetPoint" />
            <Array as="points">
              <mxPoint x="426" y="210" />
              <mxPoint x="456" y="210" />
              <mxPoint x="485" y="210" />
            </Array>
          </mxGeometry>
        </mxCell>
        <mxCell id="6_BgS3UIXrI-bBICyFOS-128" value="VQ1" style="rounded=0;whiteSpace=wrap;html=1;rotation=90;fillColor=#dae8fc;strokeColor=#6c8ebf;" vertex="1" parent="1">
          <mxGeometry x="488" y="250" width="80" height="20" as="geometry" />
        </mxCell>
        <mxCell id="6_BgS3UIXrI-bBICyFOS-129" value="" style="ellipse;whiteSpace=wrap;html=1;aspect=fixed;fillColor=#f5f5f5;fontColor=#333333;strokeColor=#666666;" vertex="1" parent="1">
          <mxGeometry x="554" y="251" width="18" height="18" as="geometry" />
        </mxCell>
        <mxCell id="6_BgS3UIXrI-bBICyFOS-130" value="" style="endArrow=none;html=1;rounded=0;strokeWidth=2;" edge="1" parent="1">
          <mxGeometry width="50" height="50" relative="1" as="geometry">
            <mxPoint x="558" y="260" as="sourcePoint" />
            <mxPoint x="568" y="260" as="targetPoint" />
          </mxGeometry>
        </mxCell>
        <mxCell id="6_BgS3UIXrI-bBICyFOS-131" value="" style="ellipse;whiteSpace=wrap;html=1;aspect=fixed;fillColor=#f5f5f5;fontColor=#333333;strokeColor=#666666;" vertex="1" parent="1">
          <mxGeometry x="581" y="320" width="18" height="18" as="geometry" />
        </mxCell>
        <mxCell id="6_BgS3UIXrI-bBICyFOS-132" value="" style="endArrow=none;html=1;rounded=0;" edge="1" parent="1">
          <mxGeometry width="50" height="50" relative="1" as="geometry">
            <mxPoint x="585" y="329" as="sourcePoint" />
            <mxPoint x="595" y="329" as="targetPoint" />
          </mxGeometry>
        </mxCell>
        <mxCell id="6_BgS3UIXrI-bBICyFOS-133" value="" style="endArrow=none;html=1;rounded=0;" edge="1" parent="1">
          <mxGeometry width="50" height="50" relative="1" as="geometry">
            <mxPoint x="590" y="334" as="sourcePoint" />
            <mxPoint x="590" y="324" as="targetPoint" />
          </mxGeometry>
        </mxCell>
        <mxCell id="6_BgS3UIXrI-bBICyFOS-134" value="" style="endArrow=classic;html=1;rounded=0;strokeWidth=1;endSize=2;entryX=0;entryY=0.5;entryDx=0;entryDy=0;" edge="1" parent="1" target="6_BgS3UIXrI-bBICyFOS-129">
          <mxGeometry width="50" height="50" relative="1" as="geometry">
            <mxPoint x="538" y="260" as="sourcePoint" />
            <mxPoint x="555" y="260" as="targetPoint" />
          </mxGeometry>
        </mxCell>
        <mxCell id="6_BgS3UIXrI-bBICyFOS-135" value="" style="endArrow=classic;html=1;rounded=0;endSize=2;" edge="1" parent="1">
          <mxGeometry width="50" height="50" relative="1" as="geometry">
            <mxPoint x="572" y="260" as="sourcePoint" />
            <mxPoint x="590" y="320" as="targetPoint" />
            <Array as="points">
              <mxPoint x="590" y="260" />
            </Array>
          </mxGeometry>
        </mxCell>
        <mxCell id="6_BgS3UIXrI-bBICyFOS-137" value="" style="endArrow=classic;html=1;rounded=0;endSize=2;entryX=0.5;entryY=0;entryDx=0;entryDy=0;" edge="1" parent="1" target="6_BgS3UIXrI-bBICyFOS-129">
          <mxGeometry width="50" height="50" relative="1" as="geometry">
            <mxPoint x="504" y="260" as="sourcePoint" />
            <mxPoint x="564" y="250" as="targetPoint" />
            <Array as="points">
              <mxPoint x="504" y="210" />
              <mxPoint x="534" y="210" />
              <mxPoint x="563" y="210" />
            </Array>
          </mxGeometry>
        </mxCell>
        <mxCell id="6_BgS3UIXrI-bBICyFOS-141" value="" style="endArrow=classic;html=1;rounded=0;endSize=2;entryX=0;entryY=0.5;entryDx=0;entryDy=0;exitX=1;exitY=0.5;exitDx=0;exitDy=0;" edge="1" parent="1" source="6_BgS3UIXrI-bBICyFOS-20" target="6_BgS3UIXrI-bBICyFOS-110">
          <mxGeometry width="50" height="50" relative="1" as="geometry">
            <mxPoint x="340" y="330" as="sourcePoint" />
            <mxPoint x="364" y="329" as="targetPoint" />
          </mxGeometry>
        </mxCell>
        <mxCell id="6_BgS3UIXrI-bBICyFOS-142" value="" style="endArrow=classic;html=1;rounded=0;endSize=2;entryX=0;entryY=0.5;entryDx=0;entryDy=0;exitX=1;exitY=0.5;exitDx=0;exitDy=0;" edge="1" parent="1">
          <mxGeometry width="50" height="50" relative="1" as="geometry">
            <mxPoint x="417" y="328.86" as="sourcePoint" />
            <mxPoint x="477" y="328.86" as="targetPoint" />
          </mxGeometry>
        </mxCell>
        <mxCell id="6_BgS3UIXrI-bBICyFOS-143" value="" style="endArrow=classic;html=1;rounded=0;endSize=2;entryX=0;entryY=0.5;entryDx=0;entryDy=0;exitX=1;exitY=0.5;exitDx=0;exitDy=0;" edge="1" parent="1" target="6_BgS3UIXrI-bBICyFOS-131">
          <mxGeometry width="50" height="50" relative="1" as="geometry">
            <mxPoint x="495" y="328.86" as="sourcePoint" />
            <mxPoint x="555" y="328.86" as="targetPoint" />
          </mxGeometry>
        </mxCell>
        <mxCell id="6_BgS3UIXrI-bBICyFOS-144" value="" style="endArrow=classic;html=1;rounded=0;endSize=2;exitX=1;exitY=0.5;exitDx=0;exitDy=0;" edge="1" parent="1" source="6_BgS3UIXrI-bBICyFOS-131">
          <mxGeometry width="50" height="50" relative="1" as="geometry">
            <mxPoint x="599" y="328" as="sourcePoint" />
            <mxPoint x="630" y="260" as="targetPoint" />
            <Array as="points">
              <mxPoint x="610" y="329" />
              <mxPoint x="610" y="260" />
            </Array>
          </mxGeometry>
        </mxCell>
      </root>
    </mxGraphModel>
  </diagram>
  <diagram id="0EzNgs863T_W1WKrycFe" name="第 2 页">
    <mxGraphModel dx="1033" dy="570" grid="1" gridSize="10" guides="1" tooltips="1" connect="1" arrows="1" fold="1" page="1" pageScale="1" pageWidth="827" pageHeight="1169" math="0" shadow="0">
      <root>
        <mxCell id="0" />
        <mxCell id="1" parent="0" />
      </root>
    </mxGraphModel>
  </diagram>
</mxfile>
